STARTFONT 2.1
COMMENT
COMMENT Converted from OpenType font "UbuntuMono-Italic.ttf" by "otf2bdf 3.0".
COMMENT
FONT -FreeType-Ubuntu Mono-Medium-I-Normal--50-360-100-100-P-233-ISO10646-1
SIZE 36 100 100
FONTBOUNDINGBOX 43 51 -10 -9
STARTPROPERTIES 19
FOUNDRY "FreeType"
FAMILY_NAME "Ubuntu Mono"
WEIGHT_NAME "Medium"
SLANT "I"
SETWIDTH_NAME "Normal"
ADD_STYLE_NAME ""
PIXEL_SIZE 50
POINT_SIZE 360
RESOLUTION_X 100
RESOLUTION_Y 100
SPACING "P"
AVERAGE_WIDTH 233
CHARSET_REGISTRY "ISO10646"
CHARSET_ENCODING "1"
FONT_ASCENT 41
FONT_DESCENT 8
COPYRIGHT "Copyright 2011 Canonical Ltd.  Licensed under the Ubuntu Font Licence 1.0"
_OTF_FONTFILE "UbuntuMono-Italic.ttf"
_OTF_PSNAME "UbuntuMono-Italic"
ENDPROPERTIES
CHARS 1224
STARTCHAR 0000
ENCODING 0
SWIDTH 500 0
DWIDTH 25 0
BBX 0 0 0 0
BITMAP
ENDCHAR
STARTCHAR 0008
ENCODING 8
SWIDTH 500 0
DWIDTH 25 0
BBX 0 0 0 0
BITMAP
ENDCHAR
STARTCHAR 0009
ENCODING 9
SWIDTH 500 0
DWIDTH 25 0
BBX 0 0 0 0
BITMAP
ENDCHAR
STARTCHAR 000D
ENCODING 13
SWIDTH 500 0
DWIDTH 25 0
BBX 0 0 0 0
BITMAP
ENDCHAR
STARTCHAR 001D
ENCODING 29
SWIDTH 500 0
DWIDTH 25 0
BBX 0 0 0 0
BITMAP
ENDCHAR
STARTCHAR 0020
ENCODING 32
SWIDTH 500 0
DWIDTH 25 0
BBX 0 0 0 0
BITMAP
ENDCHAR
STARTCHAR 0021
ENCODING 33
SWIDTH 500 0
DWIDTH 25 0
BBX 12 32 9 -1
BITMAP
01F0
01E0
01E0
03E0
03E0
03C0
03C0
07C0
07C0
0780
0780
0780
0F80
0F00
0F00
0F00
0E00
0E00
1E00
1C00
0000
0000
0000
0000
0000
7800
FC00
FC00
FC00
FC00
F800
2000
ENDCHAR
STARTCHAR 0022
ENCODING 34
SWIDTH 500 0
DWIDTH 25 0
BBX 14 13 11 21
BITMAP
3C3C
3C3C
383C
7838
7878
7878
7078
7070
7070
E070
E060
E0E0
C0C0
ENDCHAR
STARTCHAR 0023
ENCODING 35
SWIDTH 500 0
DWIDTH 25 0
BBX 26 31 2 0
BITMAP
000783C0
000783C0
000F0380
000F0780
001E0780
001E0F00
001C0F00
003C1E00
0FFFFFC0
1FFFFFC0
1FFFFFC0
1FFFFF80
00F07800
01E07800
01E0F000
01C0F000
03C1E000
03C1E000
0781C000
7FFFFE00
7FFFFE00
7FFFFE00
FFFFFE00
1E0F0000
1E0F0000
3C0E0000
3C1E0000
781E0000
783C0000
703C0000
F0780000
ENDCHAR
STARTCHAR 0024
ENCODING 36
SWIDTH 500 0
DWIDTH 25 0
BBX 23 40 4 -5
BITMAP
0003C0
0003C0
0003C0
000380
000380
0007C0
007FF8
00FFFE
01FFFC
03E018
07C000
078000
078000
078000
078000
078000
07E000
03F000
01FC00
00FF00
003F80
000FC0
0003E0
0001E0
0001E0
0001E0
0001E0
0001E0
0003E0
6007C0
FE7FC0
FFFF80
FFFE00
1FF800
03C000
03C000
03C000
038000
078000
078000
ENDCHAR
STARTCHAR 0025
ENCODING 37
SWIDTH 500 0
DWIDTH 25 0
BBX 29 33 1 -1
BITMAP
00300000
00FC0078
01FE00F0
038E01E0
078E01C0
070E0380
070E0780
0E0E0F00
0E0E1E00
0E0E3C00
0E1E3800
0E1C7000
0E3CE000
0FF9E000
07F3C000
03C78000
000F0000
000E3C00
001C7E00
0038FF00
0079C700
00F3C700
01E38780
03C38700
03870700
07070700
0F070700
1E070F00
3C070E00
78079E00
7003FC00
E003F800
00006000
ENDCHAR
STARTCHAR 0026
ENCODING 38
SWIDTH 500 0
DWIDTH 25 0
BBX 21 32 3 0
BITMAP
000700
003FC0
007FE0
00FFF0
01E0F0
03E0F0
03C0F0
03C0F0
03C0F0
0381E0
0383E0
03C7C0
03CF80
03FF00
01FE00
01F820
07F038
0FF878
1E7878
3C3C70
783EF0
781EE0
F00FE0
F00FC0
F007C0
F007C0
F00FC0
F81FC0
FC3FE0
7FFDE0
3FF1E0
1FE1F0
ENDCHAR
STARTCHAR 0027
ENCODING 39
SWIDTH 500 0
DWIDTH 25 0
BBX 6 13 15 21
BITMAP
3C
3C
3C
7C
78
78
78
78
70
F0
F0
E0
E0
ENDCHAR
STARTCHAR 0028
ENCODING 40
SWIDTH 500 0
DWIDTH 25 0
BBX 19 43 7 -8
BITMAP
000040
0001C0
0003E0
0007E0
001F80
003F00
007E00
00FC00
00F800
01F000
03E000
07C000
078000
0F8000
0F0000
1E0000
1E0000
3C0000
3C0000
7C0000
780000
780000
780000
780000
F00000
F00000
F00000
F00000
F00000
F00000
780000
780000
780000
780000
3C0000
3C0000
3E0000
1E0000
1F0000
0F8000
07C000
078000
030000
ENDCHAR
STARTCHAR 0029
ENCODING 41
SWIDTH 500 0
DWIDTH 25 0
BBX 19 43 3 -8
BITMAP
001000
003800
007C00
003E00
001E00
001F00
000F80
000780
000780
0007C0
0003C0
0003C0
0003C0
0001E0
0001E0
0001E0
0001E0
0001E0
0001E0
0003C0
0003C0
0003C0
0003C0
0007C0
000780
000780
000F00
000F00
001F00
001E00
003C00
007C00
00F800
00F800
01F000
03E000
07C000
1F8000
3F0000
7E0000
FC0000
F00000
600000
ENDCHAR
STARTCHAR 002A
ENCODING 42
SWIDTH 500 0
DWIDTH 25 0
BBX 19 18 7 12
BITMAP
01F000
01F000
01F000
00E000
00E000
60E0C0
7CE7C0
FFEFE0
FFFFE0
1FFF00
01F000
03F800
07BC00
0FBE00
1F1F00
1F1F00
1E0F00
0C0600
ENDCHAR
STARTCHAR 002B
ENCODING 43
SWIDTH 500 0
DWIDTH 25 0
BBX 21 22 4 2
BITMAP
001E00
001E00
001E00
001E00
003C00
003C00
003C00
003C00
007800
7FFFF8
7FFFF8
7FFFF8
FFFFF0
00F000
00F000
00F000
00E000
01E000
01E000
01E000
01C000
03C000
ENDCHAR
STARTCHAR 002C
ENCODING 44
SWIDTH 500 0
DWIDTH 25 0
BBX 11 14 5 -7
BITMAP
0380
07C0
0FE0
0FE0
0FE0
0FE0
07E0
03C0
03C0
0780
1F00
FE00
FC00
7000
ENDCHAR
STARTCHAR 002D
ENCODING 45
SWIDTH 500 0
DWIDTH 25 0
BBX 12 4 9 11
BITMAP
7FF0
FFE0
FFE0
FFE0
ENDCHAR
STARTCHAR 002E
ENCODING 46
SWIDTH 500 0
DWIDTH 25 0
BBX 7 8 9 -1
BITMAP
3C
FE
FE
FE
FE
FE
FC
20
ENDCHAR
STARTCHAR 002F
ENCODING 47
SWIDTH 500 0
DWIDTH 25 0
BBX 27 43 0 -8
BITMAP
000001E0
000001E0
000003C0
000003C0
00000780
00000F80
00000F00
00001E00
00001E00
00003C00
00003C00
00007800
0000F800
0000F000
0001F000
0001E000
0003C000
0003C000
00078000
00078000
000F0000
001F0000
001E0000
003C0000
003C0000
00780000
00780000
00F00000
01F00000
01E00000
03E00000
03C00000
07800000
07800000
0F000000
0F000000
1E000000
3E000000
3C000000
78000000
78000000
F0000000
F0000000
ENDCHAR
STARTCHAR 0030
ENCODING 48
SWIDTH 500 0
DWIDTH 25 0
BBX 22 33 4 -1
BITMAP
000780
003FE0
007FF0
01FFF8
01F0F8
03E07C
07C03C
0F803C
0F003C
1F003C
1E003C
3E003C
3C003C
3C7C3C
7C7C3C
78FC7C
78FC78
78FC78
787878
F800F8
F800F0
F000F0
F001E0
F001E0
F003E0
F807C0
F80780
780F80
7C3F00
7FFE00
3FFC00
1FF000
038000
ENDCHAR
STARTCHAR 0031
ENCODING 49
SWIDTH 500 0
DWIDTH 25 0
BBX 18 31 5 0
BITMAP
0003C0
0007C0
000F80
003F80
007F80
03FF80
0FFF00
0FCF00
0F0F00
041F00
001E00
001E00
001E00
003E00
003C00
003C00
003C00
003C00
007800
007800
007800
007800
00F000
00F000
00F000
00F000
01F000
FFFF80
FFFF80
FFFF80
FFFF00
ENDCHAR
STARTCHAR 0032
ENCODING 50
SWIDTH 500 0
DWIDTH 25 0
BBX 22 32 4 0
BITMAP
000700
007FE0
01FFF0
07FFF8
03E0FC
03007C
02003C
00003C
00003C
00003C
00007C
000078
0000F8
0001F0
0003F0
0007E0
000FC0
003F80
007E00
00FC00
01F800
07E000
0FC000
1F8000
1F0000
3E0000
7C0000
780000
FFFFC0
FFFFC0
FFFFC0
FFFFC0
ENDCHAR
STARTCHAR 0033
ENCODING 51
SWIDTH 500 0
DWIDTH 25 0
BBX 23 33 3 -1
BITMAP
000780
007FF0
01FFF8
01FFFC
00E07C
00803E
00003E
00003E
00003E
00003C
00003C
00007C
0000F8
0007F0
007FC0
007F00
007FC0
000FE0
0001F0
0000F0
0000F0
0000F8
0000F8
0000F8
0000F0
0000F0
0001F0
4003E0
700FE0
7FFFC0
FFFF00
7FFE00
03E000
ENDCHAR
STARTCHAR 0034
ENCODING 52
SWIDTH 500 0
DWIDTH 25 0
BBX 22 31 3 0
BITMAP
00003C
00007C
0001FC
0003FC
0007F8
000FF8
001F78
003E78
007C78
00F8F0
01F0F0
01E0F0
03C0F0
0781E0
0F01E0
1E01E0
1E01E0
3C03C0
7803C0
7803C0
FFFFF8
FFFFF8
FFFFF8
000780
000780
000F00
000F00
000F00
000F00
001F00
001E00
ENDCHAR
STARTCHAR 0035
ENCODING 53
SWIDTH 500 0
DWIDTH 25 0
BBX 24 32 3 -1
BITMAP
003FFF
003FFF
007FFF
007FFF
007800
007000
00F000
00F000
00E000
01E000
01E000
03C000
03F800
03FF00
07FFC0
003FE0
0007E0
0001F0
0000F0
0000F0
0000F0
0000F0
0000F0
0000F0
0001F0
0003E0
4007E0
701FC0
FFFF80
FFFF00
7FFC00
07C000
ENDCHAR
STARTCHAR 0036
ENCODING 54
SWIDTH 500 0
DWIDTH 25 0
BBX 22 32 5 -1
BITMAP
00007C
0007FC
001FFC
003FF8
00FE00
01F800
03E000
07C000
0F8000
0F0000
1E0000
3E0000
3C7E00
3FFF80
7FFFC0
7FFFE0
7803E0
F801F0
F000F0
F000F0
F000F0
F001F0
F001E0
F001E0
F003E0
F003C0
F807C0
7C0F80
7FFF00
3FFE00
1FF800
038000
ENDCHAR
STARTCHAR 0037
ENCODING 55
SWIDTH 500 0
DWIDTH 25 0
BBX 22 31 7 0
BITMAP
1FFFFC
1FFFFC
1FFFFC
3FFFFC
0000F8
0001F0
0003E0
0007C0
000F80
000F00
001E00
003E00
007C00
007800
00F800
01F000
01E000
03E000
03C000
078000
0F8000
0F0000
1F0000
1E0000
3E0000
3C0000
7C0000
7C0000
780000
F80000
F80000
ENDCHAR
STARTCHAR 0038
ENCODING 56
SWIDTH 500 0
DWIDTH 25 0
BBX 23 33 4 -1
BITMAP
000780
003FF0
00FFF8
01FFFC
03E07C
03C03E
07801E
07801E
0F801E
0F003E
0F003C
0F807C
078078
07C0F0
03F3E0
01FFC0
03FF00
0FFFC0
1F07E0
3E03E0
7C01F0
7800F0
F800F0
F000F0
F000F0
F001F0
F001E0
F803E0
7C0FC0
7FFF80
3FFF00
1FFC00
03C000
ENDCHAR
STARTCHAR 0039
ENCODING 57
SWIDTH 500 0
DWIDTH 25 0
BBX 23 32 4 0
BITMAP
000700
007FE0
01FFF0
03FFF8
07E07C
07C03C
0F803C
0F003E
1F001E
1E001E
1E001E
1E001E
1E003E
1E003C
1E003C
1F007C
0FFFFC
0FFFFC
03FFF8
00FCF8
0000F0
0001F0
0003E0
0003C0
0007C0
001F80
003F00
00FE00
BFF800
FFF000
FFC000
FE0000
ENDCHAR
STARTCHAR 003A
ENCODING 58
SWIDTH 500 0
DWIDTH 25 0
BBX 11 24 9 -1
BITMAP
07C0
0FE0
0FE0
0FE0
0FE0
0FC0
0F80
0200
0000
0000
0000
0000
0000
0000
0000
0000
3C00
FE00
FE00
FE00
FE00
FE00
FC00
2000
ENDCHAR
STARTCHAR 003B
ENCODING 59
SWIDTH 500 0
DWIDTH 25 0
BBX 15 30 5 -7
BITMAP
007C
00FE
00FE
00FE
00FE
00FC
00F8
0020
0000
0000
0000
0000
0000
0000
0000
0000
0380
07C0
0FE0
0FE0
0FE0
0FE0
07E0
03C0
03C0
0780
1F00
FE00
FC00
7000
ENDCHAR
STARTCHAR 003C
ENCODING 60
SWIDTH 500 0
DWIDTH 25 0
BBX 22 20 4 3
BITMAP
000004
00001C
0000FC
0007FC
001FF8
00FFC0
03FE00
1FF800
7FC000
FE0000
F80000
FE0000
7F8000
1FE000
07FC00
01FF00
007FC0
001FC0
0007C0
000180
ENDCHAR
STARTCHAR 003D
ENCODING 61
SWIDTH 500 0
DWIDTH 25 0
BBX 23 13 3 7
BITMAP
1FFFFE
1FFFFE
1FFFFE
1FFFFE
000000
000000
000000
000000
000000
000000
7FFFF8
7FFFF8
FFFFF0
ENDCHAR
STARTCHAR 003E
ENCODING 62
SWIDTH 500 0
DWIDTH 25 0
BBX 22 19 3 4
BITMAP
0F0000
0FC000
1FF000
07FC00
01FF00
007FC0
000FF0
0003FC
0000FC
0000FC
0007F8
001FF0
00FF80
07FE00
1FF000
FFC000
FE0000
F80000
C00000
ENDCHAR
STARTCHAR 003F
ENCODING 63
SWIDTH 500 0
DWIDTH 25 0
BBX 18 33 8 -1
BITMAP
007000
0FFE00
0FFF80
0FFF80
0C07C0
0007C0
0003C0
0003C0
0003C0
000780
000F80
001F00
003E00
007C00
00F800
01E000
03C000
078000
0F0000
0F0000
1E0000
000000
000000
000000
000000
000000
3C0000
7C0000
FE0000
FE0000
FC0000
7C0000
300000
ENDCHAR
STARTCHAR 0040
ENCODING 64
SWIDTH 500 0
DWIDTH 25 0
BBX 25 39 3 -7
BITMAP
0001E000
000FFC00
003FFE00
007FFF00
00FC0F00
01F00F80
03E00780
07C00780
07800780
0F800780
0F001780
1E03FF80
1E0FFF00
3C1FFF00
3C3E0F00
3C3C0F00
78781E00
78781E00
78F01E00
78F01E00
78F03C00
70F03C00
F0F03C00
F0F03C00
F0F07800
F0F87800
707EF800
783FF800
781FF000
7807C000
78000000
3C000000
3C000000
3E000000
1F800000
0FFF0000
07FF0000
03FE0000
00380000
ENDCHAR
STARTCHAR 0041
ENCODING 65
SWIDTH 500 0
DWIDTH 25 0
BBX 23 31 0 0
BITMAP
0000F8
0001F8
0001FC
0003FC
0003BC
0007BC
000F3C
000F3C
001E3C
001C3C
003C1C
00381C
00781E
00F01E
00F01E
01E01E
01E01E
03C01E
03C01E
07FFFE
07FFFE
0FFFFE
0FFFFE
1E001E
1E001E
3C001E
3C001E
78001E
78001E
F0001E
F0001E
ENDCHAR
STARTCHAR 0042
ENCODING 66
SWIDTH 500 0
DWIDTH 25 0
BBX 24 31 2 0
BITMAP
01FFF0
01FFFC
01FFFE
01E07F
03E01F
03C00F
03C00F
03C00F
07C00F
07800F
07801E
07803E
0780FC
0FFFF0
0FFFE0
0FFFF0
0FFFF8
1E007C
1E003C
1E003C
1E003C
3C003C
3C003C
3C003C
3C007C
7800F8
7801F8
780FF0
7FFFC0
FFFF80
FFFC00
ENDCHAR
STARTCHAR 0043
ENCODING 67
SWIDTH 500 0
DWIDTH 25 0
BBX 25 33 4 -1
BITMAP
0000F000
000FFE00
003FFF80
00FFFF00
01FC0F00
03F00200
07C00000
07800000
0F800000
1F000000
1E000000
3E000000
3C000000
3C000000
7C000000
78000000
78000000
78000000
78000000
78000000
F8000000
F8000000
F8000000
78000000
78000000
78000000
7C000000
3E004000
3F01C000
1FFFC000
0FFFC000
07FF8000
00F80000
ENDCHAR
STARTCHAR 0044
ENCODING 68
SWIDTH 500 0
DWIDTH 25 0
BBX 24 31 2 0
BITMAP
01FFC0
01FFF0
03FFF8
03C1FC
03C07E
03C03E
03C01F
07801F
07800F
07800F
07800F
0F000F
0F000F
0F000F
0F000F
1E000F
1E001F
1E001E
1E001E
3C003E
3C003C
3C007C
3C0078
7C00F8
7801F0
7803E0
780FE0
787F80
FFFF00
FFFC00
FFF000
ENDCHAR
STARTCHAR 0045
ENCODING 69
SWIDTH 500 0
DWIDTH 25 0
BBX 24 31 4 0
BITMAP
01FFFF
01FFFF
03FFFF
03FFFF
03C000
03C000
07C000
078000
078000
078000
078000
0F0000
0F0000
0FFFE0
0FFFE0
1FFFE0
1FFFE0
1E0000
1E0000
3C0000
3C0000
3C0000
3C0000
7C0000
780000
780000
780000
FFFFE0
FFFFE0
FFFFC0
FFFFC0
ENDCHAR
STARTCHAR 0046
ENCODING 70
SWIDTH 500 0
DWIDTH 25 0
BBX 24 31 4 0
BITMAP
01FFFF
01FFFF
03FFFF
03FFFF
03C000
03C000
07C000
078000
078000
078000
078000
0F0000
0F0000
0FFFF0
0FFFE0
1FFFE0
1FFFE0
1E0000
1E0000
3C0000
3C0000
3C0000
3C0000
780000
780000
780000
780000
F80000
F00000
F00000
F00000
ENDCHAR
STARTCHAR 0047
ENCODING 71
SWIDTH 500 0
DWIDTH 25 0
BBX 24 33 4 -1
BITMAP
0000E0
001FFC
007FFF
00FFFE
01F81E
03E004
07C000
0F8000
0F0000
1E0000
3E0000
3C0000
3C0000
780000
780000
780000
780000
F00078
F000F8
F000F0
F000F0
F000F0
F001F0
F001E0
F801E0
F801E0
7801E0
7C03C0
3F03C0
3FFFC0
1FFFC0
07FF80
00F000
ENDCHAR
STARTCHAR 0048
ENCODING 72
SWIDTH 500 0
DWIDTH 25 0
BBX 27 31 2 0
BITMAP
01E001E0
01E003E0
01E003C0
03C003C0
03C003C0
03C007C0
03C00780
07C00780
07800780
07800F80
07800F00
0F800F00
0F000F00
0FFFFF00
0FFFFE00
1FFFFE00
1FFFFE00
1E001E00
1E003C00
1E003C00
3C003C00
3C003C00
3C007800
3C007800
78007800
78007800
7800F800
7800F000
F000F000
F000F000
F001F000
ENDCHAR
STARTCHAR 0049
ENCODING 73
SWIDTH 500 0
DWIDTH 25 0
BBX 23 31 4 0
BITMAP
01FFFE
01FFFE
03FFFC
03FFFC
000F00
000F00
001F00
001E00
001E00
001E00
003E00
003C00
003C00
003C00
007C00
007800
007800
007800
00F800
00F000
00F000
00F000
00F000
01E000
01E000
01E000
01E000
FFFF00
FFFF00
FFFF00
FFFF00
ENDCHAR
STARTCHAR 004A
ENCODING 74
SWIDTH 500 0
DWIDTH 25 0
BBX 24 32 4 -1
BITMAP
007FFF
007FFE
00FFFE
00FFFE
00001E
00003C
00003C
00003C
00003C
000078
000078
000078
000078
0000F8
0000F0
0000F0
0000F0
0001F0
0001E0
0001E0
0001E0
0003E0
0003C0
0003C0
0007C0
000780
600F80
F03F00
FFFE00
FFFC00
3FF800
038000
ENDCHAR
STARTCHAR 004B
ENCODING 75
SWIDTH 500 0
DWIDTH 25 0
BBX 27 31 2 0
BITMAP
00F003E0
01E007C0
01E00F80
01E01F00
01E03E00
03C07C00
03C0F800
03C1F000
03C3E000
0787C000
078F8000
079F0000
07BE0000
0FFC0000
0FF80000
0FF80000
0FFC0000
1F7C0000
1E3E0000
1E1F0000
1E0F0000
1E0F8000
3C078000
3C03C000
3C03C000
3C01E000
7801E000
7801F000
7800F000
7800F800
F0007800
ENDCHAR
STARTCHAR 004C
ENCODING 76
SWIDTH 500 0
DWIDTH 25 0
BBX 18 31 3 0
BITMAP
01E000
01E000
01E000
03C000
03C000
03C000
03C000
078000
078000
078000
078000
0F8000
0F0000
0F0000
0F0000
1F0000
1E0000
1E0000
1E0000
3E0000
3C0000
3C0000
3C0000
7C0000
780000
780000
780000
7FFFC0
FFFFC0
FFFFC0
FFFF80
ENDCHAR
STARTCHAR 004D
ENCODING 77
SWIDTH 500 0
DWIDTH 25 0
BBX 27 31 1 0
BITMAP
007801E0
007C03E0
007C03E0
00FC07E0
00FC07C0
00FC0FC0
01DC1FC0
01DC1DC0
01DC39C0
03DC3BC0
039C7380
039C7380
079CE380
071CE380
071DC780
0F0FC780
0F0F8700
0E0F0700
1E0F0F00
1E000F00
1E000F00
1C000F00
3C000E00
3C001E00
3C001E00
78001E00
78001E00
78003C00
70003C00
F0003C00
F0003C00
ENDCHAR
STARTCHAR 004E
ENCODING 78
SWIDTH 500 0
DWIDTH 25 0
BBX 27 31 2 0
BITMAP
01F001E0
01F001E0
01F001C0
01F803C0
03F803C0
03F803C0
03F80380
03BC0780
07BC0780
079C0780
079E0700
071E0F00
0F0E0F00
0F0E0F00
0F0F0E00
0E0F0E00
1E071E00
1E071E00
1E071E00
1C079C00
1C07BC00
3C03BC00
3C03BC00
3C03B800
3803F800
7803F800
7801F800
7801F000
7001F000
F001F000
F001F000
ENDCHAR
STARTCHAR 004F
ENCODING 79
SWIDTH 500 0
DWIDTH 25 0
BBX 23 33 4 -1
BITMAP
000380
003FE0
00FFF8
01FFF8
03F07C
07C03C
07803E
0F801E
0F001E
1E001E
1E001E
3C001E
3C001E
3C001E
78001E
78003E
78003C
78003C
F0003C
F0007C
F00078
F00078
F000F0
F000F0
F001F0
F001E0
F803C0
7807C0
7C1F80
3FFF00
3FFE00
0FF800
03C000
ENDCHAR
STARTCHAR 0050
ENCODING 80
SWIDTH 500 0
DWIDTH 25 0
BBX 24 31 3 0
BITMAP
01FFE0
01FFF8
03FFFC
03C0FE
03C03F
03C01F
03C00F
07800F
07800F
07800F
07800F
0F001E
0F001E
0F003C
0F007C
1E03F8
1FFFF0
1FFFC0
1FFF00
3E0000
3C0000
3C0000
3C0000
7C0000
780000
780000
780000
780000
F00000
F00000
F00000
ENDCHAR
STARTCHAR 0051
ENCODING 81
SWIDTH 500 0
DWIDTH 25 0
BBX 23 40 4 -8
BITMAP
000380
003FE0
00FFF8
01FFF8
03F07C
07C03C
07803E
0F801E
0F001E
1E001E
1E001E
3C001E
3C001E
3C001E
78001E
78003E
78003C
78003C
F0003C
F0007C
F00078
F00078
F000F0
F000F0
F001F0
F001E0
F803C0
7807C0
7C1F80
3FFF00
3FFE00
0FF800
07C000
07C000
03C000
03F000
01FC00
01FF00
007F00
001E00
ENDCHAR
STARTCHAR 0052
ENCODING 82
SWIDTH 500 0
DWIDTH 25 0
BBX 24 31 2 0
BITMAP
01FFF0
01FFFC
01FFFE
01E07F
01E01F
03C00F
03C00F
03C00F
03C00F
07800F
07800F
07800F
07801E
0F803E
0F00FC
0FFFF8
0FFFF0
1FFFC0
1FFF00
1E0780
1E0780
3E03C0
3C03C0
3C03E0
3C01E0
3C01E0
7801E0
7800F0
7800F0
7800F0
F000F0
ENDCHAR
STARTCHAR 0053
ENCODING 83
SWIDTH 500 0
DWIDTH 25 0
BBX 24 33 3 -1
BITMAP
0003E0
003FFE
007FFF
00FFFF
01F80E
03E000
03C000
03C000
07C000
07C000
07C000
03C000
03E000
03F000
01FC00
00FF00
007F80
001FE0
0007E0
0003F0
0001F0
0000F0
0000F0
0000F0
0000F0
0000F0
0001F0
4003E0
780FE0
FFFFC0
FFFF80
3FFE00
07E000
ENDCHAR
STARTCHAR 0054
ENCODING 84
SWIDTH 500 0
DWIDTH 25 0
BBX 21 31 8 0
BITMAP
FFFFF8
FFFFF8
FFFFF8
FFFFF8
00F000
00F000
01E000
01E000
01E000
01E000
03C000
03C000
03C000
03C000
07C000
078000
078000
078000
0F8000
0F0000
0F0000
0F0000
1F0000
1E0000
1E0000
1E0000
3E0000
3C0000
3C0000
3C0000
3C0000
ENDCHAR
STARTCHAR 0055
ENCODING 85
SWIDTH 500 0
DWIDTH 25 0
BBX 25 32 4 -1
BITMAP
07800780
07800F00
07800F00
0F000F00
0F000F00
0F001F00
0F001E00
1F001E00
1E001E00
1E003E00
1E003C00
3E003C00
3C003C00
3C007C00
3C007800
7C007800
78007800
7800F800
7800F000
7800F000
F000F000
F001F000
F001E000
F001E000
F003E000
F803C000
7807C000
7C0F8000
7FFF0000
3FFE0000
0FFC0000
03C00000
ENDCHAR
STARTCHAR 0056
ENCODING 86
SWIDTH 500 0
DWIDTH 25 0
BBX 23 31 7 0
BITMAP
F0001E
F0001E
F0003C
F0003C
F00078
F00078
F000F0
F000F0
F001E0
F001E0
F003C0
F003C0
F00780
F00780
F00F00
F00F00
781E00
783E00
783C00
787C00
787800
78F000
78F000
79E000
79E000
7BC000
7BC000
7F8000
3F0000
3F0000
3E0000
ENDCHAR
STARTCHAR 0057
ENCODING 87
SWIDTH 500 0
DWIDTH 25 0
BBX 27 31 3 0
BITMAP
078001E0
078001E0
078003C0
0F0003C0
0F0003C0
0F000380
0F000780
0F000780
1E000780
1E000700
1E000F00
1E000F00
1C1E0E00
1C3E1E00
3C3E1E00
3C7E1C00
387E1C00
38EE3C00
38E63C00
39C63800
7BC73800
73877800
77077000
77077000
7E07F000
7E07E000
FC07E000
FC07C000
F807C000
F807C000
F0078000
ENDCHAR
STARTCHAR 0058
ENCODING 88
SWIDTH 500 0
DWIDTH 25 0
BBX 29 31 1 0
BITMAP
00F000F8
00F800F0
007801F0
007C03E0
007C03C0
003C0780
003E0F80
003E1F00
001E3E00
001F3C00
000F7800
000FF800
000FF000
0007E000
0007C000
000FC000
001FC000
001FE000
003DE000
007DE000
00F8F000
01F0F000
03E0F000
03C0F800
07C07800
0F807800
1F007C00
3E003C00
7C003C00
7C003C00
F8003E00
ENDCHAR
STARTCHAR 0059
ENCODING 89
SWIDTH 500 0
DWIDTH 25 0
BBX 24 31 7 0
BITMAP
F0001F
78001E
78003E
78007C
780078
7800F8
3C01F0
3C01E0
3C03C0
3C07C0
1E0780
1E0F00
1E1E00
1E3E00
0F3C00
0F7800
0FF000
07E000
07C000
03C000
078000
078000
078000
078000
0F0000
0F0000
0F0000
0F0000
1F0000
1E0000
1E0000
ENDCHAR
STARTCHAR 005A
ENCODING 90
SWIDTH 500 0
DWIDTH 25 0
BBX 26 31 2 0
BITMAP
00FFFFC0
01FFFFC0
01FFFFC0
01FFFFC0
00000F80
00001F00
00003E00
00007C00
0000F800
0000F000
0001E000
0003C000
0007C000
000F8000
001F0000
003E0000
003C0000
00780000
00F00000
01F00000
03E00000
07C00000
07800000
0F000000
1F000000
3E000000
7C000000
7FFFF800
FFFFF000
FFFFF000
FFFFF000
ENDCHAR
STARTCHAR 005B
ENCODING 91
SWIDTH 500 0
DWIDTH 25 0
BBX 22 43 5 -8
BITMAP
003FFC
003FFC
003FFC
007800
007800
007800
007800
00F000
00F000
00F000
00F000
00E000
01E000
01E000
01E000
01E000
03C000
03C000
03C000
03C000
078000
078000
078000
078000
0F0000
0F0000
0F0000
0F0000
1E0000
1E0000
1E0000
1E0000
3C0000
3C0000
3C0000
3C0000
380000
780000
780000
780000
7FF800
FFF000
FFF000
ENDCHAR
STARTCHAR 005C
ENCODING 92
SWIDTH 500 0
DWIDTH 25 0
BBX 7 43 11 -8
BITMAP
F0
F0
F0
F0
F0
F8
F8
78
78
78
78
78
78
78
78
78
78
78
7C
7C
3C
3C
3C
3C
3C
3C
3C
3C
3C
3C
3E
3E
3E
1E
1E
1E
1E
1E
1E
1E
1E
1E
1E
ENDCHAR
STARTCHAR 005D
ENCODING 93
SWIDTH 500 0
DWIDTH 25 0
BBX 23 43 1 -8
BITMAP
001FFE
003FFC
003FFC
00003C
00003C
000078
000078
000078
000078
0000F0
0000F0
0000F0
0000F0
0000E0
0001E0
0001E0
0001E0
0001C0
0003C0
0003C0
0003C0
0003C0
000780
000780
000780
000780
000F00
000F00
000F00
000F00
001E00
001E00
001E00
001E00
003C00
003C00
003C00
003C00
003800
007800
7FF800
7FF800
FFF000
ENDCHAR
STARTCHAR 005E
ENCODING 94
SWIDTH 500 0
DWIDTH 25 0
BBX 20 17 6 14
BITMAP
001E00
003E00
007F00
007F00
00FF00
01F780
03E780
07C780
0783C0
0F03C0
1F03C0
3E01E0
7C01E0
7801E0
F000F0
F000E0
200080
ENDCHAR
STARTCHAR 005F
ENCODING 95
SWIDTH 500 0
DWIDTH 25 0
BBX 23 3 -1 -8
BITMAP
FFFFFE
FFFFFC
FFFFFC
ENDCHAR
STARTCHAR 0060
ENCODING 96
SWIDTH 500 0
DWIDTH 25 0
BBX 8 9 14 26
BITMAP
60
F0
F0
78
3C
1E
1F
0E
04
ENDCHAR
STARTCHAR 0061
ENCODING 97
SWIDTH 500 0
DWIDTH 25 0
BBX 22 25 4 -1
BITMAP
0007C0
007FFC
01FFF8
03FFF8
0FE078
1F8078
1F00F0
3E00F0
7C00F0
7800F0
F801E0
F001E0
F001E0
F001E0
F003C0
F003C0
F003C0
F003C0
F003C0
F007C0
F81FC0
7FFFC0
3FFBC0
1FF3C0
030000
ENDCHAR
STARTCHAR 0062
ENCODING 98
SWIDTH 500 0
DWIDTH 25 0
BBX 22 36 3 -1
BITMAP
001000
00F000
00F000
01F000
01E000
01E000
01E000
03E000
03C000
03C000
03C000
03C780
07BFE0
07FFF0
07FFF8
07C0FC
0F007C
0F003C
0F003C
0F003C
1E003C
1E003C
1E003C
1E003C
3C007C
3C0078
3C00F8
3C00F0
7C01F0
7803E0
780FC0
783F80
7FFF00
FFFE00
7FF000
020000
ENDCHAR
STARTCHAR 0063
ENCODING 99
SWIDTH 500 0
DWIDTH 25 0
BBX 21 25 4 -1
BITMAP
000FE0
00FFF8
03FFF8
07FFF8
0FE010
1F8000
3E0000
3C0000
7C0000
780000
F80000
F00000
F00000
F00000
F00000
F00000
F00000
F00000
F00000
F80000
7E01C0
3FFFC0
1FFFC0
0FFF80
007000
ENDCHAR
STARTCHAR 0064
ENCODING 100
SWIDTH 500 0
DWIDTH 25 0
BBX 25 36 4 -1
BITMAP
00000080
00000780
00000F80
00000F00
00000F00
00000F00
00001F00
00001E00
00001E00
00001E00
00003E00
0003FC00
007FFC00
01FFFC00
03FFFC00
07E07800
0F807800
1F007800
3E007800
3C00F000
7C00F000
7800F000
7800F000
F801E000
F001E000
F001E000
F001E000
F003C000
F003C000
F003C000
F807C000
7C1FC000
7FFFC000
3FFDE000
1FF1E000
01000000
ENDCHAR
STARTCHAR 0065
ENCODING 101
SWIDTH 500 0
DWIDTH 25 0
BBX 21 25 4 -1
BITMAP
001E00
00FFE0
03FFF0
07FFF8
0FC0F8
1F0078
3E0078
3C0078
7C00F8
7800F0
F803F0
F03FE0
FFFFC0
FFFE00
FFE000
F00000
F00000
F00000
F00000
F80000
7E03C0
7FFFC0
3FFFC0
0FFF80
00E000
ENDCHAR
STARTCHAR 0066
ENCODING 102
SWIDTH 500 0
DWIDTH 25 0
BBX 30 43 0 -8
BITMAP
000001C0
00001FFC
00003FF8
00007FF8
0000FC00
0000F000
0001F000
0001E000
0001E000
0003C000
0003C000
0003C000
007FFFE0
00FFFFE0
00FFFFE0
00078000
00078000
00078000
000F8000
000F0000
000F0000
000F0000
001F0000
001E0000
001E0000
001E0000
001E0000
003E0000
003C0000
003C0000
003C0000
003C0000
007C0000
00780000
00780000
00780000
00F80000
00F00000
01F00000
43E00000
7FE00000
7FC00000
FF000000
ENDCHAR
STARTCHAR 0067
ENCODING 103
SWIDTH 500 0
DWIDTH 25 0
BBX 26 32 1 -8
BITMAP
0000FC00
0007FFC0
001FFF80
007FFF80
00FE0780
01F80F80
03E00F00
03C00F00
07C00F00
07801F00
0F001E00
0F001E00
0F001E00
1F003E00
1E003C00
1E003C00
1E003C00
1F003C00
0F00F800
0FC7F800
07FFF800
07FFF800
01FCF000
0000F000
0000F000
0001E000
0003E000
4007C000
781FC000
7FFF8000
FFFE0000
3FF80000
ENDCHAR
STARTCHAR 0068
ENCODING 104
SWIDTH 500 0
DWIDTH 25 0
BBX 22 35 2 0
BITMAP
000800
00F000
00F000
00F000
00F000
01E000
01E000
01E000
01E000
03C000
03C000
03CF00
03FFE0
07FFF0
07FFF8
0780F8
07807C
0F807C
0F003C
0F003C
0F003C
1F0078
1E0078
1E0078
1E0078
1E00F8
3C00F0
3C00F0
3C00F0
3C01F0
7801E0
7801E0
7801E0
7801E0
F003C0
ENDCHAR
STARTCHAR 0069
ENCODING 105
SWIDTH 500 0
DWIDTH 25 0
BBX 14 33 7 1
BITMAP
00F0
01F8
01F8
03F8
01F8
01F0
0000
0000
0000
0000
FFE0
FFE0
FFE0
03C0
03C0
03C0
03C0
0780
0780
0780
0780
0F80
0F00
0F00
0F00
0F00
0F00
0F00
0F00
0FC4
0FFC
07FC
01FC
ENDCHAR
STARTCHAR 006A
ENCODING 106
SWIDTH 500 0
DWIDTH 25 0
BBX 24 41 1 -7
BITMAP
00003E
00003F
00007F
00007F
00003E
00003E
000000
000000
000000
000000
007FFE
007FFC
007FFC
00003C
00003C
000078
000078
000078
000078
0000F8
0000F0
0000F0
0000F0
0001F0
0001E0
0001E0
0001E0
0003E0
0003C0
0003C0
0003C0
0007C0
000780
000780
000780
000F00
401F00
783E00
7FFE00
FFF800
3FF000
ENDCHAR
STARTCHAR 006B
ENCODING 107
SWIDTH 500 0
DWIDTH 25 0
BBX 24 35 3 0
BITMAP
000800
00F000
00F000
00F000
01F000
01E000
01E000
01E000
03E000
03C000
03C000
03C000
03C01F
07807C
0780F8
0781F0
0783E0
0F0FC0
0F1F80
0F3E00
0FFC00
1FF800
1FF000
1FF800
1EF800
3E7C00
3C3E00
3C1F00
3C0F00
7C0F80
7807C0
7803C0
7803E0
7801E0
F001F0
ENDCHAR
STARTCHAR 006C
ENCODING 108
SWIDTH 500 0
DWIDTH 25 0
BBX 13 35 9 -1
BITMAP
7FE0
FFE0
FFE0
01E0
03C0
03C0
03C0
03C0
0780
0780
0780
0780
0F80
0F00
0F00
0F00
1F00
1E00
1E00
1E00
3E00
3C00
3C00
3C00
7C00
7800
7800
7800
7800
7800
7C18
7FF8
3FF8
1FF8
0180
ENDCHAR
STARTCHAR 006D
ENCODING 109
SWIDTH 500 0
DWIDTH 25 0
BBX 24 24 2 0
BITMAP
00F018
07FCFE
07FFFE
0FFFFF
0F0F0F
0F0F0F
0F0F0F
1E0E0F
1E1E0E
1E1E1E
1E1E1E
1C1E1E
3C1C1E
3C3C1C
3C3C3C
38003C
78003C
780038
780078
700078
F00078
F00070
F000F0
E000F0
ENDCHAR
STARTCHAR 006E
ENCODING 110
SWIDTH 500 0
DWIDTH 25 0
BBX 22 24 3 0
BITMAP
000F00
03FFE0
07FFF0
07FFF8
0780F8
078078
0F007C
0F003C
0F003C
0F007C
1F0078
1E0078
1E0078
1E0078
3E00F0
3C00F0
3C00F0
3C00F0
7C01E0
7801E0
7801E0
7801E0
7803E0
F003C0
ENDCHAR
STARTCHAR 006F
ENCODING 111
SWIDTH 500 0
DWIDTH 25 0
BBX 21 25 4 -1
BITMAP
001F00
00FFC0
03FFE0
07FFF0
0FC1F8
1F80F8
1E0078
3E0078
3C0078
7C0078
780078
780078
F80078
F000F8
F000F0
F000F0
F001F0
F003E0
F803E0
F80FC0
7C1F80
7FFF00
3FFE00
1FF800
010000
ENDCHAR
STARTCHAR 0070
ENCODING 112
SWIDTH 500 0
DWIDTH 25 0
BBX 24 32 1 -8
BITMAP
0007C0
00FFF8
01FFFC
01FFFE
01E03E
03C01F
03C00F
03C00F
03C00F
07C00F
07800F
07800F
07800F
0F801F
0F001E
0F003E
0F003E
1F007C
1E00F8
1E03F8
1E0FF0
3FFFC0
3FFF80
3FFE00
3C8000
7C0000
780000
780000
780000
780000
F00000
F00000
ENDCHAR
STARTCHAR 0071
ENCODING 113
SWIDTH 500 0
DWIDTH 25 0
BBX 22 32 4 -8
BITMAP
0003E0
007FFC
01FFFC
03FFFC
07E07C
0F8078
1F0078
3E0078
3C00F8
7C00F0
7800F0
7800F0
F801F0
F001E0
F001E0
F001E0
F003E0
F003C0
F803C0
F807C0
7C0FC0
7FFF80
3FFF80
1FF780
010F80
000F00
000F00
000F00
001F00
001E00
001E00
001E00
ENDCHAR
STARTCHAR 0072
ENCODING 114
SWIDTH 500 0
DWIDTH 25 0
BBX 21 24 5 0
BITMAP
0007E0
03FFF8
07FFF0
0FFFF0
0F8010
0F0000
0F0000
1F0000
1E0000
1E0000
1E0000
3E0000
3C0000
3C0000
3C0000
7C0000
780000
780000
780000
780000
F00000
F00000
F00000
F00000
ENDCHAR
STARTCHAR 0073
ENCODING 115
SWIDTH 500 0
DWIDTH 25 0
BBX 21 25 4 -1
BITMAP
001F80
00FFF8
01FFF8
03FFF0
07C030
078000
0F0000
0F0000
0F8000
07C000
07F000
03FC00
00FF00
003F80
000FC0
0007C0
0003C0
0003C0
0003C0
4007C0
700F80
7FFF80
FFFF00
3FFC00
038000
ENDCHAR
STARTCHAR 0074
ENCODING 116
SWIDTH 500 0
DWIDTH 25 0
BBX 18 31 7 -1
BITMAP
01E000
01E000
01E000
03E000
03C000
03C000
03C000
7FFFC0
FFFFC0
FFFFC0
078000
0F8000
0F0000
0F0000
0F0000
1F0000
1E0000
1E0000
1E0000
1E0000
3C0000
3C0000
3C0000
3C0000
3C0000
3C0000
3E0600
3FFE00
1FFE00
0FFE00
008000
ENDCHAR
STARTCHAR 0075
ENCODING 117
SWIDTH 500 0
DWIDTH 25 0
BBX 22 24 4 -1
BITMAP
0F007C
1E0078
1E0078
1E0078
1E0078
3C00F0
3C00F0
3C00F0
3C00F0
7C01E0
7801E0
7801E0
7801E0
F803C0
F003C0
F003C0
F003C0
F007C0
F80FC0
7C1FC0
7FFFC0
3FFBC0
1FF1C0
030000
ENDCHAR
STARTCHAR 0076
ENCODING 118
SWIDTH 500 0
DWIDTH 25 0
BBX 19 23 7 0
BITMAP
F001E0
F001E0
F003E0
F003C0
F003C0
F00780
F00780
F00F00
F00F00
F81E00
F81E00
783C00
783C00
787800
78F000
78F000
79E000
3FE000
3FC000
3F8000
3F0000
3F0000
1E0000
ENDCHAR
STARTCHAR 0077
ENCODING 119
SWIDTH 500 0
DWIDTH 25 0
BBX 25 23 4 0
BITMAP
3C000780
38000F00
78000F00
78000F00
78000E00
781C1E00
783C1E00
783C1C00
707C3C00
70FC3800
70FC7800
71FC7800
F1DC7000
F39CF000
F39CE000
F71DE000
FF1FE000
FE0FC000
FC0FC000
FC0F8000
F80F8000
F00F0000
F00F0000
ENDCHAR
STARTCHAR 0078
ENCODING 120
SWIDTH 500 0
DWIDTH 25 0
BBX 26 23 1 0
BITMAP
03E007C0
01E00F80
01F01F00
00F01E00
00F83C00
00787800
007CF000
003DF000
003FE000
001FC000
001F8000
001F0000
003F8000
007F8000
00FBC000
01F3C000
03E3E000
07C1E000
0F81F000
1F00F000
3E00F800
7C007800
F8007800
ENDCHAR
STARTCHAR 0079
ENCODING 121
SWIDTH 500 0
DWIDTH 25 0
BBX 28 31 -1 -8
BITMAP
00F001F0
00F001E0
00F001E0
00F003E0
00F003C0
00F003C0
00F80780
00780780
00780F80
00780F00
00780F00
00781E00
007C1E00
003C3C00
003C3C00
003C7800
003C7800
001EF000
001EF000
001FE000
001FC000
000FC000
000F8000
000F0000
001F0000
003E0000
007C0000
41F80000
7FF00000
FFE00000
FF800000
ENDCHAR
STARTCHAR 007A
ENCODING 122
SWIDTH 500 0
DWIDTH 25 0
BBX 22 23 3 0
BITMAP
03FFFC
03FFFC
07FFFC
0000F8
0001F0
0003E0
0007C0
000F80
001F00
003E00
007C00
00F800
01F000
03E000
07C000
0F8000
1F0000
1E0000
3C0000
7FFFC0
FFFFC0
FFFFC0
FFFF80
ENDCHAR
STARTCHAR 007B
ENCODING 123
SWIDTH 500 0
DWIDTH 25 0
BBX 23 43 5 -8
BITMAP
0001FE
0007FE
000FFE
001F00
003E00
003C00
007800
007800
007800
007800
007000
00F000
00F000
00F000
00E000
01E000
01E000
01C000
03C000
0F8000
FF0000
FE0000
FE0000
1F0000
0F0000
070000
070000
0F0000
0F0000
0F0000
0F0000
0E0000
1E0000
1E0000
1E0000
1C0000
3C0000
3C0000
3C0000
3E0000
1FFC00
1FFC00
07F800
ENDCHAR
STARTCHAR 007C
ENCODING 124
SWIDTH 500 0
DWIDTH 25 0
BBX 14 43 8 -8
BITMAP
003C
003C
0078
0078
0078
0078
00F0
00F0
00F0
00F0
00E0
01E0
01E0
01E0
01C0
03C0
03C0
03C0
03C0
0780
0780
0780
0780
0F00
0F00
0F00
0F00
1E00
1E00
1E00
1E00
3C00
3C00
3C00
3C00
3800
7800
7800
7800
7000
F000
F000
F000
ENDCHAR
STARTCHAR 007D
ENCODING 125
SWIDTH 500 0
DWIDTH 25 0
BBX 24 43 0 -8
BITMAP
003FC0
003FF0
003FF8
0001F8
000078
000038
000078
000078
000078
000078
000070
0000F0
0000F0
0000F0
0000E0
0001E0
0001E0
0001E0
0001E0
0001F0
0000FF
00007F
0001FF
0003F0
0003C0
000780
000780
000700
000F00
000F00
000F00
000E00
001E00
001E00
001E00
001C00
003C00
003C00
007800
00F800
7FF000
FFE000
FF8000
ENDCHAR
STARTCHAR 007E
ENCODING 126
SWIDTH 500 0
DWIDTH 25 0
BBX 22 8 4 9
BITMAP
078000
1FE03C
3FF038
7FFC78
787FF0
F03FE0
E01FC0
000300
ENDCHAR
STARTCHAR 00A0
ENCODING 160
SWIDTH 500 0
DWIDTH 25 0
BBX 0 0 0 0
BITMAP
ENDCHAR
STARTCHAR 00A1
ENCODING 161
SWIDTH 500 0
DWIDTH 25 0
BBX 12 31 7 -8
BITMAP
01E0
03F0
03F0
03F0
03F0
03E0
0080
0000
0000
0000
0000
0380
0780
0700
0700
0F00
0F00
0F00
1F00
1E00
1E00
1E00
3E00
3E00
3C00
3C00
7C00
7C00
7800
7800
F800
ENDCHAR
STARTCHAR 00A2
ENCODING 162
SWIDTH 500 0
DWIDTH 25 0
BBX 20 36 5 -5
BITMAP
000780
000780
000700
000700
000F00
000F00
000F80
00FFF0
01FFF0
07FFF0
0FE000
1F8000
3E0000
3E0000
7C0000
780000
F80000
F00000
F00000
F00000
F00000
F00000
F00000
F00000
F80000
7E0300
7FFF80
3FFF80
0FFF00
03E000
03C000
038000
038000
078000
078000
078000
ENDCHAR
STARTCHAR 00A3
ENCODING 163
SWIDTH 500 0
DWIDTH 25 0
BBX 23 32 5 0
BITMAP
000040
000FFC
003FFE
007FFC
00FC1C
00F800
01F000
01E000
03E000
03C000
03C000
03C000
078000
078000
078000
FFFF80
FFFF80
FFFF80
FFFF80
0F0000
1F0000
1E0000
1E0000
3E0000
3C0000
3C0000
7C0000
780000
7FFFC0
FFFFC0
FFFF80
FFFF80
ENDCHAR
STARTCHAR 00A4
ENCODING 164
SWIDTH 500 0
DWIDTH 25 0
BBX 21 21 5 5
BITMAP
200020
700070
F9F8F8
7FFFF0
3FFFE0
1F07C0
3C03C0
3C01C0
3801E0
3801E0
3801E0
3801E0
3801E0
3C01C0
3C03C0
1F0FC0
3FFFE0
7FFFF0
F9F9F8
F00070
600020
ENDCHAR
STARTCHAR 00A5
ENCODING 165
SWIDTH 500 0
DWIDTH 25 0
BBX 26 31 4 0
BITMAP
1F0003C0
0F0007C0
0F000F80
0F000F00
07801F00
07803E00
07803C00
03C07800
03C0F000
03C1F000
01E3E000
01E3C000
01E78000
00FF0000
00FE0000
3FFFF800
3FFFF800
3FFFF000
3FFFF000
00780000
00F00000
00F00000
00F00000
FFFFE000
FFFFE000
FFFFC000
01E00000
01E00000
03E00000
03C00000
03C00000
ENDCHAR
STARTCHAR 00A6
ENCODING 166
SWIDTH 500 0
DWIDTH 25 0
BBX 14 43 8 -8
BITMAP
003C
003C
0078
0078
0078
0078
00F0
00F0
00F0
00F0
00E0
01E0
01E0
01E0
01C0
03C0
03C0
0000
0000
0000
0000
0000
0000
0000
0000
0000
0F00
1E00
1E00
1E00
1E00
3C00
3C00
3C00
3C00
7800
7800
7800
7800
7000
F000
F000
F000
ENDCHAR
STARTCHAR 00A7
ENCODING 167
SWIDTH 500 0
DWIDTH 25 0
BBX 23 37 3 -5
BITMAP
0001C0
001FFE
003FFE
007FFE
00F804
01F000
01E000
01E000
01E000
01F000
01FC00
00FF00
01FFC0
03FFE0
0783F0
0F01F0
1E00F8
1E0078
1E0078
1E0070
1E00F0
1F01F0
0FC3E0
0FFFC0
03FF00
00FF00
003F00
000F80
000780
000780
000780
000F80
401F00
FFFF00
FFFE00
FFF800
1FC000
ENDCHAR
STARTCHAR 00A8
ENCODING 168
SWIDTH 500 0
DWIDTH 25 0
BBX 14 6 12 27
BITMAP
3030
F878
F87C
F87C
F078
2000
ENDCHAR
STARTCHAR 00A9
ENCODING 169
SWIDTH 500 0
DWIDTH 25 0
BBX 21 25 4 -1
BITMAP
00F800
07FE00
0FFF80
1F07C0
3C01E0
7800E0
707870
E1FC70
E3F838
E38038
E78038
C70038
C70038
C70038
E78038
E3C038
E3FC38
F1FC70
707870
7800E0
3C01E0
1F0FC0
0FFF80
03FE00
002000
ENDCHAR
STARTCHAR 00AA
ENCODING 170
SWIDTH 500 0
DWIDTH 25 0
BBX 15 17 9 15
BITMAP
0030
03FE
0FFE
1F0E
3C1E
381C
781C
701C
F03C
E038
E038
E038
E078
F078
7FF8
7FF8
3FB8
ENDCHAR
STARTCHAR 00AB
ENCODING 171
SWIDTH 500 0
DWIDTH 25 0
BBX 19 18 5 4
BITMAP
008040
01C0E0
03C1E0
0783C0
0787C0
0F0780
1E0F00
3C1E00
783C00
F87C00
783C00
783C00
3C1E00
3C1E00
1C0E00
1E0F00
0E0700
080400
ENDCHAR
STARTCHAR 00AC
ENCODING 172
SWIDTH 500 0
DWIDTH 25 0
BBX 21 15 5 2
BITMAP
FFFFF8
FFFFF0
FFFFF0
0000F0
0000F0
0000F0
0000E0
0001E0
0001E0
0001E0
0001C0
0003C0
0003C0
0003C0
000380
ENDCHAR
STARTCHAR 00AD
ENCODING 173
SWIDTH 500 0
DWIDTH 25 0
BBX 12 4 9 11
BITMAP
7FF0
FFE0
FFE0
FFE0
ENDCHAR
STARTCHAR 00AE
ENCODING 174
SWIDTH 500 0
DWIDTH 25 0
BBX 21 25 4 -1
BITMAP
00F800
07FE00
0FFF80
1F07C0
3C01E0
7800E0
71F070
E3FC70
E3FE38
E38E38
E38E38
C38E38
C3FE38
C3FC38
E3F838
E39C38
E38E38
F38E70
738770
7800E0
3C01E0
1F0FC0
0FFF80
03FE00
002000
ENDCHAR
STARTCHAR 00AF
ENCODING 175
SWIDTH 500 0
DWIDTH 25 0
BBX 13 3 12 29
BITMAP
FFF8
FFF8
FFF0
ENDCHAR
STARTCHAR 00B0
ENCODING 176
SWIDTH 500 0
DWIDTH 25 0
BBX 13 13 11 22
BITMAP
0200
1FC0
3FE0
78F0
F070
E038
E038
E038
F070
78F0
7FE0
3FC0
0F00
ENDCHAR
STARTCHAR 00B1
ENCODING 177
SWIDTH 500 0
DWIDTH 25 0
BBX 24 28 2 0
BITMAP
0003C0
0003C0
0003C0
0003C0
000780
000780
000780
000780
000700
0FFFFF
0FFFFF
0FFFFF
1FFFFE
001E00
001E00
001E00
001C00
003C00
003C00
003C00
003800
007800
000000
000000
FFFFF8
FFFFF0
FFFFF0
FFFFF0
ENDCHAR
STARTCHAR 00B2
ENCODING 178
SWIDTH 500 0
DWIDTH 25 0
BBX 14 18 9 14
BITMAP
01C0
07F8
1FFC
1C3C
081C
001C
003C
0038
00F0
01E0
07C0
0F80
1E00
3C00
7000
7FF8
FFF0
FFF0
ENDCHAR
STARTCHAR 00B3
ENCODING 179
SWIDTH 500 0
DWIDTH 25 0
BBX 14 18 9 14
BITMAP
00E0
07F8
0FFC
0C1C
001C
001C
003C
01F8
03E0
07F0
0078
0038
0038
0038
0078
7BF8
FFF0
7FC0
ENDCHAR
STARTCHAR 00B4
ENCODING 180
SWIDTH 500 0
DWIDTH 25 0
BBX 9 8 15 27
BITMAP
0300
0780
0F80
1F80
3E00
7C00
F800
6000
ENDCHAR
STARTCHAR 00B5
ENCODING 181
SWIDTH 500 0
DWIDTH 25 0
BBX 25 31 0 -8
BITMAP
00F00780
01E00780
01E00780
01E00780
01E00F00
03C00F00
03C00F00
03C00F00
03C01F00
07C01E00
07801E00
07801E00
07803E00
0F803C00
0F003C00
0F003C00
0F003C00
1F003C00
1F807C00
1FC3FE00
1FFFFF00
1DFFDF00
3CFF0F00
3C300000
3C000000
3C000000
78000000
78000000
78000000
78000000
F0000000
ENDCHAR
STARTCHAR 00B6
ENCODING 182
SWIDTH 500 0
DWIDTH 25 0
BBX 23 39 5 -8
BITMAP
003FFE
01FFFE
07FFFE
0FFE1C
1FFE1C
3FFC3C
7FFC3C
7FFC38
FFFC38
FFF838
FFF878
FFF878
FFF870
FFF870
FFF0F0
FFF0F0
7FF0E0
3FF0E0
0FE1E0
00E1E0
01E1C0
01E1C0
01C3C0
01C3C0
03C380
03C380
038780
038780
078700
078700
070F00
070F00
0F0E00
0F0E00
0E1E00
0E1E00
1E1E00
1E1C00
1C1C00
ENDCHAR
STARTCHAR 00B7
ENCODING 183
SWIDTH 500 0
DWIDTH 25 0
BBX 7 8 11 9
BITMAP
38
7E
FE
FE
FE
FE
FC
38
ENDCHAR
STARTCHAR 00B8
ENCODING 184
SWIDTH 500 0
DWIDTH 25 0
BBX 9 9 6 -8
BITMAP
0380
0700
0E00
0F00
0F80
0780
4780
7F00
FE00
ENDCHAR
STARTCHAR 00B9
ENCODING 185
SWIDTH 500 0
DWIDTH 25 0
BBX 12 17 9 14
BITMAP
0070
01F0
07E0
1FE0
1EE0
11E0
01C0
01C0
01C0
03C0
0380
0380
0380
0780
7FF0
FFF0
FFF0
ENDCHAR
STARTCHAR 00BA
ENCODING 186
SWIDTH 500 0
DWIDTH 25 0
BBX 16 17 9 15
BITMAP
0060
03FC
0FFE
1F1F
3C0F
3807
7807
7007
700F
F00F
F00E
F01E
F01C
F03C
7DF8
7FF0
1FC0
ENDCHAR
STARTCHAR 00BB
ENCODING 187
SWIDTH 500 0
DWIDTH 25 0
BBX 19 17 5 4
BITMAP
0C0600
0E0F00
0E0700
0F0780
070380
0783C0
0783C0
03C1E0
07C3E0
0783C0
0F0780
1E0F00
3C1E00
7C3C00
783C00
F07800
603000
ENDCHAR
STARTCHAR 00BC
ENCODING 188
SWIDTH 500 0
DWIDTH 25 0
BBX 27 31 2 0
BITMAP
003801E0
00F803C0
03F00380
07F00780
06700F00
00701E00
00E03C00
00E03C00
00E07800
00E0F000
01C1E000
01C1C000
0003C000
00078000
000F0000
001E0000
001E0000
003C0000
00780E00
00F01E00
00E07C00
01E0FC00
03C1DC00
07839C00
0F073800
0F0E3800
1E1FFE00
3C1FFC00
781FFC00
70007000
F0007000
ENDCHAR
STARTCHAR 00BD
ENCODING 189
SWIDTH 500 0
DWIDTH 25 0
BBX 28 31 1 0
BITMAP
001C00F0
007C01E0
01F803C0
03F80780
03380700
00380F00
00701E00
00703C00
00707800
00707800
00E0F000
00E1E000
0003C000
00038000
00078000
000F0000
001E0000
003C0000
003C3C00
0078FE00
00F1FE00
01E08700
01C00600
03C00E00
07801C00
0F007800
1E01F000
1C03C000
3C07FE00
7807FC00
F007FC00
ENDCHAR
STARTCHAR 00BE
ENCODING 190
SWIDTH 500 0
DWIDTH 25 0
BBX 27 32 2 0
BITMAP
00E00000
07F801E0
07F803C0
04380380
00380780
03F00F00
03E01E00
03F03C00
00703C00
00707800
0070F000
1FE1E000
3FC1C000
0E03C000
00078000
000F0000
001E0000
001E0000
003C0000
00780E00
00F01E00
00E07C00
01E0FC00
03C1DC00
07839C00
0F073800
0F0E3800
1E1FFE00
3C1FFC00
781FFC00
70007000
F0007000
ENDCHAR
STARTCHAR 00BF
ENCODING 191
SWIDTH 500 0
DWIDTH 25 0
BBX 18 32 4 -9
BITMAP
000F80
000F80
001FC0
001F80
001F80
000F80
000000
000000
000000
000000
000000
001C00
003C00
003C00
007800
00F000
03E000
07C000
0F8000
1F0000
3C0000
780000
F80000
F00000
F00000
F00000
F00000
F80C00
7FFC00
7FFC00
1FF800
010000
ENDCHAR
STARTCHAR 00C0
ENCODING 192
SWIDTH 500 0
DWIDTH 25 0
BBX 23 41 0 1
BITMAP
000060
0001E0
0001F0
0000F8
00007C
00003E
00001E
00000C
000000
000000
0000F8
0001F8
0001FC
0003FC
0003BC
0007BC
000F3C
000F3C
001E3C
001C3C
003C1C
00381C
00781E
00F01E
00F01E
01E01E
01E01E
03C01E
03C01E
07FFFE
07FFFE
0FFFFE
0FFFFE
1E001E
1E001E
3C001E
3C001E
78001E
78001E
F0001E
F0001E
ENDCHAR
STARTCHAR 00C1
ENCODING 193
SWIDTH 500 0
DWIDTH 25 0
BBX 26 41 0 1
BITMAP
00000180
00000380
000007C0
00000F80
00001F00
00003E00
00007800
00003000
00000000
00000000
0000F800
0001F800
0001FC00
0003FC00
0003BC00
0007BC00
000F3C00
000F3C00
001E3C00
001C3C00
003C1C00
00381C00
00781E00
00F01E00
00F01E00
01E01E00
01E01E00
03C01E00
03C01E00
07FFFE00
07FFFE00
0FFFFE00
0FFFFE00
1E001E00
1E001E00
3C001E00
3C001E00
78001E00
78001E00
F0001E00
F0001E00
ENDCHAR
STARTCHAR 00C2
ENCODING 194
SWIDTH 500 0
DWIDTH 25 0
BBX 26 41 0 0
BITMAP
00000C00
00001C00
00003E00
00007F00
0001F780
0003E780
000383C0
00010180
00000000
00000000
0000F800
0001F800
0001FC00
0003FC00
0003BC00
0007BC00
000F3C00
000F3C00
001E3C00
001C3C00
003C1C00
00381C00
00781E00
00F01E00
00F01E00
01E01E00
01E01E00
03C01E00
03C01E00
07FFFE00
07FFFE00
0FFFFE00
0FFFFE00
1E001E00
1E001E00
3C001E00
3C001E00
78001E00
78001E00
F0001E00
F0001E00
ENDCHAR
STARTCHAR 00C3
ENCODING 195
SWIDTH 500 0
DWIDTH 25 0
BBX 28 40 0 0
BITMAP
00000040
0003F8F0
0007FFE0
0007FFC0
000E0F80
00020000
00000000
00000000
00000000
0000F800
0001F800
0001FC00
0003FC00
0003BC00
0007BC00
000F3C00
000F3C00
001E3C00
001C3C00
003C1C00
00381C00
00781E00
00F01E00
00F01E00
01E01E00
01E01E00
03C01E00
03C01E00
07FFFE00
07FFFE00
0FFFFE00
0FFFFE00
1E001E00
1E001E00
3C001E00
3C001E00
78001E00
78001E00
F0001E00
F0001E00
ENDCHAR
STARTCHAR 00C4
ENCODING 196
SWIDTH 500 0
DWIDTH 25 0
BBX 27 40 0 0
BITMAP
0000C0C0
0003E1E0
0003E3E0
0003E3E0
0003C1E0
00018080
00000000
00000000
00000000
0000F800
0001F800
0001FC00
0003FC00
0003BC00
0007BC00
000F3C00
000F3C00
001E3C00
001C3C00
003C1C00
00381C00
00781E00
00F01E00
00F01E00
01E01E00
01E01E00
03C01E00
03C01E00
07FFFE00
07FFFE00
0FFFFE00
0FFFFE00
1E001E00
1E001E00
3C001E00
3C001E00
78001E00
78001E00
F0001E00
F0001E00
ENDCHAR
STARTCHAR 00C5
ENCODING 197
SWIDTH 500 0
DWIDTH 25 0
BBX 23 37 0 0
BITMAP
0000FC
0001FE
000186
000386
000386
000386
0001FE
0001FC
0001FC
0003FC
0003BC
0007BC
000F3C
000F3C
001E3C
001C3C
003C1C
00381C
00781C
00F01E
00F01E
01E01E
01E01E
03C01E
03C01E
07FFFE
07FFFE
0FFFFE
0FFFFE
1E001E
1E001E
3C001E
3C001E
78001E
78001E
F0001E
F0001E
ENDCHAR
STARTCHAR 00C6
ENCODING 198
SWIDTH 500 0
DWIDTH 25 0
BBX 29 31 1 0
BITMAP
0000FFF8
0001FFF8
0001FFF0
0003FFF0
0003BC00
0007F800
000F7800
000E7800
001E7800
001CF000
003CF000
0038F000
0078F000
00F1FF80
00F1FF00
01E1FF00
01C1FF00
03C1C000
0383C000
07FFC000
07FFC000
0FFFC000
0FFF8000
1E078000
1C078000
3C078000
3C0F0000
780FFE00
780FFE00
F00FFE00
F01FFC00
ENDCHAR
STARTCHAR 00C7
ENCODING 199
SWIDTH 500 0
DWIDTH 25 0
BBX 25 40 4 -8
BITMAP
0000F000
000FFE00
003FFF80
00FFFF00
01FC0F00
03F00200
07C00000
07800000
0F800000
1F000000
1E000000
3E000000
3C000000
3C000000
7C000000
78000000
78000000
78000000
78000000
78000000
F8000000
F8000000
F8000000
78000000
78000000
78000000
7C000000
3E004000
3F01C000
1FFFC000
0FFFC000
07FF8000
00F00000
01C00000
01E00000
01F00000
00F00000
08F00000
0FE00000
1FC00000
ENDCHAR
STARTCHAR 00C8
ENCODING 200
SWIDTH 500 0
DWIDTH 25 0
BBX 24 41 4 1
BITMAP
000300
000780
0007C0
0003C0
0001E0
0000F0
000078
000030
000000
000000
01FFFF
01FFFF
03FFFF
03FFFF
03C000
03C000
07C000
078000
078000
078000
078000
0F0000
0F0000
0FFFE0
0FFFE0
1FFFE0
1FFFE0
1E0000
1E0000
3C0000
3C0000
3C0000
3C0000
7C0000
780000
780000
780000
FFFFE0
FFFFE0
FFFFC0
FFFFC0
ENDCHAR
STARTCHAR 00C9
ENCODING 201
SWIDTH 500 0
DWIDTH 25 0
BBX 24 41 4 1
BITMAP
000018
000038
00007C
0000F8
0001F0
0003E0
000780
000300
000000
000000
01FFFF
01FFFF
03FFFF
03FFFF
03C000
03C000
07C000
078000
078000
078000
078000
0F0000
0F0000
0FFFE0
0FFFE0
1FFFE0
1FFFE0
1E0000
1E0000
3C0000
3C0000
3C0000
3C0000
7C0000
780000
780000
780000
FFFFE0
FFFFE0
FFFFC0
FFFFC0
ENDCHAR
STARTCHAR 00CA
ENCODING 202
SWIDTH 500 0
DWIDTH 25 0
BBX 24 41 4 0
BITMAP
000060
0000E0
0001F0
0003F8
000FBC
001F3C
001C1E
00080C
000000
000000
01FFFF
01FFFF
03FFFF
03FFFF
03C000
03C000
07C000
078000
078000
078000
078000
0F0000
0F0000
0FFFE0
0FFFE0
1FFFE0
1FFFE0
1E0000
1E0000
3C0000
3C0000
3C0000
3C0000
7C0000
780000
780000
780000
FFFFE0
FFFFE0
FFFFC0
FFFFC0
ENDCHAR
STARTCHAR 00CB
ENCODING 203
SWIDTH 500 0
DWIDTH 25 0
BBX 24 40 4 0
BITMAP
000C0C
003E1E
003E3E
003E3E
003C1E
000008
000000
000000
000000
01FFFF
01FFFF
03FFFF
03FFFF
03C000
03C000
07C000
078000
078000
078000
078000
0F0000
0F0000
0FFFE0
0FFFE0
1FFFE0
1FFFE0
1E0000
1E0000
3C0000
3C0000
3C0000
3C0000
7C0000
780000
780000
780000
FFFFE0
FFFFE0
FFFFC0
FFFFC0
ENDCHAR
STARTCHAR 00CC
ENCODING 204
SWIDTH 500 0
DWIDTH 25 0
BBX 23 41 4 1
BITMAP
000600
001E00
001F00
000F80
0007C0
0003E0
0001E0
0000E0
000000
000000
01FFFE
01FFFE
03FFFC
03FFFC
000F00
000F00
001F00
001E00
001E00
001E00
003E00
003C00
003C00
003C00
007C00
007800
007800
007800
00F800
00F000
00F000
00F000
00F000
01E000
01E000
01E000
01E000
FFFF00
FFFF00
FFFF00
FFFF00
ENDCHAR
STARTCHAR 00CD
ENCODING 205
SWIDTH 500 0
DWIDTH 25 0
BBX 23 41 4 1
BITMAP
000030
000078
0000F8
0001F8
0003E0
0007C0
000F80
000600
000000
000000
01FFFE
01FFFE
03FFFC
03FFFC
000F00
000F00
001F00
001E00
001E00
001E00
003E00
003C00
003C00
003C00
007C00
007800
007800
007800
00F800
00F000
00F000
00F000
00F000
01E000
01E000
01E000
01E000
FFFF00
FFFF00
FFFF00
FFFF00
ENDCHAR
STARTCHAR 00CE
ENCODING 206
SWIDTH 500 0
DWIDTH 25 0
BBX 23 41 4 0
BITMAP
0000C0
0001C0
0003E0
0007F0
000F78
003E38
00383C
001018
000000
000000
01FFFE
01FFFE
03FFFC
03FFFC
000F00
000F00
001F00
001E00
001E00
001E00
003E00
003C00
003C00
003C00
007C00
007800
007800
007800
00F800
00F000
00F000
00F000
00F000
01E000
01E000
01E000
01E000
FFFF00
FFFF00
FFFF00
FFFF00
ENDCHAR
STARTCHAR 00CF
ENCODING 207
SWIDTH 500 0
DWIDTH 25 0
BBX 23 40 4 0
BITMAP
000C0C
003E1E
003E3E
003E3E
003C1E
000008
000000
000000
000000
01FFFE
01FFFE
03FFFC
03FFFC
000F00
000F00
001F00
001E00
001E00
001E00
003E00
003C00
003C00
003C00
007C00
007800
007800
007800
00F800
00F000
00F000
00F000
00F000
01E000
01E000
01E000
01E000
FFFF00
FFFF00
FFFF00
FFFF00
ENDCHAR
STARTCHAR 00D0
ENCODING 208
SWIDTH 500 0
DWIDTH 25 0
BBX 23 31 3 0
BITMAP
00FFC0
01FFE0
01FFF0
01E1F8
01E07C
03E03C
03C03E
03C03E
03C01E
03C01E
07801E
07801E
07801E
7FF81E
7FF01E
7FF01E
FFF03E
0F003C
1E003C
1E007C
1E0078
1E0078
3E00F8
3C01F0
3C03E0
3C07E0
7C0FC0
7C7F80
7FFE00
7FFC00
7FF000
ENDCHAR
STARTCHAR 00D1
ENCODING 209
SWIDTH 500 0
DWIDTH 25 0
BBX 27 40 2 0
BITMAP
00000100
0007E1C0
000FFF80
001FFF80
00183E00
00080000
00000000
00000000
00000000
01F001E0
01F001E0
01F001C0
01F803C0
03F803C0
03F803C0
03F80380
03BC0780
07BC0780
079C0780
079E0700
071E0F00
0F0E0F00
0F0E0F00
0F0F0E00
0E0F0E00
1E071E00
1E071E00
1E071E00
1C079C00
1C07BC00
3C03BC00
3C03BC00
3C03B800
3803F800
7803F800
7801F800
7801F000
7001F000
F001F000
F001F000
ENDCHAR
STARTCHAR 00D2
ENCODING 210
SWIDTH 500 0
DWIDTH 25 0
BBX 23 42 4 0
BITMAP
000600
000F00
000F00
000780
0003C0
0001E0
0001F0
0000E0
000040
000380
003FE0
00FFF8
01FFF8
03F07C
07C03C
07803E
0F801E
0F001E
1E001E
1E001E
3C001E
3C001E
3C001E
78001E
78003E
78003C
78003C
F0003C
F0007C
F00078
F00078
F000F0
F000F0
F001F0
F001E0
F803C0
7807C0
7C1F80
3FFF00
3FFE00
0FF800
03C000
ENDCHAR
STARTCHAR 00D3
ENCODING 211
SWIDTH 500 0
DWIDTH 25 0
BBX 23 42 4 0
BITMAP
000018
000038
00007C
0000F8
0001F0
0003E0
000780
000300
000000
000380
003FE0
00FFF8
01FFF8
03F07C
07C03C
07803E
0F801E
0F001E
1E001E
1E001E
3C001E
3C001E
3C001E
78001E
78003E
78003C
78003C
F0003C
F0007C
F00078
F00078
F000F0
F000F0
F001F0
F001E0
F803C0
7807C0
7C1F80
3FFF00
3FFE00
0FF800
03C000
ENDCHAR
STARTCHAR 00D4
ENCODING 212
SWIDTH 500 0
DWIDTH 25 0
BBX 23 42 4 -1
BITMAP
0000C0
0001E0
0003E0
0007F0
000F78
001E3C
001C1C
001008
000000
000380
003FE0
00FFF8
01FFF8
03F07C
07C03C
07803E
0F801E
0F001E
1E001E
1E001E
3C001E
3C001E
3C001E
78001E
78003E
78003C
78003C
F0003C
F0007C
F00078
F00078
F000F0
F000F0
F001F0
F001E0
F803C0
7807C0
7C1F80
3FFF00
3FFE00
0FF800
03C000
ENDCHAR
STARTCHAR 00D5
ENCODING 213
SWIDTH 500 0
DWIDTH 25 0
BBX 24 40 4 0
BITMAP
001F87
003FFE
007FFE
0070FC
002000
000000
000000
000380
003FE0
00FFF8
01FFF8
03F07C
07C03C
07803E
0F801E
0F001E
1E001E
1E001E
3C001E
3C001E
3C001E
78001E
78003E
78003C
78003C
F0003C
F0007C
F00078
F00078
F000F0
F000F0
F001F0
F001E0
F803C0
7807C0
7C1F80
3FFF00
3FFE00
0FF800
03C000
ENDCHAR
STARTCHAR 00D6
ENCODING 214
SWIDTH 500 0
DWIDTH 25 0
BBX 24 41 4 -1
BITMAP
000C0C
001E1E
003E1F
003E1F
003E1E
000800
000000
000000
000380
003FE0
00FFF8
01FFF8
03F07C
07C03C
07803E
0F801E
0F001E
1E001E
1E001E
3C001E
3C001E
3C001E
78001E
78003E
78003C
78003C
F0003C
F0007C
F00078
F00078
F000F0
F000F0
F001F0
F001E0
F803C0
7807C0
7C1F80
3FFF00
3FFE00
0FF800
03C000
ENDCHAR
STARTCHAR 00D7
ENCODING 215
SWIDTH 500 0
DWIDTH 25 0
BBX 20 18 5 4
BITMAP
040060
0E00F0
1E01F0
0F03E0
0F87C0
07DF80
03FE00
01FC00
01F800
03F800
07F800
0FBC00
1F3E00
3E1F00
FC0F00
F00780
E00700
400200
ENDCHAR
STARTCHAR 00D8
ENCODING 216
SWIDTH 500 0
DWIDTH 25 0
BBX 26 35 2 -2
BITMAP
00000100
0001C180
000FFBC0
003FFF80
007FFF00
00F83F00
01F01F00
03E03F00
03C03F00
07807F80
0780F780
0F01E780
0F01E780
1E03C700
1E078F00
1E070F00
3C0F0F00
3C1E0F00
3C3C0F00
3C3C1E00
3C781E00
3CF01E00
3CE03C00
3DE03C00
3FC07C00
3F807800
3F00F800
3F01F000
3E03E000
3F07C000
3FFF8000
7FFF0000
F7FE0000
60600000
20000000
ENDCHAR
STARTCHAR 00D9
ENCODING 217
SWIDTH 500 0
DWIDTH 25 0
BBX 25 42 4 0
BITMAP
00180000
003C0000
003E0000
001F0000
000F8000
00078000
0003C000
00018000
00000000
00000000
07800780
07800F00
07800F00
0F000F00
0F000F00
0F001F00
0F001E00
1F001E00
1E001E00
1E003E00
1E003C00
3E003C00
3C003C00
3C007C00
3C007800
7C007800
78007800
7800F800
7800F000
7800F000
F000F000
F001F000
F001E000
F001E000
F003E000
F803C000
7807C000
7C0F8000
7FFF0000
3FFE0000
0FFC0000
03C00000
ENDCHAR
STARTCHAR 00DA
ENCODING 218
SWIDTH 500 0
DWIDTH 25 0
BBX 25 42 4 0
BITMAP
00001800
00003800
00007C00
0000F800
0001F000
0003E000
00078000
00030000
00000000
00000000
07800780
07800F00
07800F00
0F000F00
0F000F00
0F001F00
0F001E00
1F001E00
1E001E00
1E003E00
1E003C00
3E003C00
3C003C00
3C007C00
3C007800
7C007800
78007800
7800F800
7800F000
7800F000
F000F000
F001F000
F001E000
F001E000
F003E000
F803C000
7807C000
7C0F8000
7FFF0000
3FFE0000
0FFC0000
03C00000
ENDCHAR
STARTCHAR 00DB
ENCODING 219
SWIDTH 500 0
DWIDTH 25 0
BBX 25 42 4 -1
BITMAP
0000C000
0001C000
0003E000
0007F000
000F7800
003E3800
00383C00
00101800
00000000
00000000
07800780
07800F00
07800F00
0F000F00
0F000F00
0F001F00
0F001E00
1F001E00
1E001E00
1E003E00
1E003C00
3E003C00
3C003C00
3C007C00
3C007800
7C007800
78007800
7800F800
7800F000
7800F000
F000F000
F001F000
F001E000
F001E000
F003E000
F803C000
7807C000
7C0F8000
7FFF0000
3FFE0000
0FFC0000
03C00000
ENDCHAR
STARTCHAR 00DC
ENCODING 220
SWIDTH 500 0
DWIDTH 25 0
BBX 25 41 4 -1
BITMAP
000C0C00
003E1E00
003E3E00
003E3E00
003C1E00
00000800
00000000
00000000
00000000
07800780
07800F00
07800F00
0F000F00
0F000F00
0F001F00
0F001E00
1F001E00
1E001E00
1E003E00
1E003C00
3E003C00
3C003C00
3C007C00
3C007800
7C007800
78007800
7800F800
7800F000
7800F000
F000F000
F001F000
F001E000
F001E000
F003E000
F803C000
7807C000
7C0F8000
7FFF0000
3FFE0000
0FFC0000
03C00000
ENDCHAR
STARTCHAR 00DD
ENCODING 221
SWIDTH 500 0
DWIDTH 25 0
BBX 24 41 7 1
BITMAP
0000C0
0001E0
0003F0
0007E0
000F80
001F00
001E00
001C00
000000
000000
F0001F
78001E
78003E
78007C
780078
7800F8
3C01F0
3C01E0
3C03C0
3C07C0
1E0780
1E0F00
1E1E00
1E3E00
0F3C00
0F7800
0FF000
07E000
07C000
03C000
078000
078000
078000
078000
0F0000
0F0000
0F0000
0F0000
1F0000
1E0000
1E0000
ENDCHAR
STARTCHAR 00DE
ENCODING 222
SWIDTH 500 0
DWIDTH 25 0
BBX 23 31 3 0
BITMAP
01E000
01E000
03E000
03C000
03C000
03FF80
03FFF0
07FFF8
07FFFC
0780FC
07807E
0F003E
0F003E
0F003E
0F003E
1E003E
1E003C
1E007C
1E00FC
3E01F8
3C07F0
3FFFE0
3FFF80
7FFE00
7FC000
780000
780000
F80000
F00000
F00000
F00000
ENDCHAR
STARTCHAR 00DF
ENCODING 223
SWIDTH 500 0
DWIDTH 25 0
BBX 31 43 -5 -8
BITMAP
00000380
00001FF0
00003FF8
00007FFC
0000FC3C
0000F03E
0001F01E
0001E01E
0001E03E
0003E03C
0003C07C
0003C0F8
0003C1F0
0007C3E0
000787C0
00078F00
00079F00
00079E00
000F1E00
000F1F00
000F1F80
000F0FC0
001F07E0
001E03F0
001E00F8
001E007C
001E003C
003E003C
003C003C
003C007C
003C0078
003CC1F8
0078FFF0
0079FFE0
0079FFC0
00783800
00F00000
00F00000
01F00000
43E00000
7FE00000
7FC00000
FF000000
ENDCHAR
STARTCHAR 00E0
ENCODING 224
SWIDTH 500 0
DWIDTH 25 0
BBX 22 35 4 0
BITMAP
000C00
001E00
001E00
000F00
000780
0003C0
0003E0
0001C0
000080
000000
0007C0
007FFC
01FFF8
03FFF8
0FE078
1F8078
1F00F0
3E00F0
7C00F0
7800F0
F801E0
F001E0
F001E0
F001E0
F003C0
F003C0
F003C0
F003C0
F003C0
F007C0
F81FC0
7FFFC0
3FFBC0
1FF3C0
030000
ENDCHAR
STARTCHAR 00E1
ENCODING 225
SWIDTH 500 0
DWIDTH 25 0
BBX 22 35 4 0
BITMAP
000030
000078
0000F8
0001F8
0003E0
0007C0
000F80
000600
000000
000000
0007C0
007FFC
01FFF8
03FFF8
0FE078
1F8078
1F00F0
3E00F0
7C00F0
7800F0
F801E0
F001E0
F001E0
F001E0
F003C0
F003C0
F003C0
F003C0
F003C0
F007C0
F81FC0
7FFFC0
3FFBC0
1FF3C0
030000
ENDCHAR
STARTCHAR 00E2
ENCODING 226
SWIDTH 500 0
DWIDTH 25 0
BBX 22 35 4 -1
BITMAP
000180
0003C0
0007C0
000FE0
001EF0
003C78
003838
002010
000000
000000
0007C0
007FFC
01FFF8
03FFF8
0FE078
1F8078
1F00F0
3E00F0
7C00F0
7800F0
F801E0
F001E0
F001E0
F001E0
F003C0
F003C0
F003C0
F003C0
F003C0
F007C0
F81FC0
7FFFC0
3FFBC0
1FF3C0
030000
ENDCHAR
STARTCHAR 00E3
ENCODING 227
SWIDTH 500 0
DWIDTH 25 0
BBX 23 34 4 -1
BITMAP
000404
003F0E
007FFE
00FFFC
00E1F8
000000
000000
000000
000000
0007C0
007FFC
01FFF8
03FFF8
0FE078
1F8078
1F00F0
3E00F0
7C00F0
7800F0
F801E0
F001E0
F001E0
F001E0
F003C0
F003C0
F003C0
F003C0
F003C0
F007C0
F81FC0
7FFFC0
3FFBC0
1FF3C0
030000
ENDCHAR
STARTCHAR 00E4
ENCODING 228
SWIDTH 500 0
DWIDTH 25 0
BBX 23 34 4 -1
BITMAP
00180C
003C3E
003E3E
007E3E
003C3C
000008
000000
000000
000000
0007C0
007FFC
01FFF8
03FFF8
0FE078
1F8078
1F00F0
3E00F0
7C00F0
7800F0
F801E0
F001E0
F001E0
F001E0
F003C0
F003C0
F003C0
F003C0
F003C0
F007C0
F81FC0
7FFFC0
3FFBC0
1FF3C0
030000
ENDCHAR
STARTCHAR 00E5
ENCODING 229
SWIDTH 500 0
DWIDTH 25 0
BBX 22 36 4 -1
BITMAP
0003C0
0007E0
000E70
001C30
001830
001C30
001C30
000FF0
0007E0
000000
000000
0007C0
007FFC
01FFF8
03FFF8
0FE078
1F8078
1F00F0
3E00F0
7C00F0
7800F0
F801E0
F001E0
F001E0
F001E0
F003C0
F003C0
F003C0
F003C0
F003C0
F007C0
F81FC0
7FFFC0
3FFBC0
1FF3C0
030000
ENDCHAR
STARTCHAR 00E6
ENCODING 230
SWIDTH 500 0
DWIDTH 25 0
BBX 25 25 2 -1
BITMAP
01E01C00
07F87F00
0FFCFF80
0FFDFF80
083DC780
001F8780
001F0780
001F0780
001F0780
001E0F00
01FE1F00
07FFFE00
0FFFFC00
1F9FF000
3C1FC000
783C0000
783C0000
F07C0000
F07E0000
F0FE0000
F9FF0800
7FCFF800
7F8FF800
3F07F800
08008000
ENDCHAR
STARTCHAR 00E7
ENCODING 231
SWIDTH 500 0
DWIDTH 25 0
BBX 21 32 4 -8
BITMAP
000FE0
00FFF8
03FFF8
07FFF8
0FE010
1F8000
3E0000
3C0000
7C0000
780000
F80000
F00000
F00000
F00000
F00000
F00000
F00000
F00000
F00000
F80000
7E01C0
3FFFC0
1FFFC0
0FFF80
01F000
038000
03C000
03E000
01E000
11E000
1FC000
3F8000
ENDCHAR
STARTCHAR 00E8
ENCODING 232
SWIDTH 500 0
DWIDTH 25 0
BBX 21 35 4 0
BITMAP
000C00
001E00
001F00
000F00
000780
0003C0
0001E0
0000C0
000000
000000
001E00
00FFE0
03FFF0
07FFF8
0FC0F8
1F0078
3E0078
3C0078
7C00F8
7800F0
F803F0
F03FE0
FFFFC0
FFFE00
FFE000
F00000
F00000
F00000
F00000
F80000
7E03C0
7FFFC0
3FFFC0
0FFF80
00E000
ENDCHAR
STARTCHAR 00E9
ENCODING 233
SWIDTH 500 0
DWIDTH 25 0
BBX 21 35 4 0
BITMAP
000060
0000F0
0001F0
0003F0
0007C0
000F80
001F00
000C00
000000
000000
001E00
00FFE0
03FFF0
07FFF8
0FC0F8
1F0078
3E0078
3C0078
7C00F8
7800F0
F803F0
F03FE0
FFFFC0
FFFE00
FFE000
F00000
F00000
F00000
F00000
F80000
7E03C0
7FFFC0
3FFFC0
0FFF80
00E000
ENDCHAR
STARTCHAR 00EA
ENCODING 234
SWIDTH 500 0
DWIDTH 25 0
BBX 21 35 4 -1
BITMAP
000180
000380
0007C0
001FE0
003FE0
0078F0
007070
002020
000000
000000
001E00
00FFE0
03FFF0
07FFF8
0FC0F8
1F0078
3E0078
3C0078
7C00F8
7800F0
F803F0
F03FE0
FFFFC0
FFFE00
FFE000
F00000
F00000
F00000
F00000
F80000
7E03C0
7FFFC0
3FFFC0
0FFF80
00E000
ENDCHAR
STARTCHAR 00EB
ENCODING 235
SWIDTH 500 0
DWIDTH 25 0
BBX 23 34 4 -1
BITMAP
001818
003C3C
007C3E
007C3E
007C3C
001000
000000
000000
000000
001E00
00FFE0
03FFF0
07FFF8
0FC0F8
1F0078
3E0078
3C0078
7C00F8
7800F0
F803F0
F03FE0
FFFFC0
FFFE00
FFE000
F00000
F00000
F00000
F00000
F80000
7E03C0
7FFFC0
3FFFC0
0FFF80
00E000
ENDCHAR
STARTCHAR 00EC
ENCODING 236
SWIDTH 500 0
DWIDTH 25 0
BBX 14 34 7 1
BITMAP
0300
0780
07C0
03E0
01E0
00F0
0078
0030
0000
0000
0000
FFE0
FFE0
FFE0
03C0
03C0
03C0
03C0
0780
0780
0780
0780
0F80
0F00
0F00
0F00
0F00
0F00
0F00
0F00
0FC4
0FFC
07FC
01FC
ENDCHAR
STARTCHAR 00ED
ENCODING 237
SWIDTH 500 0
DWIDTH 25 0
BBX 16 34 7 1
BITMAP
000C
001E
003F
007E
00F8
01F0
01E0
00C0
0000
0000
0000
FFE0
FFE0
FFE0
03C0
03C0
03C0
03C0
0780
0780
0780
0780
0F80
0F00
0F00
0F00
0F00
0F00
0F00
0F00
0FC4
0FFC
07FC
01FC
ENDCHAR
STARTCHAR 00EE
ENCODING 238
SWIDTH 500 0
DWIDTH 25 0
BBX 15 34 7 0
BITMAP
0020
0070
01F8
03F8
07FC
0F1E
0E0E
0004
0000
0000
0000
FFE0
FFE0
FFE0
03C0
03C0
03C0
03C0
0780
0780
0780
0780
0F80
0F00
0F00
0F00
0F00
0F00
0F00
0F00
0FC4
0FFC
07FC
01FC
ENDCHAR
STARTCHAR 00EF
ENCODING 239
SWIDTH 500 0
DWIDTH 25 0
BBX 17 33 7 0
BITMAP
060300
0F0F80
1F0F80
1F0F80
0F0F00
040000
000000
000000
000000
000000
FFE000
FFE000
FFE000
03C000
03C000
03C000
03C000
078000
078000
078000
078000
0F8000
0F0000
0F0000
0F0000
0F0000
0F0000
0F0000
0F0000
0FC400
0FFC00
07FC00
01FC00
ENDCHAR
STARTCHAR 00F0
ENCODING 240
SWIDTH 500 0
DWIDTH 25 0
BBX 24 35 4 0
BITMAP
000E00
001F00
000F83
0007DF
0003FF
0007FC
003FE0
007FF0
0038F0
0000F0
0000F8
000078
007E78
03FFF8
07FFF8
0FFFF8
1F01F8
3E0078
3C0078
7C00F8
7800F0
7800F0
F000F0
F000F0
F001E0
F001E0
F003E0
F003C0
F807C0
780F80
7C1F00
3FFF00
3FFC00
0FF800
018000
ENDCHAR
STARTCHAR 00F1
ENCODING 241
SWIDTH 500 0
DWIDTH 25 0
BBX 23 33 3 0
BITMAP
000008
003F0E
007FFC
00FFFC
00E1F0
004000
000000
000000
000000
000F00
03FFE0
07FFF0
07FFF8
0780F8
078078
0F007C
0F003C
0F003C
0F007C
1F0078
1E0078
1E0078
1E0078
3E00F0
3C00F0
3C00F0
3C00F0
7C01E0
7801E0
7801E0
7801E0
7803E0
F003C0
ENDCHAR
STARTCHAR 00F2
ENCODING 242
SWIDTH 500 0
DWIDTH 25 0
BBX 21 36 4 -1
BITMAP
000800
001800
003C00
003E00
001F00
000F80
000780
0003C0
000180
000000
000000
001F00
00FFC0
03FFE0
07FFF0
0FC1F8
1F80F8
1E0078
3E0078
3C0078
7C0078
780078
780078
F80078
F000F8
F000F0
F000F0
F001F0
F003E0
F803E0
F80FC0
7C1F80
7FFF00
3FFE00
1FF800
010000
ENDCHAR
STARTCHAR 00F3
ENCODING 243
SWIDTH 500 0
DWIDTH 25 0
BBX 21 35 4 0
BITMAP
000060
0000F0
0001F0
0003F0
0007C0
000F80
001F00
000C00
000000
000000
001F00
00FFC0
03FFE0
07FFF0
0FC1F8
1F80F8
1E0078
3E0078
3C0078
7C0078
780078
780078
F80078
F000F8
F000F0
F000F0
F001F0
F003E0
F803E0
F80FC0
7C1F80
7FFF00
3FFE00
1FF800
010000
ENDCHAR
STARTCHAR 00F4
ENCODING 244
SWIDTH 500 0
DWIDTH 25 0
BBX 21 35 4 -1
BITMAP
000100
000380
0007C0
001FE0
003FE0
0078F0
007070
002020
000000
000000
001F00
00FFC0
03FFE0
07FFF0
0FC1F8
1F80F8
1E0078
3E0078
3C0078
7C0078
780078
780078
F80078
F000F8
F000F0
F000F0
F001F0
F003E0
F803E0
F80FC0
7C1F80
7FFF00
3FFE00
1FF800
010000
ENDCHAR
STARTCHAR 00F5
ENCODING 245
SWIDTH 500 0
DWIDTH 25 0
BBX 22 34 4 -1
BITMAP
000808
007E1C
00FFFC
01FFF8
01C3F0
000000
000000
000000
000000
001F00
00FFC0
03FFE0
07FFF0
0FC1F8
1F80F8
1E0078
3E0078
3C0078
7C0078
780078
780078
F80078
F000F8
F000F0
F000F0
F001F0
F003E0
F803E0
F80FC0
7C1F80
7FFF00
3FFE00
1FF800
010000
ENDCHAR
STARTCHAR 00F6
ENCODING 246
SWIDTH 500 0
DWIDTH 25 0
BBX 22 34 4 -1
BITMAP
003018
00787C
00FC7C
00F87C
007878
002000
000000
000000
000000
001F00
00FFC0
03FFE0
07FFF0
0FC1F8
1F80F8
1E0078
3E0078
3C0078
7C0078
780078
780078
F80078
F000F8
F000F0
F000F0
F001F0
F003E0
F803E0
F80FC0
7C1F80
7FFF00
3FFE00
1FF800
010000
ENDCHAR
STARTCHAR 00F7
ENCODING 247
SWIDTH 500 0
DWIDTH 25 0
BBX 21 22 4 2
BITMAP
003E00
003E00
007E00
007E00
003C00
001800
000000
000000
000000
7FFFF8
7FFFF8
7FFFF8
FFFFF0
000000
000000
000000
00E000
01F000
01F000
03F000
01F000
01E000
ENDCHAR
STARTCHAR 00F8
ENCODING 248
SWIDTH 500 0
DWIDTH 25 0
BBX 25 27 2 -2
BITMAP
00000100
00078380
003FF780
00FFFF00
01FFFE00
03F07E00
07C07E00
0780FE00
0F81FE00
0F03FE00
1E07DE00
1E0F9E00
1E1F1E00
3C1E1E00
3C3C3E00
3C783C00
3CF03C00
3DE07C00
3FC0F800
3F80F800
3F03F000
1F07E000
3FFFC000
7FFF8000
F7FE0000
E0000000
40000000
ENDCHAR
STARTCHAR 00F9
ENCODING 249
SWIDTH 500 0
DWIDTH 25 0
BBX 22 35 4 0
BITMAP
003000
007800
007C00
003C00
001E00
000F00
000780
000300
000000
000000
000000
0F007C
1E0078
1E0078
1E0078
1E0078
3C00F0
3C00F0
3C00F0
3C00F0
7C01E0
7801E0
7801E0
7801E0
F803C0
F003C0
F003C0
F003C0
F007C0
F80FC0
7C1FC0
7FFFC0
3FFBC0
1FF1C0
030000
ENDCHAR
STARTCHAR 00FA
ENCODING 250
SWIDTH 500 0
DWIDTH 25 0
BBX 22 36 4 -1
BITMAP
000040
0000C0
0001E0
0003F0
0007E0
000F80
001F00
001E00
001800
000000
000000
000000
0F007C
1E0078
1E0078
1E0078
1E0078
3C00F0
3C00F0
3C00F0
3C00F0
7C01E0
7801E0
7801E0
7801E0
F803C0
F003C0
F003C0
F003C0
F007C0
F80FC0
7C1FC0
7FFFC0
3FFBC0
1FF1C0
030000
ENDCHAR
STARTCHAR 00FB
ENCODING 251
SWIDTH 500 0
DWIDTH 25 0
BBX 22 35 4 -1
BITMAP
000300
000700
000F80
001FC0
007DC0
00F9E0
00E0E0
004040
000000
000000
000000
0F007C
1E0078
1E0078
1E0078
1E0078
3C00F0
3C00F0
3C00F0
3C00F0
7C01E0
7801E0
7801E0
7801E0
F803C0
F003C0
F003C0
F003C0
F007C0
F80FC0
7C1FC0
7FFFC0
3FFBC0
1FF1C0
030000
ENDCHAR
STARTCHAR 00FC
ENCODING 252
SWIDTH 500 0
DWIDTH 25 0
BBX 22 34 4 -1
BITMAP
006070
00F0F8
01F0F8
01F0F8
00F0F0
004000
000000
000000
000000
000000
0F007C
1E0078
1E0078
1E0078
1E0078
3C00F0
3C00F0
3C00F0
3C00F0
7C01E0
7801E0
7801E0
7801E0
F803C0
F003C0
F003C0
F003C0
F007C0
F80FC0
7C1FC0
7FFFC0
3FFBC0
1FF1C0
030000
ENDCHAR
STARTCHAR 00FD
ENCODING 253
SWIDTH 500 0
DWIDTH 25 0
BBX 28 42 -1 -7
BITMAP
00000600
00000F00
00001F80
00003F00
00007C00
0000F800
0000F000
0000C000
00000000
00000000
00000000
00F001F0
00F001E0
00F001E0
00F003E0
00F003C0
00F003C0
00F80780
00780780
00780F80
00780F00
00780F00
00781E00
007C1E00
003C3C00
003C3C00
003C7800
003C7800
001EF000
001EF000
001FE000
001FC000
000FC000
000F8000
000F0000
001F0000
003E0000
007C0000
41F80000
7FF00000
FFE00000
FF800000
ENDCHAR
STARTCHAR 00FE
ENCODING 254
SWIDTH 500 0
DWIDTH 25 0
BBX 24 43 1 -8
BITMAP
000400
003C00
003C00
007C00
007800
007800
007800
00F800
00F000
00F000
00F000
00F3E0
01EFF8
01FFFC
01FFFE
01F03F
03C01F
03C00F
03C00F
03C00F
07800F
07800F
07800F
07800F
0F001F
0F001E
0F003E
0F003C
1F007C
1E00F8
1E03F0
1E0FE0
3FFFC0
3FFF80
3FFC00
3C8000
3C0000
780000
780000
780000
780000
F00000
F00000
ENDCHAR
STARTCHAR 00FF
ENCODING 255
SWIDTH 500 0
DWIDTH 25 0
BBX 28 41 -1 -8
BITMAP
00030380
000787C0
000F87C0
000F87C0
000F8780
00020000
00000000
00000000
00000000
00000000
00F001F0
00F001E0
00F001E0
00F003E0
00F003C0
00F003C0
00F80780
00780780
00780F80
00780F00
00780F00
00781E00
007C1E00
003C3C00
003C3C00
003C7800
003C7800
001EF000
001EF000
001FE000
001FC000
000FC000
000F8000
000F0000
001F0000
003E0000
007C0000
41F80000
7FF00000
FFE00000
FF800000
ENDCHAR
STARTCHAR 0100
ENCODING 256
SWIDTH 500 0
DWIDTH 25 0
BBX 27 39 0 0
BITMAP
0003FFE0
0003FFE0
0003FFC0
0003FFC0
00000000
00000000
00000000
00000000
0000F800
0001F800
0001FC00
0003FC00
0003BC00
0007BC00
000F3C00
000F3C00
001E3C00
001C3C00
003C1C00
00381C00
00781E00
00F01E00
00F01E00
01E01E00
01E01E00
03C01E00
03C01E00
07FFFE00
07FFFE00
0FFFFE00
0FFFFE00
1E001E00
1E001E00
3C001E00
3C001E00
78001E00
78001E00
F0001E00
F0001E00
ENDCHAR
STARTCHAR 0101
ENCODING 257
SWIDTH 500 0
DWIDTH 25 0
BBX 23 33 4 -1
BITMAP
003FFE
003FFE
003FFC
000000
000000
000000
000000
000000
0007C0
007FFC
01FFF8
03FFF8
0FE078
1F8078
1F00F0
3E00F0
7C00F0
7800F0
F801E0
F001E0
F001E0
F001E0
F003C0
F003C0
F003C0
F003C0
F003C0
F007C0
F81FC0
7FFFC0
3FFBC0
1FF3C0
030000
ENDCHAR
STARTCHAR 0102
ENCODING 258
SWIDTH 500 0
DWIDTH 25 0
BBX 27 40 0 0
BITMAP
0001C0E0
0001C1E0
0001E3C0
0000FF80
0000FF00
00003C00
00000000
00000000
00000000
0000F800
0001F800
0001FC00
0003FC00
0003BC00
0007BC00
000F3C00
000F3C00
001E3C00
001C3C00
003C1C00
00381C00
00781E00
00F01E00
00F01E00
01E01E00
01E01E00
03C01E00
03C01E00
07FFFE00
07FFFE00
0FFFFE00
0FFFFE00
1E001E00
1E001E00
3C001E00
3C001E00
78001E00
78001E00
F0001E00
F0001E00
ENDCHAR
STARTCHAR 0103
ENCODING 259
SWIDTH 500 0
DWIDTH 25 0
BBX 23 34 4 -1
BITMAP
001C0E
001C1E
001E3C
000FF8
000FF0
0001C0
000000
000000
000000
0007C0
007FFC
01FFF8
03FFF8
0FE078
1F8078
1F00F0
3E00F0
7C00F0
7800F0
F801E0
F001E0
F001E0
F001E0
F003C0
F003C0
F003C0
F003C0
F003C0
F007C0
F81FC0
7FFFC0
3FFBC0
1FF3C0
030000
ENDCHAR
STARTCHAR 0104
ENCODING 260
SWIDTH 500 0
DWIDTH 25 0
BBX 23 39 0 -8
BITMAP
0000F8
0001F8
0001FC
0003FC
0003BC
0007BC
000F3C
000F3C
001E3C
001C3C
003C1C
00381C
00781E
00F01E
00F01E
01E01E
01E01E
03C01E
03C01E
07FFFE
07FFFE
0FFFFE
0FFFFE
1E001E
1E001E
3C001E
3C001E
78001E
78001E
F0001E
F0001E
00001E
000078
0000F0
0000E0
0001E0
0001FC
0001FC
0000FC
ENDCHAR
STARTCHAR 0105
ENCODING 261
SWIDTH 500 0
DWIDTH 25 0
BBX 22 32 4 -8
BITMAP
0007C0
007FFC
01FFF8
03FFF8
0FE078
1F8078
1F00F0
3E00F0
7C00F0
7800F0
F801E0
F001E0
F001E0
F001E0
F003C0
F003C0
F003C0
F003C0
F003C0
F007C0
F81FC0
7FFFC0
3FFBC0
1FF3C0
030780
000F00
001E00
003C00
003C00
003F80
003F80
001F80
ENDCHAR
STARTCHAR 0106
ENCODING 262
SWIDTH 500 0
DWIDTH 25 0
BBX 25 42 4 0
BITMAP
00001800
00003C00
00007E00
0000FC00
0001F000
0003E000
0003C000
00038000
00000000
0000F000
000FFE00
003FFF80
00FFFF00
01FC0F00
03F00200
07C00000
07800000
0F800000
1F000000
1E000000
3E000000
3C000000
3C000000
7C000000
78000000
78000000
78000000
78000000
78000000
F8000000
F8000000
F8000000
78000000
78000000
78000000
7C000000
3E004000
3F01C000
1FFFC000
0FFFC000
07FF8000
00F80000
ENDCHAR
STARTCHAR 0107
ENCODING 263
SWIDTH 500 0
DWIDTH 25 0
BBX 21 35 4 0
BITMAP
000030
000078
0000F8
0001F8
0003E0
0007C0
000F80
000600
000000
000000
000FE0
00FFF8
03FFF8
07FFF8
0FE010
1F8000
3E0000
3C0000
7C0000
780000
F80000
F00000
F00000
F00000
F00000
F00000
F00000
F00000
F00000
F80000
7E01C0
3FFFC0
1FFFC0
0FFF80
007000
ENDCHAR
STARTCHAR 0108
ENCODING 264
SWIDTH 500 0
DWIDTH 25 0
BBX 25 42 4 -1
BITMAP
00003000
00007000
0000F800
0003FC00
0007FC00
000F1E00
000E0E00
00040400
00000000
0000F000
000FFE00
003FFF80
00FFFF00
01FC0F00
03F00200
07C00000
07800000
0F800000
1F000000
1E000000
3E000000
3C000000
3C000000
7C000000
78000000
78000000
78000000
78000000
78000000
F8000000
F8000000
F8000000
78000000
78000000
78000000
7C000000
3E004000
3F01C000
1FFFC000
0FFFC000
07FF8000
00F80000
ENDCHAR
STARTCHAR 0109
ENCODING 265
SWIDTH 500 0
DWIDTH 25 0
BBX 21 35 4 -1
BITMAP
000180
0003C0
0007C0
000FE0
001EF0
003C78
003838
002010
000000
000000
000FE0
00FFF8
03FFF8
07FFF8
0FE010
1F8000
3E0000
3C0000
7C0000
780000
F80000
F00000
F00000
F00000
F00000
F00000
F00000
F00000
F00000
F80000
7E01C0
3FFFC0
1FFFC0
0FFF80
007000
ENDCHAR
STARTCHAR 010A
ENCODING 266
SWIDTH 500 0
DWIDTH 25 0
BBX 25 41 4 -1
BITMAP
0000E000
0001F000
0001F000
0001F000
0001E000
0000C000
00000000
00000000
0000F000
000FFE00
003FFF80
00FFFF00
01FC0F00
03F00200
07C00000
07800000
0F800000
1F000000
1E000000
3E000000
3C000000
3C000000
7C000000
78000000
78000000
78000000
78000000
78000000
F8000000
F8000000
F8000000
78000000
78000000
78000000
7C000000
3E004000
3F01C000
1FFFC000
0FFFC000
07FF8000
00F80000
ENDCHAR
STARTCHAR 010B
ENCODING 267
SWIDTH 500 0
DWIDTH 25 0
BBX 21 34 4 -1
BITMAP
0001C0
0003E0
0007E0
0007E0
0003C0
000180
000000
000000
000000
000FE0
00FFF8
03FFF8
07FFF8
0FE010
1F8000
3E0000
3C0000
7C0000
780000
F80000
F00000
F00000
F00000
F00000
F00000
F00000
F00000
F00000
F80000
7E01C0
3FFFC0
1FFFC0
0FFF80
007000
ENDCHAR
STARTCHAR 010C
ENCODING 268
SWIDTH 500 0
DWIDTH 25 0
BBX 25 42 4 0
BITMAP
00060200
000F0F00
00079E00
0003FC00
0001F800
0001F000
0000E000
00004000
00000000
0000F000
000FFE00
003FFF80
00FFFF00
01FC0F00
03F00200
07C00000
07800000
0F800000
1F000000
1E000000
3E000000
3C000000
3C000000
7C000000
78000000
78000000
78000000
78000000
78000000
F8000000
F8000000
F8000000
78000000
78000000
78000000
7C000000
3E004000
3F01C000
1FFFC000
0FFFC000
07FF8000
00F80000
ENDCHAR
STARTCHAR 010D
ENCODING 269
SWIDTH 500 0
DWIDTH 25 0
BBX 22 35 4 0
BITMAP
001818
003C3C
001E78
000FF0
000FE0
0007C0
000380
000000
000000
000000
000FE0
00FFF8
03FFF8
07FFF8
0FE010
1F8000
3E0000
3C0000
7C0000
780000
F80000
F00000
F00000
F00000
F00000
F00000
F00000
F00000
F00000
F80000
7E01C0
3FFFC0
1FFFC0
0FFF80
007000
ENDCHAR
STARTCHAR 010E
ENCODING 270
SWIDTH 500 0
DWIDTH 25 0
BBX 24 41 2 1
BITMAP
000C04
001E1E
000F3C
0007F8
0007F0
0003E0
0001C0
000000
000000
000000
01FFC0
01FFF0
03FFF8
03C1FC
03C07E
03C03E
03C01F
07801F
07800F
07800F
07800F
0F000F
0F000F
0F000F
0F000F
1E000F
1E001F
1E001E
1E001E
3C003E
3C003C
3C007C
3C0078
7C00F8
7801F0
7803E0
780FE0
787F80
FFFF00
FFFC00
FFF000
ENDCHAR
STARTCHAR 010F
ENCODING 271
SWIDTH 500 0
DWIDTH 25 0
BBX 30 36 2 -1
BITMAP
0000023C
00001E3C
00001E3C
00001E38
00003C78
00003C70
00003C70
00003C70
000078E0
000078E0
00007800
0007F800
007FF000
01FFF000
03FFF000
07E0F000
0F80F000
1F01E000
1E01E000
3E01E000
3C01E000
7C03C000
7803C000
7803C000
7803C000
78078000
F8078000
F8078000
F8078000
78078000
780F8000
7C3F8000
7FFF8000
3FF78000
1FE78000
02000000
ENDCHAR
STARTCHAR 0110
ENCODING 272
SWIDTH 500 0
DWIDTH 25 0
BBX 23 31 3 0
BITMAP
00FFC0
01FFE0
01FFF0
01E1F8
01E07C
03E03C
03C03E
03C03E
03C01E
03C01E
07801E
07801E
07801E
7FF81E
7FF01E
7FF01E
FFF03E
0F003C
1E003C
1E007C
1E0078
1E0078
3E00F8
3C01F0
3C03E0
3C07E0
7C0FC0
7C7F80
7FFE00
7FFC00
7FF000
ENDCHAR
STARTCHAR 0111
ENCODING 273
SWIDTH 500 0
DWIDTH 25 0
BBX 26 36 4 -1
BITMAP
00000100
00000F00
00001F00
00001E00
001FFFC0
003FFFC0
003FFFC0
003FFFC0
00003C00
00003C00
00003C00
0007F800
007FF800
01FFF800
03FFF800
07E0F000
0F80F000
1F00F000
3E00F000
3C01E000
7C01E000
7801E000
7801E000
F803E000
F003C000
F003C000
F003C000
F003C000
F0078000
F0078000
F80F8000
7C1F8000
7FFF8000
3FFBC000
1FE3C000
02000000
ENDCHAR
STARTCHAR 0112
ENCODING 274
SWIDTH 500 0
DWIDTH 25 0
BBX 24 39 4 0
BITMAP
001FFF
001FFE
001FFE
003FFE
000000
000000
000000
000000
01FFFF
01FFFF
03FFFF
03FFFF
03C000
03C000
07C000
078000
078000
078000
078000
0F0000
0F0000
0FFFE0
0FFFE0
1FFFE0
1FFFE0
1E0000
1E0000
3C0000
3C0000
3C0000
3C0000
7C0000
780000
780000
780000
FFFFE0
FFFFE0
FFFFC0
FFFFC0
ENDCHAR
STARTCHAR 0113
ENCODING 275
SWIDTH 500 0
DWIDTH 25 0
BBX 22 33 4 -1
BITMAP
007FFC
007FFC
007FF8
000000
000000
000000
000000
000000
001E00
00FFE0
03FFF0
07FFF8
0FC0F8
1F0078
3E0078
3C0078
7C00F8
7800F0
F803F0
F03FE0
FFFFC0
FFFE00
FFE000
F00000
F00000
F00000
F00000
F80000
7E03C0
7FFFC0
3FFFC0
0FFF80
00E000
ENDCHAR
STARTCHAR 0114
ENCODING 276
SWIDTH 500 0
DWIDTH 25 0
BBX 24 40 4 0
BITMAP
000E07
000E0E
000F1E
000FFC
0007F8
0001E0
000000
000000
000000
01FFFF
01FFFF
03FFFF
03FFFF
03C000
03C000
07C000
078000
078000
078000
078000
0F0000
0F0000
0FFFE0
0FFFE0
1FFFE0
1FFFE0
1E0000
1E0000
3C0000
3C0000
3C0000
3C0000
7C0000
780000
780000
780000
FFFFE0
FFFFE0
FFFFC0
FFFFC0
ENDCHAR
STARTCHAR 0115
ENCODING 277
SWIDTH 500 0
DWIDTH 25 0
BBX 22 34 4 -1
BITMAP
00381C
00383C
003C78
001FF8
000FE0
000380
000000
000000
000000
001E00
00FFE0
03FFF0
07FFF8
0FC0F8
1F0078
3E0078
3C0078
7C00F8
7800F0
F803F0
F03FE0
FFFFC0
FFFE00
FFE000
F00000
F00000
F00000
F00000
F80000
7E03C0
7FFFC0
3FFFC0
0FFF80
00E000
ENDCHAR
STARTCHAR 0116
ENCODING 278
SWIDTH 500 0
DWIDTH 25 0
BBX 24 40 4 0
BITMAP
0000C0
0001E0
0003F0
0003F0
0001E0
000080
000000
000000
000000
01FFFF
01FFFF
03FFFF
03FFFF
03C000
03C000
07C000
078000
078000
078000
078000
0F0000
0F0000
0FFFE0
0FFFE0
1FFFE0
1FFFE0
1E0000
1E0000
3C0000
3C0000
3C0000
3C0000
7C0000
780000
780000
780000
FFFFE0
FFFFE0
FFFFC0
FFFFC0
ENDCHAR
STARTCHAR 0117
ENCODING 279
SWIDTH 500 0
DWIDTH 25 0
BBX 21 34 4 -1
BITMAP
000380
0007C0
0007C0
0007C0
000780
000200
000000
000000
000000
001E00
00FFE0
03FFF0
07FFF8
0FC0F8
1F0078
3E0078
3C0078
7C00F8
7800F0
F803F0
F03FE0
FFFFC0
FFFE00
FFE000
F00000
F00000
F00000
F00000
F80000
7E03C0
7FFFC0
3FFFC0
0FFF80
00E000
ENDCHAR
STARTCHAR 0118
ENCODING 280
SWIDTH 500 0
DWIDTH 25 0
BBX 24 39 4 -8
BITMAP
01FFFF
01FFFF
03FFFF
03FFFF
03C000
03C000
07C000
078000
078000
078000
078000
0F0000
0F0000
0FFFE0
0FFFE0
1FFFE0
1FFFE0
1E0000
1E0000
3C0000
3C0000
3C0000
3C0000
7C0000
780000
780000
780000
FFFFE0
FFFFE0
FFFFC0
FFFFC0
000780
000F00
001C00
003C00
007800
007F80
007F80
003F00
ENDCHAR
STARTCHAR 0119
ENCODING 281
SWIDTH 500 0
DWIDTH 25 0
BBX 21 32 4 -8
BITMAP
001E00
00FFE0
03FFF0
07FFF8
0FC0F8
1F0078
3E0078
3C0078
7C00F8
7800F0
F803F0
F03FE0
FFFFC0
FFFE00
FFE000
F00000
F00000
F00000
F00000
F80000
7E03C0
7FFFC0
3FFFC0
0FFF80
00FF00
003C00
007800
00F000
00F000
00FE00
00FE00
007E00
ENDCHAR
STARTCHAR 011A
ENCODING 282
SWIDTH 500 0
DWIDTH 25 0
BBX 24 41 4 1
BITMAP
000606
000F0F
00079E
0007FC
0003F8
0001E0
0000C0
000080
000000
000000
01FFFF
01FFFF
03FFFF
03FFFF
03C000
03C000
07C000
078000
078000
078000
078000
0F0000
0F0000
0FFFE0
0FFFE0
1FFFE0
1FFFE0
1E0000
1E0000
3C0000
3C0000
3C0000
3C0000
7C0000
780000
780000
780000
FFFFE0
FFFFE0
FFFFC0
FFFFC0
ENDCHAR
STARTCHAR 011B
ENCODING 283
SWIDTH 500 0
DWIDTH 25 0
BBX 22 35 4 0
BITMAP
003818
003C3C
001CF8
001FF0
000FC0
000780
000700
000200
000000
000000
001E00
00FFE0
03FFF0
07FFF8
0FC0F8
1F0078
3E0078
3C0078
7C00F8
7800F0
F803F0
F03FE0
FFFFC0
FFFE00
FFE000
F00000
F00000
F00000
F00000
F80000
7E03C0
7FFFC0
3FFFC0
0FFF80
00E000
ENDCHAR
STARTCHAR 011C
ENCODING 284
SWIDTH 500 0
DWIDTH 25 0
BBX 24 42 4 -1
BITMAP
000060
0000E0
0001F0
0003F8
000FBC
001F3C
001C1E
00080C
000000
0000E0
001FFC
007FFF
00FFFE
01F81E
03E004
07C000
0F8000
0F0000
1E0000
3E0000
3C0000
3C0000
780000
780000
780000
780000
F00078
F000F8
F000F0
F000F0
F000F0
F001F0
F001E0
F801E0
F801E0
7801E0
7C03C0
3F03C0
3FFFC0
1FFFC0
07FF80
00F000
ENDCHAR
STARTCHAR 011D
ENCODING 285
SWIDTH 500 0
DWIDTH 25 0
BBX 26 42 1 -8
BITMAP
00001800
00003800
00007C00
0001FE00
0003FE00
00078F00
00070700
00020200
00000000
00000000
0000FC00
0007FFC0
001FFF80
007FFF80
00FE0780
01F80F80
03E00F00
03C00F00
07C00F00
07801F00
0F001E00
0F001E00
0F001E00
1F003E00
1E003C00
1E003C00
1E003C00
1F003C00
0F00F800
0FC7F800
07FFF800
07FFF800
01FCF000
0000F000
0000F000
0001E000
0003E000
4007C000
781FC000
7FFF8000
FFFE0000
3FF80000
ENDCHAR
STARTCHAR 011E
ENCODING 286
SWIDTH 500 0
DWIDTH 25 0
BBX 24 41 4 -1
BITMAP
000E07
000E0E
000F1E
000FFC
0007F8
0001E0
000000
000000
0000E0
001FFC
007FFF
00FFFE
01F81E
03E004
07C000
0F8000
0F0000
1E0000
3E0000
3C0000
3C0000
780000
780000
780000
780000
F00078
F000F8
F000F0
F000F0
F000F0
F001F0
F001E0
F801E0
F801E0
7801E0
7C03C0
3F03C0
3FFFC0
1FFFC0
07FF80
00F000
ENDCHAR
STARTCHAR 011F
ENCODING 287
SWIDTH 500 0
DWIDTH 25 0
BBX 26 41 1 -8
BITMAP
000301C0
00038380
0003C780
0003FF00
0001FE00
00007000
00000000
00000000
00000000
0000FC00
0007FFC0
001FFF80
007FFF80
00FE0780
01F80F80
03E00F00
03C00F00
07C00F00
07801F00
0F001E00
0F001E00
0F001E00
1F003E00
1E003C00
1E003C00
1E003C00
1F003C00
0F00F800
0FC7F800
07FFF800
07FFF800
01FCF000
0000F000
0000F000
0001E000
0003E000
4007C000
781FC000
7FFF8000
FFFE0000
3FF80000
ENDCHAR
STARTCHAR 0120
ENCODING 288
SWIDTH 500 0
DWIDTH 25 0
BBX 24 41 4 -1
BITMAP
0000C0
0001E0
0003F0
0003F0
0001E0
000080
000000
000000
0000E0
001FFC
007FFF
00FFFE
01F81E
03E004
07C000
0F8000
0F0000
1E0000
3E0000
3C0000
3C0000
780000
780000
780000
780000
F00078
F000F8
F000F0
F000F0
F000F0
F001F0
F001E0
F801E0
F801E0
7801E0
7C03C0
3F03C0
3FFFC0
1FFFC0
07FF80
00F000
ENDCHAR
STARTCHAR 0121
ENCODING 289
SWIDTH 500 0
DWIDTH 25 0
BBX 26 41 1 -8
BITMAP
00003800
00007C00
0000FC00
0000FC00
00007800
00003000
00000000
00000000
00000000
0000FC00
0007FFC0
001FFF80
007FFF80
00FE0780
01F80F80
03E00F00
03C00F00
07C00F00
07801F00
0F001E00
0F001E00
0F001E00
1F003E00
1E003C00
1E003C00
1E003C00
1F003C00
0F00F800
0FC7F800
07FFF800
07FFF800
01FCF000
0000F000
0000F000
0001E000
0003E000
4007C000
781FC000
7FFF8000
FFFE0000
3FF80000
ENDCHAR
STARTCHAR 0122
ENCODING 290
SWIDTH 500 0
DWIDTH 25 0
BBX 24 41 4 -9
BITMAP
0000E0
001FFC
007FFF
00FFFE
01F81E
03E004
07C000
0F8000
0F0000
1E0000
3E0000
3C0000
3C0000
780000
780000
780000
780000
F00078
F000F8
F000F0
F000F0
F000F0
F001F0
F001E0
F801E0
F801E0
7801E0
7C03C0
3F03C0
3FFFC0
1FFFC0
07FF80
00F000
000000
03C000
03C000
03C000
078000
3F8000
3E0000
100000
ENDCHAR
STARTCHAR 0123
ENCODING 291
SWIDTH 500 0
DWIDTH 25 0
BBX 26 43 1 -8
BITMAP
00000300
00000F00
00001F00
00003E00
00003C00
00007C00
00007800
00007800
00000000
00000000
00000000
0000FC00
0007FFC0
001FFF80
007FFF80
00FE0780
01F80F80
03E00F00
03C00F00
07C00F00
07801F00
0F001E00
0F001E00
0F001E00
1F003E00
1E003C00
1E003C00
1E003C00
1F003C00
0F00F800
0FC7F800
07FFF800
07FFF800
01FCF000
0000F000
0000F000
0001E000
0003E000
4007C000
781FC000
7FFF8000
FFFE0000
3FF80000
ENDCHAR
STARTCHAR 0124
ENCODING 292
SWIDTH 500 0
DWIDTH 25 0
BBX 27 41 2 0
BITMAP
00003000
00007000
0000F800
0001FC00
0003DE00
000F8E00
000E0F00
00040600
00000000
00000000
01E001E0
01E003E0
01E003C0
03C003C0
03C003C0
03C007C0
03C00780
07C00780
07800780
07800F80
07800F00
0F800F00
0F000F00
0FFFFF00
0FFFFE00
1FFFFE00
1FFFFE00
1E001E00
1E003C00
1E003C00
3C003C00
3C003C00
3C007800
3C007800
78007800
78007800
7800F800
7800F000
F000F000
F000F000
F001F000
ENDCHAR
STARTCHAR 0125
ENCODING 293
SWIDTH 500 0
DWIDTH 25 0
BBX 22 41 2 1
BITMAP
000600
001F00
003F80
007BC0
00F1C0
004080
000000
00F000
00F000
00F000
00F000
01E000
01E000
01E000
01E000
03C000
03C000
03CF00
03FFE0
07FFF0
07FFF8
0780F8
07807C
0F807C
0F003C
0F003C
0F003C
1F0078
1E0078
1E0078
1E0078
1E00F8
3C00F0
3C00F0
3C00F0
3C01F0
7801E0
7801E0
7801E0
7801E0
F003C0
ENDCHAR
STARTCHAR 0126
ENCODING 294
SWIDTH 500 0
DWIDTH 25 0
BBX 27 31 3 0
BITMAP
01F00F00
01E00F00
01E00F00
01E00F00
1FFFFFE0
1FFFFFC0
1FFFFFC0
3FFFFFC0
07C03C00
07803C00
07803C00
07803C00
07807C00
0FFFF800
0FFFF800
0FFFF800
0FFFF800
1E00F000
1E00F000
1E00F000
1E01F000
3C01E000
3C01E000
3C01E000
3C01E000
7C03C000
7803C000
7803C000
7803C000
78078000
F0078000
ENDCHAR
STARTCHAR 0127
ENCODING 295
SWIDTH 500 0
DWIDTH 25 0
BBX 21 35 4 0
BITMAP
001000
00F000
00F000
00F000
0FFFE0
0FFFC0
0FFFC0
1FFFC0
03C000
03C000
03C000
03CF00
07FFC0
07FFE0
07FFF0
0781F0
0F80F0
0F00F8
0F0078
0F0078
1F00F8
1E00F0
1E00F0
1E00F0
1E00F0
3C01E0
3C01E0
3C01E0
3C01E0
7803C0
7803C0
7803C0
7803C0
F007C0
F00780
ENDCHAR
STARTCHAR 0128
ENCODING 296
SWIDTH 500 0
DWIDTH 25 0
BBX 24 40 4 0
BITMAP
000004
001F87
003FFE
007FFC
0060F8
002000
000000
000000
000000
01FFFE
01FFFE
03FFFC
03FFFC
000F00
000F00
001F00
001E00
001E00
001E00
003E00
003C00
003C00
003C00
007C00
007800
007800
007800
00F800
00F000
00F000
00F000
00F000
01E000
01E000
01E000
01E000
FFFF00
FFFF00
FFFF00
FFFF00
ENDCHAR
STARTCHAR 0129
ENCODING 297
SWIDTH 500 0
DWIDTH 25 0
BBX 18 33 7 0
BITMAP
010080
07E1C0
0FFF80
1FFF80
1C3F00
000000
000000
000000
000000
000000
FFE000
FFE000
FFE000
03C000
03C000
03C000
03C000
078000
078000
078000
078000
0F8000
0F0000
0F0000
0F0000
0F0000
0F0000
0F0000
0F0000
0FC400
0FFC00
07FC00
01FC00
ENDCHAR
STARTCHAR 012A
ENCODING 298
SWIDTH 500 0
DWIDTH 25 0
BBX 23 39 4 0
BITMAP
001FFE
003FFE
003FFE
003FFE
000000
000000
000000
000000
01FFFE
01FFFE
03FFFC
03FFFC
000F00
000F00
001F00
001E00
001E00
001E00
003E00
003C00
003C00
003C00
007C00
007800
007800
007800
00F800
00F000
00F000
00F000
00F000
01E000
01E000
01E000
01E000
FFFF00
FFFF00
FFFF00
FFFF00
ENDCHAR
STARTCHAR 012B
ENCODING 299
SWIDTH 500 0
DWIDTH 25 0
BBX 17 32 7 0
BITMAP
07FF80
0FFF80
0FFF80
000000
000000
000000
000000
000000
000000
FFE000
FFE000
FFE000
03C000
03C000
03C000
03C000
078000
078000
078000
078000
0F8000
0F0000
0F0000
0F0000
0F0000
0F0000
0F0000
0F0000
0FC400
0FFC00
07FC00
01FC00
ENDCHAR
STARTCHAR 012C
ENCODING 300
SWIDTH 500 0
DWIDTH 25 0
BBX 23 40 4 0
BITMAP
001C0E
001C1E
001E3C
000FF8
000FF0
0003C0
000000
000000
000000
01FFFE
01FFFE
03FFFC
03FFFC
000F00
000F00
001F00
001E00
001E00
001E00
003E00
003C00
003C00
003C00
007C00
007800
007800
007800
00F800
00F000
00F000
00F000
00F000
01E000
01E000
01E000
01E000
FFFF00
FFFF00
FFFF00
FFFF00
ENDCHAR
STARTCHAR 012D
ENCODING 301
SWIDTH 500 0
DWIDTH 25 0
BBX 17 33 7 0
BITMAP
070380
070380
038F00
03FF00
01FE00
007000
000000
000000
000000
000000
FFE000
FFE000
FFE000
03C000
03C000
03C000
03C000
078000
078000
078000
078000
0F8000
0F0000
0F0000
0F0000
0F0000
0F0000
0F0000
0F0000
0FC400
0FFC00
07FC00
01FC00
ENDCHAR
STARTCHAR 012E
ENCODING 302
SWIDTH 500 0
DWIDTH 25 0
BBX 23 39 4 -8
BITMAP
01FFFE
01FFFE
03FFFC
03FFFC
000F00
000F00
001F00
001E00
001E00
001E00
003E00
003C00
003C00
003C00
007C00
007800
007800
007800
00F800
00F000
00F000
00F000
00F000
01E000
01E000
01E000
01E000
FFFF00
FFFF00
FFFF00
FFFF00
078000
0E0000
1C0000
380000
780000
7F8000
7F0000
3F0000
ENDCHAR
STARTCHAR 012F
ENCODING 303
SWIDTH 500 0
DWIDTH 25 0
BBX 14 41 7 -7
BITMAP
00F0
01F8
01F8
03F8
01F8
01F0
0000
0000
0000
0000
FFE0
FFE0
FFE0
03C0
03C0
03C0
03C0
0780
0780
0780
0780
0F80
0F00
0F00
0F00
0F00
0F00
0F00
0F00
0FC4
0FFC
07FC
01FC
0078
00F0
01C0
0380
0780
07F8
07F0
03F0
ENDCHAR
STARTCHAR 0130
ENCODING 304
SWIDTH 500 0
DWIDTH 25 0
BBX 23 40 4 0
BITMAP
0001C0
0003C0
0007E0
0007E0
0003C0
000180
000000
000000
000000
01FFFE
01FFFE
03FFFC
03FFFC
000F00
000F00
001F00
001E00
001E00
001E00
003E00
003C00
003C00
003C00
007C00
007800
007800
007800
00F800
00F000
00F000
00F000
00F000
01E000
01E000
01E000
01E000
FFFF00
FFFF00
FFFF00
FFFF00
ENDCHAR
STARTCHAR 0131
ENCODING 305
SWIDTH 500 0
DWIDTH 25 0
BBX 14 23 7 0
BITMAP
FFE0
FFE0
FFE0
03C0
03C0
03C0
03C0
0780
0780
0780
0780
0F80
0F00
0F00
0F00
0F00
0F00
0F00
0F00
0FC4
0FFC
07FC
01FC
ENDCHAR
STARTCHAR 0132
ENCODING 306
SWIDTH 500 0
DWIDTH 25 0
BBX 29 32 1 -1
BITMAP
01E00078
01E000F8
01E000F0
01E000F0
03C000F0
03C001F0
03C001E0
03C001E0
078001E0
078003E0
078003C0
078003C0
0F8003C0
0F0007C0
0F000780
0F000780
1F000780
1E000780
1E000F00
1E000F00
1E000F00
3C000F00
3C001E00
3C001E00
3C001E00
78003E00
78403C00
78E0FC00
78FFF800
F1FFF000
F07FC000
001F0000
ENDCHAR
STARTCHAR 0133
ENCODING 307
SWIDTH 500 0
DWIDTH 25 0
BBX 22 41 5 -8
BITMAP
01E038
03F07C
03F0FC
03F0FC
03E0FC
01C070
000000
000000
000000
000000
0781F0
0781E0
0781E0
0F81E0
0F03E0
0F03C0
0F03C0
0F03C0
1E07C0
1E0780
1E0780
1E0780
3C0780
3C0F00
3C0F00
3C0F00
7C0F00
781E00
781E00
781E00
F81E00
F03C00
F03C00
003C00
007C00
007800
00F800
21F000
3FF000
3FE000
3F8000
ENDCHAR
STARTCHAR 0134
ENCODING 308
SWIDTH 500 0
DWIDTH 25 0
BBX 24 42 4 -1
BITMAP
000030
000070
0000F8
0003FC
0007FC
000F1E
000E0E
000404
000000
000000
007FFF
007FFE
00FFFE
00FFFE
00001E
00003C
00003C
00003C
00003C
000078
000078
000078
000078
0000F8
0000F0
0000F0
0000F0
0001F0
0001E0
0001E0
0001E0
0003E0
0003C0
0003C0
0007C0
000780
600F80
F03F00
FFFE00
FFFC00
3FF800
038000
ENDCHAR
STARTCHAR 0135
ENCODING 309
SWIDTH 500 0
DWIDTH 25 0
BBX 24 42 1 -8
BITMAP
000030
000078
0000F8
0001FC
0003DE
000F8E
000607
000402
000000
000000
000000
007FFE
007FFC
007FFC
00003C
00003C
000078
000078
000078
000078
0000F8
0000F0
0000F0
0000F0
0001F0
0001E0
0001E0
0001E0
0003E0
0003C0
0003C0
0003C0
0007C0
000780
000780
000780
000F00
401F00
783E00
7FFE00
FFF800
3FF000
ENDCHAR
STARTCHAR 0136
ENCODING 310
SWIDTH 500 0
DWIDTH 25 0
BBX 27 40 2 -9
BITMAP
00F003E0
01E007C0
01E00F80
01E01F00
01E03E00
03C07C00
03C0F800
03C1F000
03C3E000
0787C000
078F8000
079F0000
07BE0000
0FFC0000
0FF80000
0FF80000
0FFC0000
1F7C0000
1E3E0000
1E1F0000
1E0F0000
1E0F8000
3C078000
3C03C000
3C03C000
3C01E000
7801E000
7801F000
7800F000
7800F800
F0007800
00000000
00000000
00F00000
01E00000
01E00000
03E00000
1FC00000
1F800000
08000000
ENDCHAR
STARTCHAR 0137
ENCODING 311
SWIDTH 500 0
DWIDTH 25 0
BBX 24 44 3 -9
BITMAP
000800
00F000
00F000
00F000
01F000
01E000
01E000
01E000
03E000
03C000
03C000
03C000
03C01F
07807C
0780F8
0781F0
0783E0
0F0FC0
0F1F80
0F3E00
0FFC00
1FF800
1FF000
1FF800
1EF800
3E7C00
3C3E00
3C1F00
3C0F00
7C0F80
7807C0
7803C0
7803E0
7801E0
F001F0
000000
000000
01E000
01E000
01E000
03C000
1FC000
1F0000
080000
ENDCHAR
STARTCHAR 0138
ENCODING 312
SWIDTH 500 0
DWIDTH 25 0
BBX 24 23 3 0
BITMAP
03C01F
07807E
0780F8
0781F0
0783E0
0F07C0
0F1F80
0F3E00
0F7C00
1FF800
1FE000
1FF000
1EF800
3E7C00
3C3E00
3C1F00
3C0F80
7C0F80
7807C0
7803C0
7803E0
7801E0
F001F0
ENDCHAR
STARTCHAR 0139
ENCODING 313
SWIDTH 500 0
DWIDTH 25 0
BBX 18 41 3 1
BITMAP
000100
000380
0007C0
000F80
001F00
003C00
007800
003000
000000
000000
01E000
01E000
01E000
03C000
03C000
03C000
03C000
078000
078000
078000
078000
0F8000
0F0000
0F0000
0F0000
1F0000
1E0000
1E0000
1E0000
3E0000
3C0000
3C0000
3C0000
7C0000
780000
780000
780000
7FFFC0
FFFFC0
FFFFC0
FFFF80
ENDCHAR
STARTCHAR 013A
ENCODING 314
SWIDTH 500 0
DWIDTH 25 0
BBX 14 42 9 0
BITMAP
0018
007C
01FC
03F0
0380
0000
0000
7FE0
FFE0
FFE0
FFE0
03C0
03C0
03C0
03C0
0780
0780
0780
0780
0F80
0F00
0F00
0F00
1F00
1E00
1E00
1E00
3E00
3C00
3C00
3C00
7C00
7800
7800
7800
7800
7800
7C18
7FF8
3FF8
1FF8
0180
ENDCHAR
STARTCHAR 013B
ENCODING 315
SWIDTH 500 0
DWIDTH 25 0
BBX 18 40 3 -9
BITMAP
01E000
01E000
01E000
03C000
03C000
03C000
03C000
078000
078000
078000
078000
0F8000
0F0000
0F0000
0F0000
1F0000
1E0000
1E0000
1E0000
3E0000
3C0000
3C0000
3C0000
7C0000
780000
780000
780000
7FFFC0
FFFFC0
FFFFC0
FFFF80
000000
000000
01E000
01E000
01E000
03C000
1FC000
1F0000
080000
ENDCHAR
STARTCHAR 013C
ENCODING 316
SWIDTH 500 0
DWIDTH 25 0
BBX 13 43 9 -9
BITMAP
7FE0
FFE0
FFE0
01E0
03C0
03C0
03C0
03C0
0780
0780
0780
0780
0F80
0F00
0F00
0F00
1F00
1E00
1E00
1E00
3E00
3C00
3C00
3C00
7C00
7800
7800
7800
7800
7800
7C18
7FF8
3FF8
1FF8
0180
0000
0F00
0F00
1F00
3E00
FC00
F800
4000
ENDCHAR
STARTCHAR 013D
ENCODING 317
SWIDTH 500 0
DWIDTH 25 0
BBX 19 31 3 0
BITMAP
01E1E0
01E1E0
01E1C0
03C3C0
03C3C0
03C380
03C380
078700
078700
078700
078000
0F8000
0F0000
0F0000
0F0000
1F0000
1E0000
1E0000
1E0000
3E0000
3C0000
3C0000
3C0000
7C0000
780000
780000
780000
7FFFC0
FFFFC0
FFFFC0
FFFF80
ENDCHAR
STARTCHAR 013E
ENCODING 318
SWIDTH 500 0
DWIDTH 25 0
BBX 19 36 9 -1
BITMAP
0001E0
7FE1E0
FFE1C0
FFE3C0
01E3C0
03C380
03C380
03C780
03C700
078700
078000
078000
078000
0F8000
0F0000
0F0000
0F0000
1F0000
1E0000
1E0000
1E0000
3E0000
3C0000
3C0000
3C0000
7C0000
780000
780000
780000
780000
780000
7C1800
7FF800
3FF800
1FF800
018000
ENDCHAR
STARTCHAR 013F
ENCODING 319
SWIDTH 500 0
DWIDTH 25 0
BBX 20 31 3 0
BITMAP
01E000
01E000
01E000
03C000
03C000
03C000
03C000
078000
078000
078000
078000
0F8000
0F00E0
0F01F0
0F03F0
1F03F0
1E01E0
1E0000
1E0000
3E0000
3C0000
3C0000
3C0000
7C0000
780000
780000
780000
7FFFC0
FFFFC0
FFFFC0
FFFF80
ENDCHAR
STARTCHAR 0140
ENCODING 320
SWIDTH 500 0
DWIDTH 25 0
BBX 20 35 9 -1
BITMAP
7FE000
FFE000
FFE000
01E000
03C000
03C000
03C000
03C000
078000
078000
078000
078000
0F8000
0F0000
0F0000
0F00E0
1F01F0
1E01F0
1E01F0
1E01E0
3E0000
3C0000
3C0000
3C0000
7C0000
780000
780000
780000
780000
780000
7C1800
7FF800
3FF800
1FF800
018000
ENDCHAR
STARTCHAR 0141
ENCODING 321
SWIDTH 500 0
DWIDTH 25 0
BBX 19 31 2 0
BITMAP
007800
00F000
00F000
00F000
00F000
01F000
01E000
01E000
01E000
03E000
03C100
03CF00
03FF00
07FE00
07F800
1FE000
7F8000
FF8000
7F0000
4F0000
0F0000
0F0000
1E0000
1E0000
1E0000
1E0000
3C0000
3FFFE0
3FFFE0
3FFFE0
7FFFC0
ENDCHAR
STARTCHAR 0142
ENCODING 322
SWIDTH 500 0
DWIDTH 25 0
BBX 14 35 8 -1
BITMAP
3FF0
7FF0
7FF0
00F0
01E0
01E0
01E0
01E0
03C0
03C0
03C0
03C0
0798
07F8
07F8
0FF0
7F80
FF00
FF00
4F00
1F00
1E00
1E00
1E00
3E00
3C00
3C00
3C00
3C00
3C00
3E0C
3FFC
1FFC
0FFC
00C0
ENDCHAR
STARTCHAR 0143
ENCODING 323
SWIDTH 500 0
DWIDTH 25 0
BBX 27 41 2 1
BITMAP
00000600
00000E00
00001F00
00003E00
00007C00
0000F800
0001E000
0000C000
00000000
00000000
01F001E0
01F001E0
01F001C0
01F803C0
03F803C0
03F803C0
03F80380
03BC0780
07BC0780
079C0780
079E0700
071E0F00
0F0E0F00
0F0E0F00
0F0F0E00
0E0F0E00
1E071E00
1E071E00
1E071E00
1C079C00
1C07BC00
3C03BC00
3C03BC00
3C03B800
3803F800
7803F800
7801F800
7801F000
7001F000
F001F000
F001F000
ENDCHAR
STARTCHAR 0144
ENCODING 324
SWIDTH 500 0
DWIDTH 25 0
BBX 22 34 3 1
BITMAP
000030
000078
0000F8
0001F8
0003E0
0007C0
000F80
000600
000000
000000
000F00
03FFE0
07FFF0
07FFF8
0780F8
078078
0F007C
0F003C
0F003C
0F007C
1F0078
1E0078
1E0078
1E0078
3E00F0
3C00F0
3C00F0
3C00F0
7C01E0
7801E0
7801E0
7801E0
7803E0
F003C0
ENDCHAR
STARTCHAR 0145
ENCODING 325
SWIDTH 500 0
DWIDTH 25 0
BBX 27 40 2 -9
BITMAP
01F001E0
01F001E0
01F001C0
01F803C0
03F803C0
03F803C0
03F80380
03BC0780
07BC0780
079C0780
079E0700
071E0F00
0F0E0F00
0F0E0F00
0F0F0E00
0E0F0E00
1E071E00
1E071E00
1E071E00
1C079C00
1C07BC00
3C03BC00
3C03BC00
3C03B800
3803F800
7803F800
7801F800
7801F000
7001F000
F001F000
F001F000
00000000
00000000
00F00000
01E00000
01E00000
03E00000
1FC00000
1F800000
08000000
ENDCHAR
STARTCHAR 0146
ENCODING 326
SWIDTH 500 0
DWIDTH 25 0
BBX 22 33 3 -9
BITMAP
000F00
03FFE0
07FFF0
07FFF8
0780F8
078078
0F007C
0F003C
0F003C
0F007C
1F0078
1E0078
1E0078
1E0078
3E00F0
3C00F0
3C00F0
3C00F0
7C01E0
7801E0
7801E0
7801E0
7803E0
F003C0
000000
000000
01E000
03C000
03C000
07C000
3F8000
3F0000
100000
ENDCHAR
STARTCHAR 0147
ENCODING 327
SWIDTH 500 0
DWIDTH 25 0
BBX 27 41 2 1
BITMAP
00030300
00078780
0003CF00
0001FE00
0001FC00
0000F800
00006000
00004000
00000000
00000000
01F001E0
01F001E0
01F001C0
01F803C0
03F803C0
03F803C0
03F80380
03BC0780
07BC0780
079C0780
079E0700
071E0F00
0F0E0F00
0F0E0F00
0F0F0E00
0E0F0E00
1E071E00
1E071E00
1E071E00
1C079C00
1C07BC00
3C03BC00
3C03BC00
3C03B800
3803F800
7803F800
7801F800
7801F000
7001F000
F001F000
F001F000
ENDCHAR
STARTCHAR 0148
ENCODING 328
SWIDTH 500 0
DWIDTH 25 0
BBX 22 34 3 1
BITMAP
001818
003C3C
001E78
000FF0
000FE0
0007C0
000380
000000
000000
000000
000F00
03FFE0
07FFF0
07FFF8
0780F8
078078
0F007C
0F003C
0F003C
0F007C
1F0078
1E0078
1E0078
1E0078
3E00F0
3C00F0
3C00F0
3C00F0
7C01E0
7801E0
7801E0
7801E0
7803E0
F003C0
ENDCHAR
STARTCHAR 0149
ENCODING 329
SWIDTH 500 0
DWIDTH 25 0
BBX 22 35 3 0
BITMAP
01E000
03E000
03C000
03C000
078000
078000
0F0000
0F0000
1E0000
040000
000000
000F00
03FFE0
07FFF0
07FFF8
0780F8
078078
0F007C
0F003C
0F003C
0F007C
1F0078
1E0078
1E0078
1E0078
3E00F0
3C00F0
3C00F0
3C00F0
7C01E0
7801E0
7801E0
7801E0
7803E0
F003C0
ENDCHAR
STARTCHAR 014A
ENCODING 330
SWIDTH 500 0
DWIDTH 25 0
BBX 27 39 2 -8
BITMAP
01F001E0
01F001E0
01F001C0
01F803C0
03F803C0
03F803C0
03FC0380
03BC0780
07BC0780
079E0780
079E0700
071E0F00
0F0E0F00
0F0F0F00
0F0F0E00
0E0F1E00
1E071E00
1E079E00
1E079E00
1C07BC00
1C03BC00
3C03BC00
3C03FC00
3C03F800
3801F800
7801F800
7801F800
7801F000
7000F000
F000F000
F000F000
0000E000
0001E000
0001E000
0003C000
0003C000
003F8000
007F8000
007E0000
ENDCHAR
STARTCHAR 014B
ENCODING 331
SWIDTH 500 0
DWIDTH 25 0
BBX 22 32 3 -8
BITMAP
000E00
03FFE0
07FFF0
07FFF8
0780F8
078078
0F007C
0F003C
0F003C
0F007C
1F0078
1E0078
1E0078
1E0078
3E00F0
3C00F0
3C00F0
3C00F0
7C01E0
7801E0
7801E0
7801E0
7803E0
F003C0
0003C0
0003C0
000780
000780
000F80
00FF00
01FE00
01FC00
ENDCHAR
STARTCHAR 014C
ENCODING 332
SWIDTH 500 0
DWIDTH 25 0
BBX 23 40 4 -1
BITMAP
001FFE
003FFE
003FFE
003FFE
000000
000000
000000
000380
003FE0
00FFF8
01FFF8
03F07C
07C03C
07803E
0F801E
0F001E
1E001E
1E001E
3C001E
3C001E
3C001E
78001E
78003E
78003C
78003C
F0003C
F0007C
F00078
F00078
F000F0
F000F0
F001F0
F001E0
F803C0
7807C0
7C1F80
3FFF00
3FFE00
0FF800
03C000
ENDCHAR
STARTCHAR 014D
ENCODING 333
SWIDTH 500 0
DWIDTH 25 0
BBX 22 33 4 -1
BITMAP
007FFC
007FFC
007FF8
000000
000000
000000
000000
000000
001F00
00FFC0
03FFE0
07FFF0
0FC1F8
1F80F8
1E0078
3E0078
3C0078
7C0078
780078
780078
F80078
F000F8
F000F0
F000F0
F001F0
F003E0
F803E0
F80FC0
7C1F80
7FFF00
3FFE00
1FF800
010000
ENDCHAR
STARTCHAR 014E
ENCODING 334
SWIDTH 500 0
DWIDTH 25 0
BBX 23 41 4 -1
BITMAP
001C0E
001C0E
000E1E
000FFC
0007F8
0001C0
000000
000000
000380
003FE0
00FFF8
01FFF8
03F07C
07C03C
07803E
0F801E
0F001E
1E001E
1E001E
3C001E
3C001E
3C001E
78001E
78003E
78003C
78003C
F0003C
F0007C
F00078
F00078
F000F0
F000F0
F001F0
F001E0
F803C0
7807C0
7C1F80
3FFF00
3FFE00
0FF800
03C000
ENDCHAR
STARTCHAR 014F
ENCODING 335
SWIDTH 500 0
DWIDTH 25 0
BBX 22 34 4 -1
BITMAP
00381C
00383C
003C78
001FF8
001FE0
000380
000000
000000
000000
001F00
00FFC0
03FFE0
07FFF0
0FC1F8
1F80F8
1E0078
3E0078
3C0078
7C0078
780078
780078
F80078
F000F8
F000F0
F000F0
F001F0
F003E0
F803E0
F80FC0
7C1F80
7FFF00
3FFE00
1FF800
010000
ENDCHAR
STARTCHAR 0150
ENCODING 336
SWIDTH 500 0
DWIDTH 25 0
BBX 26 42 4 0
BITMAP
00018100
0003C380
0007C7C0
000F8F80
001F1E00
003E3C00
00383800
00103000
00000000
00038000
003FE000
00FFF800
01FFF800
03F07C00
07C03C00
07803E00
0F801E00
0F001E00
1E001E00
1E001E00
3C001E00
3C001E00
3C001E00
78001E00
78003E00
78003C00
78003C00
F0003C00
F0007C00
F0007800
F0007800
F000F000
F000F000
F001F000
F001E000
F803C000
7807C000
7C1F8000
3FFF0000
3FFE0000
0FF80000
03C00000
ENDCHAR
STARTCHAR 0151
ENCODING 337
SWIDTH 500 0
DWIDTH 25 0
BBX 24 35 4 0
BITMAP
00060C
000E1E
001F1F
003E3C
007C78
00F0F0
00E1E0
0040C0
000000
000000
001F00
00FFC0
03FFE0
07FFF0
0FC1F8
1F80F8
1E0078
3E0078
3C0078
7C0078
780078
780078
F80078
F000F8
F000F0
F000F0
F001F0
F003E0
F803E0
F80FC0
7C1F80
7FFF00
3FFE00
1FF800
010000
ENDCHAR
STARTCHAR 0152
ENCODING 338
SWIDTH 500 0
DWIDTH 25 0
BBX 27 31 3 0
BITMAP
001FFFE0
007FFFE0
01FFFFC0
03F1FFC0
07C0F000
0781E000
0F01E000
1F01E000
1E01E000
1E03C000
3C03C000
3C03C000
7C03C000
7807FE00
7807FC00
7807FC00
7807FC00
F0070000
F00F0000
F00F0000
F00F0000
F00F0000
F01E0000
F01E0000
F81E0000
F81E0000
783C0000
7E3FF800
3FFFF800
3FFFF800
0FFFF000
ENDCHAR
STARTCHAR 0153
ENCODING 339
SWIDTH 500 0
DWIDTH 25 0
BBX 25 25 3 -1
BITMAP
00E03C00
03F8FE00
07FDFF00
0FFFFF00
1F3FCF80
3E1F8780
3C1F0780
7C1F0700
781E0F00
781E0F00
F81E3E00
F01FFC00
F01FF800
F03FF000
F03F8000
F03C0000
F07C0000
F07C0000
F07C0000
F0FE0000
F9FE1000
7FFFF800
7FCFF800
3F87F000
0C010000
ENDCHAR
STARTCHAR 0154
ENCODING 340
SWIDTH 500 0
DWIDTH 25 0
BBX 24 41 2 1
BITMAP
00000C
00001E
00003E
00007C
0000F8
0001F0
0003C0
000180
000000
000000
01FFF0
01FFFC
01FFFE
01E07F
01E01F
03C00F
03C00F
03C00F
03C00F
07800F
07800F
07800F
07801E
0F803E
0F00FC
0FFFF8
0FFFF0
1FFFC0
1FFF00
1E0780
1E0780
3E03C0
3C03C0
3C03E0
3C01E0
3C01E0
7801E0
7800F0
7800F0
7800F0
F000F0
ENDCHAR
STARTCHAR 0155
ENCODING 341
SWIDTH 500 0
DWIDTH 25 0
BBX 21 34 5 1
BITMAP
000060
0000F0
0001F0
0003F0
0007C0
000F80
001F00
000C00
000000
000000
0007E0
03FFF8
07FFF0
0FFFF0
0F8010
0F0000
0F0000
1F0000
1E0000
1E0000
1E0000
3E0000
3C0000
3C0000
3C0000
7C0000
780000
780000
780000
780000
F00000
F00000
F00000
F00000
ENDCHAR
STARTCHAR 0156
ENCODING 342
SWIDTH 500 0
DWIDTH 25 0
BBX 24 40 2 -9
BITMAP
01FFF0
01FFFC
01FFFE
01E07F
01E01F
03C00F
03C00F
03C00F
03C00F
07800F
07800F
07800F
07801E
0F803E
0F00FC
0FFFF8
0FFFF0
1FFFC0
1FFF00
1E0780
1E0780
3E03C0
3C03C0
3C03E0
3C01E0
3C01E0
7801E0
7800F0
7800F0
7800F0
F000F0
000000
000000
00F000
01E000
01E000
03E000
1FC000
1F8000
080000
ENDCHAR
STARTCHAR 0157
ENCODING 343
SWIDTH 500 0
DWIDTH 25 0
BBX 27 32 -1 -9
BITMAP
00001F80
000FFFE0
001FFFC0
003FFFC0
003E0040
003C0000
003C0000
007C0000
00780000
00780000
00780000
00F80000
00F00000
00F00000
00F00000
01F00000
01E00000
01E00000
01E00000
01E00000
03C00000
03C00000
03C00000
03C00000
00000000
00000000
07800000
0F800000
0F000000
1F000000
FE000000
FC000000
ENDCHAR
STARTCHAR 0158
ENCODING 344
SWIDTH 500 0
DWIDTH 25 0
BBX 24 41 2 1
BITMAP
000C04
001E1E
000F3C
0007F8
0007F0
0003E0
0001C0
000000
000000
000000
01FFF0
01FFFC
01FFFE
01E07F
01E01F
03C00F
03C00F
03C00F
03C00F
07800F
07800F
07800F
07801E
0F803E
0F00FC
0FFFF8
0FFFF0
1FFFC0
1FFF00
1E0780
1E0780
3E03C0
3C03C0
3C03E0
3C01E0
3C01E0
7801E0
7800F0
7800F0
7800F0
F000F0
ENDCHAR
STARTCHAR 0159
ENCODING 345
SWIDTH 500 0
DWIDTH 25 0
BBX 22 34 5 1
BITMAP
003818
003C3C
001CF8
001FF0
000FC0
000780
000700
000200
000000
000000
0007E0
03FFF8
07FFF0
0FFFF0
0F8010
0F0000
0F0000
1F0000
1E0000
1E0000
1E0000
3E0000
3C0000
3C0000
3C0000
7C0000
780000
780000
780000
780000
F00000
F00000
F00000
F00000
ENDCHAR
STARTCHAR 015A
ENCODING 346
SWIDTH 500 0
DWIDTH 25 0
BBX 24 42 3 0
BITMAP
000018
00003C
00007C
0000F8
0001F0
0003E0
000780
000300
000000
0003E0
003FFE
007FFF
00FFFF
01F80E
03E000
03C000
03C000
07C000
07C000
07C000
03C000
03E000
03F000
01FC00
00FF00
007F80
001FE0
0007E0
0003F0
0001F0
0000F0
0000F0
0000F0
0000F0
0000F0
0001F0
4003E0
780FE0
FFFFC0
FFFF80
3FFE00
07E000
ENDCHAR
STARTCHAR 015B
ENCODING 347
SWIDTH 500 0
DWIDTH 25 0
BBX 21 35 4 0
BITMAP
000060
0000F0
0001F0
0003F0
0007C0
000F80
001F00
000C00
000000
000000
001F80
00FFF8
01FFF8
03FFF0
07C030
078000
0F0000
0F0000
0F8000
07C000
07F000
03FC00
00FF00
003F80
000FC0
0007C0
0003C0
0003C0
0003C0
4007C0
700F80
7FFF80
FFFF00
3FFC00
038000
ENDCHAR
STARTCHAR 015C
ENCODING 348
SWIDTH 500 0
DWIDTH 25 0
BBX 24 42 3 -1
BITMAP
000060
0000E0
0001F0
0003F8
0007BC
001F1C
001C1E
00080C
000000
0003E0
003FFE
007FFF
00FFFF
01F80E
03E000
03C000
03C000
07C000
07C000
07C000
03C000
03E000
03F000
01FC00
00FF00
007F80
001FE0
0007E0
0003F0
0001F0
0000F0
0000F0
0000F0
0000F0
0000F0
0001F0
4003E0
780FE0
FFFFC0
FFFF80
3FFE00
07E000
ENDCHAR
STARTCHAR 015D
ENCODING 349
SWIDTH 500 0
DWIDTH 25 0
BBX 21 35 4 -1
BITMAP
000180
0003C0
0007C0
000FE0
001EF0
007C70
003038
002010
000000
000000
001F80
00FFF8
01FFF8
03FFF0
07C030
078000
0F0000
0F0000
0F8000
07C000
07F000
03FC00
00FF00
003F80
000FC0
0007C0
0003C0
0003C0
0003C0
4007C0
700F80
7FFF80
FFFF00
3FFC00
038000
ENDCHAR
STARTCHAR 015E
ENCODING 350
SWIDTH 500 0
DWIDTH 25 0
BBX 24 40 3 -8
BITMAP
0003E0
003FFE
007FFF
00FFFF
01F80E
03E000
03C000
03C000
07C000
07C000
07C000
03C000
03E000
03F000
01FC00
00FF00
007F80
001FE0
0007E0
0003F0
0001F0
0000F0
0000F0
0000F0
0000F0
0000F0
0001F0
4003E0
780FE0
FFFFC0
FFFF80
3FFE00
03E000
038000
03C000
03E000
01E000
11E000
1FC000
3F8000
ENDCHAR
STARTCHAR 015F
ENCODING 351
SWIDTH 500 0
DWIDTH 25 0
BBX 21 32 4 -8
BITMAP
001F80
00FFF8
01FFF8
03FFF0
07C030
078000
0F0000
0F0000
0F8000
07C000
07F000
03FC00
00FF00
003F80
000FC0
0007C0
0003C0
0003C0
0003C0
4007C0
700F80
7FFF80
FFFF00
3FFC00
03C000
038000
07C000
03C000
01C000
23C000
3FC000
3F8000
ENDCHAR
STARTCHAR 0160
ENCODING 352
SWIDTH 500 0
DWIDTH 25 0
BBX 24 42 3 0
BITMAP
000602
000F0F
00079E
0003FC
0001F8
0001F0
0000E0
000040
000000
0003E0
003FFE
007FFF
00FFFF
01F80E
03E000
03C000
03C000
07C000
07C000
07C000
03C000
03E000
03F000
01FC00
00FF00
007F80
001FE0
0007E0
0003F0
0001F0
0000F0
0000F0
0000F0
0000F0
0000F0
0001F0
4003E0
780FE0
FFFFC0
FFFF80
3FFE00
07E000
ENDCHAR
STARTCHAR 0161
ENCODING 353
SWIDTH 500 0
DWIDTH 25 0
BBX 22 36 4 -1
BITMAP
000800
00180C
001C3C
001E7C
000FF0
0007E0
0003C0
000380
000100
000000
000000
001F80
00FFF8
01FFF8
03FFF0
07C030
078000
0F0000
0F0000
0F8000
07C000
07F000
03FC00
00FF00
003F80
000FC0
0007C0
0003C0
0003C0
0003C0
4007C0
700F80
7FFF80
FFFF00
3FFC00
038000
ENDCHAR
STARTCHAR 0162
ENCODING 354
SWIDTH 500 0
DWIDTH 25 0
BBX 24 39 5 -8
BITMAP
1FFFFF
1FFFFF
1FFFFF
1FFFFF
001E00
001E00
003C00
003C00
003C00
003C00
007800
007800
007800
007800
00F800
00F000
00F000
00F000
01F000
01E000
01E000
01E000
03E000
03C000
03C000
03C000
07C000
078000
078000
078000
078000
0E0000
0E0000
1E0000
0F0000
0F0000
8F0000
FF0000
FE0000
ENDCHAR
STARTCHAR 0163
ENCODING 355
SWIDTH 500 0
DWIDTH 25 0
BBX 19 38 6 -8
BITMAP
01F000
01E000
01E000
01E000
01E000
03C000
03C000
7FFFE0
7FFFE0
FFFFC0
078000
078000
078000
0F0000
0F0000
0F0000
0F0000
1F0000
1E0000
1E0000
1E0000
3E0000
3C0000
3C0000
3C0000
3E0000
3F0600
1FFE00
1FFE00
0FFE00
03C000
038000
078000
03C000
03C000
23C000
3FC000
7F8000
ENDCHAR
STARTCHAR 0164
ENCODING 356
SWIDTH 500 0
DWIDTH 25 0
BBX 21 41 8 1
BITMAP
00C0C0
01E1E0
00F3C0
007F80
007F00
003E00
001800
001000
000000
000000
FFFFF8
FFFFF8
FFFFF8
FFFFF8
00F000
00F000
01E000
01E000
01E000
01E000
03C000
03C000
03C000
03C000
07C000
078000
078000
078000
0F8000
0F0000
0F0000
0F0000
1F0000
1E0000
1E0000
1E0000
3E0000
3C0000
3C0000
3C0000
3C0000
ENDCHAR
STARTCHAR 0165
ENCODING 357
SWIDTH 500 0
DWIDTH 25 0
BBX 20 36 7 -1
BITMAP
0000F0
0000F0
0001E0
0001E0
0001C0
01E1C0
01E3C0
01E380
03E380
03C000
03C000
03C000
7FFFC0
FFFFC0
FFFFC0
078000
0F8000
0F0000
0F0000
0F0000
1F0000
1E0000
1E0000
1E0000
1E0000
3C0000
3C0000
3C0000
3C0000
3C0000
3C0000
3E0600
3FFE00
1FFE00
0FFE00
008000
ENDCHAR
STARTCHAR 0166
ENCODING 358
SWIDTH 500 0
DWIDTH 25 0
BBX 21 31 8 0
BITMAP
FFFFF8
FFFFF8
FFFFF8
FFFFF8
00F000
00F000
01E000
01E000
01E000
01E000
03C000
03C000
03C000
7FFE00
7FFC00
7FFC00
FFFC00
078000
0F8000
0F0000
0F0000
0F0000
1F0000
1E0000
1E0000
1E0000
3E0000
3C0000
3C0000
3C0000
3C0000
ENDCHAR
STARTCHAR 0167
ENCODING 359
SWIDTH 500 0
DWIDTH 25 0
BBX 20 31 5 -1
BITMAP
007800
007800
007800
00F800
00F000
00F000
00F000
1FFFF0
3FFFF0
3FFFF0
01E000
03E000
03C000
03C000
03C000
07C000
FFFFC0
FFFFC0
FFFFC0
0F8000
0F0000
0F0000
0F0000
0F0000
0F0000
0F0000
0F8180
0FFF80
07FF80
03FF00
002000
ENDCHAR
STARTCHAR 0168
ENCODING 360
SWIDTH 500 0
DWIDTH 25 0
BBX 25 41 4 -1
BITMAP
00000400
001F8700
003FFE00
007FFC00
0060F800
00200000
00000000
00000000
00000000
07800780
07800F00
07800F00
0F000F00
0F000F00
0F001F00
0F001E00
1F001E00
1E001E00
1E003E00
1E003C00
3E003C00
3C003C00
3C007C00
3C007800
7C007800
78007800
7800F800
7800F000
7800F000
F000F000
F001F000
F001E000
F001E000
F003E000
F803C000
7807C000
7C0F8000
7FFF0000
3FFE0000
0FFC0000
03C00000
ENDCHAR
STARTCHAR 0169
ENCODING 361
SWIDTH 500 0
DWIDTH 25 0
BBX 22 34 4 -1
BITMAP
000010
007E1C
00FFF8
01FFF8
01C3E0
008000
000000
000000
000000
000000
0F007C
1E0078
1E0078
1E0078
1E0078
3C00F0
3C00F0
3C00F0
3C00F0
7C01E0
7801E0
7801E0
7801E0
F803C0
F003C0
F003C0
F003C0
F007C0
F80FC0
7C1FC0
7FFFC0
3FFBC0
1FF1C0
030000
ENDCHAR
STARTCHAR 016A
ENCODING 362
SWIDTH 500 0
DWIDTH 25 0
BBX 25 40 4 -1
BITMAP
003FFE00
003FFE00
003FFC00
003FFC00
00000000
00000000
00000000
00000000
07800780
07800F00
07800F00
0F000F00
0F000F00
0F001F00
0F001E00
1F001E00
1E001E00
1E003E00
1E003C00
3E003C00
3C003C00
3C007C00
3C007800
7C007800
78007800
7800F800
7800F000
7800F000
F000F000
F001F000
F001E000
F001E000
F003E000
F803C000
7807C000
7C0F8000
7FFF0000
3FFE0000
0FFC0000
03C00000
ENDCHAR
STARTCHAR 016B
ENCODING 363
SWIDTH 500 0
DWIDTH 25 0
BBX 22 33 4 -1
BITMAP
00FFF8
00FFF8
00FFF0
000000
000000
000000
000000
000000
000000
0F007C
1E0078
1E0078
1E0078
1E0078
3C00F0
3C00F0
3C00F0
3C00F0
7C01E0
7801E0
7801E0
7801E0
F803C0
F003C0
F003C0
F003C0
F007C0
F80FC0
7C1FC0
7FFFC0
3FFBC0
1FF1C0
030000
ENDCHAR
STARTCHAR 016C
ENCODING 364
SWIDTH 500 0
DWIDTH 25 0
BBX 25 41 4 -1
BITMAP
001C0E00
001C1E00
001E3C00
000FF800
000FF000
0003C000
00000000
00000000
00000000
07800780
07800F00
07800F00
0F000F00
0F000F00
0F001F00
0F001E00
1F001E00
1E001E00
1E003E00
1E003C00
3E003C00
3C003C00
3C007C00
3C007800
7C007800
78007800
7800F800
7800F000
7800F000
F000F000
F001F000
F001E000
F001E000
F003E000
F803C000
7807C000
7C0F8000
7FFF0000
3FFE0000
0FFC0000
03C00000
ENDCHAR
STARTCHAR 016D
ENCODING 365
SWIDTH 500 0
DWIDTH 25 0
BBX 22 34 4 -1
BITMAP
007038
007078
0078F0
003FF0
001FC0
000700
000000
000000
000000
000000
0F007C
1E0078
1E0078
1E0078
1E0078
3C00F0
3C00F0
3C00F0
3C00F0
7C01E0
7801E0
7801E0
7801E0
F803C0
F003C0
F003C0
F003C0
F007C0
F80FC0
7C1FC0
7FFFC0
3FFBC0
1FF1C0
030000
ENDCHAR
STARTCHAR 016E
ENCODING 366
SWIDTH 500 0
DWIDTH 25 0
BBX 25 43 4 -1
BITMAP
0001C000
0007E000
000E7000
000C3800
000C3800
000C3800
000C3000
000FF000
0007E000
00000000
00000000
07800780
07800F00
07800F00
0F000F00
0F000F00
0F001F00
0F001E00
1F001E00
1E001E00
1E003E00
1E003C00
3E003C00
3C003C00
3C007C00
3C007800
7C007800
78007800
7800F800
7800F000
7800F000
F000F000
F001F000
F001E000
F001E000
F003E000
F803C000
7807C000
7C0F8000
7FFF0000
3FFE0000
0FFC0000
03C00000
ENDCHAR
STARTCHAR 016F
ENCODING 367
SWIDTH 500 0
DWIDTH 25 0
BBX 22 36 4 -1
BITMAP
000700
001FC0
0039C0
0030E0
003060
003060
0038E0
001FC0
000F80
000000
000000
000000
0F007C
1E0078
1E0078
1E0078
1E0078
3C00F0
3C00F0
3C00F0
3C00F0
7C01E0
7801E0
7801E0
7801E0
F803C0
F003C0
F003C0
F003C0
F007C0
F80FC0
7C1FC0
7FFFC0
3FFBC0
1FF1C0
030000
ENDCHAR
STARTCHAR 0170
ENCODING 368
SWIDTH 500 0
DWIDTH 25 0
BBX 25 42 4 0
BITMAP
00030200
00078700
000F8F80
001F1F00
003E3E00
003C7800
00787000
00202000
00000000
00000000
07800780
07800F00
07800F00
0F000F00
0F000F00
0F001F00
0F001E00
1F001E00
1E001E00
1E003E00
1E003C00
3E003C00
3C003C00
3C007C00
3C007800
7C007800
78007800
7800F800
7800F000
7800F000
F000F000
F001F000
F001E000
F001E000
F003E000
F803C000
7807C000
7C0F8000
7FFF0000
3FFE0000
0FFC0000
03C00000
ENDCHAR
STARTCHAR 0171
ENCODING 369
SWIDTH 500 0
DWIDTH 25 0
BBX 23 35 4 0
BITMAP
000C08
001E1C
003E3E
007C78
00F8F0
01F1E0
01C3C0
008180
000000
000000
000000
0F007C
1E0078
1E0078
1E0078
1E0078
3C00F0
3C00F0
3C00F0
3C00F0
7C01E0
7801E0
7801E0
7801E0
F803C0
F003C0
F003C0
F003C0
F007C0
F80FC0
7C1FC0
7FFFC0
3FFBC0
1FF1C0
030000
ENDCHAR
STARTCHAR 0172
ENCODING 370
SWIDTH 500 0
DWIDTH 25 0
BBX 25 39 4 -8
BITMAP
07800780
07800F00
07800F00
0F000F00
0F000F00
0F001F00
0F001E00
1F001E00
1E001E00
1E003E00
1E003C00
3E003C00
3C003C00
3C007C00
3C007800
7C007800
78007800
7800F800
7800F000
7800F000
F000F000
F001F000
F001E000
F001E000
F003E000
F803C000
7807C000
7C0F8000
7FFF0000
3FFE0000
0FFC0000
03F80000
01E00000
03C00000
07800000
07800000
07F00000
07F00000
03F00000
ENDCHAR
STARTCHAR 0173
ENCODING 371
SWIDTH 500 0
DWIDTH 25 0
BBX 22 31 4 -8
BITMAP
0F007C
1E0078
1E0078
1E0078
1E0078
3C00F0
3C00F0
3C00F0
3C00F0
7C01E0
7801E0
7801E0
7801E0
F803C0
F003C0
F003C0
F003C0
F007C0
F80FC0
7C1FC0
7FFFC0
3FFBC0
1FF3C0
030780
000F00
001E00
003C00
003C00
003F80
003F80
001F80
ENDCHAR
STARTCHAR 0174
ENCODING 372
SWIDTH 500 0
DWIDTH 25 0
BBX 27 41 3 0
BITMAP
00006000
0000E000
0001F000
0003F800
0007BC00
001F1C00
001C1E00
00080C00
00000000
00000000
078001E0
078001E0
078003C0
0F0003C0
0F0003C0
0F000380
0F000780
0F000780
1E000780
1E000700
1E000F00
1E000F00
1C1E0E00
1C3E1E00
3C3E1E00
3C7E1C00
387E1C00
38EE3C00
38E63C00
39C63800
7BC73800
73877800
77077000
77077000
7E07F000
7E07E000
FC07E000
FC07C000
F807C000
F807C000
F0078000
ENDCHAR
STARTCHAR 0175
ENCODING 373
SWIDTH 500 0
DWIDTH 25 0
BBX 25 34 4 0
BITMAP
00018000
0003C000
0007C000
000FE000
001EF000
007C7000
00303800
00201000
00000000
00000000
00000000
3C000780
38000F00
78000F00
78000F00
78000E00
781C1E00
783C1E00
783C1C00
707C3C00
70FC3800
70FC7800
71FC7800
F1DC7000
F39CF000
F39CE000
F71DE000
FF1FE000
FE0FC000
FC0FC000
FC0F8000
F80F8000
F00F0000
F00F0000
ENDCHAR
STARTCHAR 0176
ENCODING 374
SWIDTH 500 0
DWIDTH 25 0
BBX 24 41 7 0
BITMAP
000200
000700
001F80
003F80
007FC0
00F1E0
00E0E0
000040
000000
000000
F0001F
78001E
78003E
78007C
780078
7800F8
3C01F0
3C01E0
3C03C0
3C07C0
1E0780
1E0F00
1E1E00
1E3E00
0F3C00
0F7800
0FF000
07E000
07C000
03C000
078000
078000
078000
078000
0F0000
0F0000
0F0000
0F0000
1F0000
1E0000
1E0000
ENDCHAR
STARTCHAR 0177
ENCODING 375
SWIDTH 500 0
DWIDTH 25 0
BBX 28 42 -1 -8
BITMAP
00001800
00003800
00007C00
0001FE00
0003FE00
00078F00
00070700
00020200
00000000
00000000
00000000
00F001F0
00F001E0
00F001E0
00F003E0
00F003C0
00F003C0
00F80780
00780780
00780F80
00780F00
00780F00
00781E00
007C1E00
003C3C00
003C3C00
003C7800
003C7800
001EF000
001EF000
001FE000
001FC000
000FC000
000F8000
000F0000
001F0000
003E0000
007C0000
41F80000
7FF00000
FFE00000
FF800000
ENDCHAR
STARTCHAR 0178
ENCODING 376
SWIDTH 500 0
DWIDTH 25 0
BBX 24 40 7 0
BITMAP
00C060
01E1F0
03F1F0
03E1F0
01E1E0
008000
000000
000000
000000
F0001F
78001E
78003E
78007C
780078
7800F8
3C01F0
3C01E0
3C03C0
3C07C0
1E0780
1E0F00
1E1E00
1E3E00
0F3C00
0F7800
0FF000
07E000
07C000
03C000
078000
078000
078000
078000
0F0000
0F0000
0F0000
0F0000
1F0000
1E0000
1E0000
ENDCHAR
STARTCHAR 0179
ENCODING 377
SWIDTH 500 0
DWIDTH 25 0
BBX 26 41 2 1
BITMAP
00000600
00000E00
00001F00
00003E00
00007C00
0000F800
0001E000
0000C000
00000000
00000000
00FFFFC0
01FFFFC0
01FFFFC0
01FFFFC0
00000F80
00001F00
00003E00
00007C00
0000F800
0000F000
0001E000
0003C000
0007C000
000F8000
001F0000
003E0000
003C0000
00780000
00F00000
01F00000
03E00000
07C00000
07800000
0F000000
1F000000
3E000000
7C000000
7FFFF800
FFFFF000
FFFFF000
FFFFF000
ENDCHAR
STARTCHAR 017A
ENCODING 378
SWIDTH 500 0
DWIDTH 25 0
BBX 22 34 3 1
BITMAP
000030
000078
0000F8
0001F8
0003E0
0007C0
000F80
000600
000000
000000
000000
03FFFC
03FFFC
07FFFC
0000F8
0001F0
0003E0
0007C0
000F80
001F00
003E00
007C00
00F800
01F000
03E000
07C000
0F8000
1F0000
1E0000
3C0000
7FFFC0
FFFFC0
FFFFC0
FFFF80
ENDCHAR
STARTCHAR 017B
ENCODING 379
SWIDTH 500 0
DWIDTH 25 0
BBX 26 40 2 0
BITMAP
00007000
0000F000
0001F800
0001F800
0000F000
00006000
00000000
00000000
00000000
00FFFFC0
01FFFFC0
01FFFFC0
01FFFFC0
00000F80
00001F00
00003E00
00007C00
0000F800
0000F000
0001E000
0003C000
0007C000
000F8000
001F0000
003E0000
003C0000
00780000
00F00000
01F00000
03E00000
07C00000
07800000
0F000000
1F000000
3E000000
7C000000
7FFFF800
FFFFF000
FFFFF000
FFFFF000
ENDCHAR
STARTCHAR 017C
ENCODING 380
SWIDTH 500 0
DWIDTH 25 0
BBX 22 33 3 0
BITMAP
0001C0
0003E0
0003E0
0007E0
0003C0
000100
000000
000000
000000
000000
03FFFC
03FFFC
07FFFC
0000F8
0001F0
0003E0
0007C0
000F80
001F00
003E00
007C00
00F800
01F000
03E000
07C000
0F8000
1F0000
1E0000
3C0000
7FFFC0
FFFFC0
FFFFC0
FFFF80
ENDCHAR
STARTCHAR 017D
ENCODING 381
SWIDTH 500 0
DWIDTH 25 0
BBX 26 41 2 1
BITMAP
00030300
00078780
0003CF00
0001FE00
0001FC00
0000F800
00006000
00004000
00000000
00000000
00FFFFC0
01FFFFC0
01FFFFC0
01FFFFC0
00000F80
00001F00
00003E00
00007C00
0000F800
0000F000
0001E000
0003C000
0007C000
000F8000
001F0000
003E0000
003C0000
00780000
00F00000
01F00000
03E00000
07C00000
07800000
0F000000
1F000000
3E000000
7C000000
7FFFF800
FFFFF000
FFFFF000
FFFFF000
ENDCHAR
STARTCHAR 017E
ENCODING 382
SWIDTH 500 0
DWIDTH 25 0
BBX 22 34 3 1
BITMAP
001818
003C3C
001E78
000FF0
000FE0
0007C0
000380
000000
000000
000000
000000
03FFFC
03FFFC
07FFFC
0000F8
0001F0
0003E0
0007C0
000F80
001F00
003E00
007C00
00F800
01F000
03E000
07C000
0F8000
1F0000
1E0000
3C0000
7FFFC0
FFFFC0
FFFFC0
FFFF80
ENDCHAR
STARTCHAR 017F
ENCODING 383
SWIDTH 500 0
DWIDTH 25 0
BBX 30 43 0 -8
BITMAP
000001C0
00001FFC
00003FF8
00007FF8
0000FC00
0000F000
0001F000
0001E000
0001E000
0003C000
0003C000
0003C000
0003C000
0007C000
00078000
00078000
00078000
00078000
000F0000
000F0000
000F0000
000F0000
000F0000
001E0000
001E0000
001E0000
001E0000
003E0000
003C0000
003C0000
003C0000
003C0000
007C0000
00780000
00780000
00780000
00F80000
00F00000
01F00000
43E00000
7FE00000
7FC00000
FF000000
ENDCHAR
STARTCHAR 0180
ENCODING 384
SWIDTH 500 0
DWIDTH 25 0
BBX 22 36 4 -1
BITMAP
001000
01F000
01E000
01E000
1FFFC0
1FFFC0
1FFFC0
1FFFC0
03C000
07C000
078000
078F00
07FFE0
0FFFF0
0FFFF0
0FC0F8
0F0078
0F007C
1E007C
1E003C
1E003C
1E007C
3C0078
3C0078
3C0078
3C00F8
7800F0
7801F0
7803E0
7807E0
F00FC0
F07F80
FFFF00
FFFC00
FFF000
040000
ENDCHAR
STARTCHAR 0181
ENCODING 385
SWIDTH 500 0
DWIDTH 25 0
BBX 22 31 5 0
BITMAP
03FF80
1FFFE0
3FFFF0
7EF1F8
78F078
F0F07C
F1E07C
F1E07C
E1E078
01E078
03C078
03C0F0
03C1E0
03FFC0
07FF00
07FFC0
07FFE0
0783E0
0F81E0
0F00F0
0F00F0
0F00F0
0F01F0
1E01E0
1E01E0
1E03E0
1E07C0
3C1FC0
3FFF80
3FFE00
3FF800
ENDCHAR
STARTCHAR 0182
ENCODING 386
SWIDTH 500 0
DWIDTH 25 0
BBX 23 31 3 0
BITMAP
01FFFE
01FFFE
03FFFE
03FFFC
03C000
03C000
07C000
078000
078000
078000
0F8000
0F0000
0FFF00
0FFFC0
1FFFF0
1E07F0
1E00F8
1E00F8
1E0078
3C0078
3C0078
3C0078
3C0078
7800F8
7800F0
7801F0
7803E0
F03FE0
FFFF80
FFFF00
FFF800
ENDCHAR
STARTCHAR 0183
ENCODING 387
SWIDTH 500 0
DWIDTH 25 0
BBX 24 35 3 -1
BITMAP
00FFFF
00FFFF
01FFFF
01E000
01E000
01E000
03E000
03C000
03C000
03C000
07CF80
07BFE0
07FFF0
07FFF8
07C0FC
0F007C
0F003C
0F003C
0F003C
1E003C
1E003C
1E003C
1E003C
3C007C
3C0078
3C00F8
3C00F0
7C01F0
7803E0
780FC0
783F80
7FFF00
FFFE00
7FF000
020000
ENDCHAR
STARTCHAR 0184
ENCODING 388
SWIDTH 500 0
DWIDTH 25 0
BBX 22 36 4 -1
BITMAP
001000
00F000
03E000
0FE000
07E000
07E000
03C000
03C000
03C000
07C000
078000
078F00
07FFE0
07FFF0
0FFFF0
0FC0F8
0F0078
0F007C
1E007C
1E003C
1E003C
1E007C
3C0078
3C0078
3C0078
3C00F8
7800F0
7801F0
7803E0
7807E0
F00FC0
F07F80
FFFF00
FFFC00
FFF000
040000
ENDCHAR
STARTCHAR 0185
ENCODING 389
SWIDTH 500 0
DWIDTH 25 0
BBX 21 31 4 0
BITMAP
00E000
03E000
0FC000
1FC000
0FC000
07C000
078000
078000
078000
078000
0F0000
0FFE00
0FFF80
0FFFE0
1FFFF0
1E01F0
1E00F8
1E0078
3E0078
3C0078
3C0078
3C0078
7C0078
7800F8
7800F0
7801F0
F807E0
F03FC0
FFFF80
FFFE00
FFF800
ENDCHAR
STARTCHAR 0186
ENCODING 390
SWIDTH 500 0
DWIDTH 25 0
BBX 24 33 3 -1
BITMAP
000F00
00FFE0
03FFF0
03FFF8
01C0FC
00007C
00003E
00001E
00001E
00001E
00001F
00001F
00001F
00001F
00001E
00001E
00001E
00001E
00003E
00003E
00003C
00007C
000078
0000F8
0001F0
0001F0
0003E0
400FC0
703F80
FFFF00
FFFE00
7FF800
070000
ENDCHAR
STARTCHAR 0187
ENCODING 391
SWIDTH 500 0
DWIDTH 25 0
BBX 28 36 4 -1
BITMAP
000001F0
000003F0
000007E0
0000EF20
000FFE00
003FFE00
00FFFC00
01FC1C00
03F00000
07C00000
07800000
0F800000
1F000000
1E000000
3E000000
3C000000
3C000000
7C000000
78000000
78000000
78000000
78000000
78000000
F8000000
F8000000
F8000000
78000000
78000000
78000000
7C000000
3E008000
3F038000
1FFF8000
0FFF8000
07FE0000
00E00000
ENDCHAR
STARTCHAR 0188
ENCODING 392
SWIDTH 500 0
DWIDTH 25 0
BBX 25 29 4 -1
BITMAP
00000F80
00003F80
00007F80
00007800
000FF000
00FFE000
03FFE000
07FFC000
0FC00000
1F800000
3E000000
3E000000
7C000000
78000000
78000000
F8000000
F0000000
F0000000
F0000000
F0000000
F0000000
F0000000
F8000000
78000000
7E060000
3FFE0000
1FFE0000
0FFE0000
00C00000
ENDCHAR
STARTCHAR 0189
ENCODING 393
SWIDTH 500 0
DWIDTH 25 0
BBX 23 31 3 0
BITMAP
00FFC0
01FFE0
01FFF0
01E1F8
01E07C
03E03C
03C03E
03C03E
03C01E
03C01E
07801E
07801E
07801E
7FF81E
7FF01E
7FF01E
FFF03E
0F003C
1E003C
1E007C
1E0078
1E0078
3E00F8
3C01F0
3C03E0
3C07E0
7C0FC0
7C7F80
7FFE00
7FFC00
7FF000
ENDCHAR
STARTCHAR 018A
ENCODING 394
SWIDTH 500 0
DWIDTH 25 0
BBX 22 31 5 0
BITMAP
03FF00
0FFFC0
3FFFE0
7EF3F0
78F0F8
F0F078
F1F078
F1E07C
E1E03C
01E03C
03E03C
03C03C
03C03C
03C03C
07C03C
07807C
078078
078078
0F8078
0F00F8
0F00F0
0F01F0
0F01F0
1E03E0
1E03C0
1E07C0
1E0F80
3C7F00
3FFE00
3FF800
3FE000
ENDCHAR
STARTCHAR 018B
ENCODING 395
SWIDTH 500 0
DWIDTH 25 0
BBX 24 31 4 0
BITMAP
01FFFF
01FFFF
01FFFF
03FFFF
00001F
00001E
00001E
00001E
00003E
00003C
00003C
00003C
00FFFC
03FFF8
0FFFF8
1FE078
3F0078
7C00F0
7800F0
F800F0
F000F0
F001E0
F001E0
F001E0
F001E0
F803C0
F803C0
7F03C0
3FFFC0
1FFF80
07FF80
ENDCHAR
STARTCHAR 018C
ENCODING 396
SWIDTH 500 0
DWIDTH 25 0
BBX 25 35 4 -1
BITMAP
007FFF80
007FFF80
00FFFF00
00000F00
00000F00
00001F00
00001E00
00001E00
00001E00
00001E00
0003FC00
003FFC00
00FFFC00
03FFFC00
07E07800
0F807800
1F007800
3E007800
3C00F000
7C00F000
7800F000
7800F000
F801E000
F001E000
F001E000
F001E000
F003E000
F003C000
F803C000
F807C000
7C1FC000
7FFFC000
3FFDE000
1FF1E000
03000000
ENDCHAR
STARTCHAR 018D
ENCODING 397
SWIDTH 500 0
DWIDTH 25 0
BBX 23 32 2 -8
BITMAP
0007C0
007FF0
00FFF8
01FFFC
03F07C
07C03E
0F801E
0F801E
0F001E
1F001E
1E001E
1E001E
1E001E
1E003C
1E003C
1F0078
0F00F8
0F81F0
07C7E0
03FF80
01FF00
00FC00
007E00
001F00
000F00
000F00
000F00
000F00
601F00
FFFE00
FFFC00
7FF800
ENDCHAR
STARTCHAR 018E
ENCODING 398
SWIDTH 500 0
DWIDTH 25 0
BBX 25 31 2 0
BITMAP
00FFFF80
00FFFF80
00FFFF80
01FFFF80
00000F00
00000F00
00000F00
00000F00
00001E00
00001E00
00001E00
00001E00
00003E00
01FFFC00
03FFFC00
03FFFC00
03FFFC00
00007800
00007800
00007800
0000F800
0000F000
0000F000
0000F000
0001F000
0001E000
0001E000
FFFFE000
FFFFE000
FFFFC000
FFFFC000
ENDCHAR
STARTCHAR 018F
ENCODING 399
SWIDTH 500 0
DWIDTH 25 0
BBX 23 33 4 -1
BITMAP
001E00
01FFC0
07FFE0
07FFF0
0701F8
04007C
00007C
00003C
00003C
00003E
00001E
00001E
00001E
00001E
00001E
7FFFFE
7FFFFC
FFFFFC
FFFFFC
F0003C
F0007C
F00078
F000F8
F000F0
F001F0
F001E0
F003E0
F807C0
7C1F80
7FFF00
3FFE00
1FF800
038000
ENDCHAR
STARTCHAR 0190
ENCODING 400
SWIDTH 500 0
DWIDTH 25 0
BBX 25 32 4 0
BITMAP
001FFE00
007FFF80
00FFFF00
01F80E00
03E00000
07C00000
07800000
07800000
07800000
07800000
07800000
07C00000
03F00000
01FFC000
00FFC000
03FFC000
0FFC0000
1F800000
3E000000
7C000000
78000000
F0000000
F0000000
F0000000
F0000000
F8000000
F8002000
7E01E000
3FFFE000
1FFFE000
0FFFC000
00780000
ENDCHAR
STARTCHAR 0191
ENCODING 401
SWIDTH 500 0
DWIDTH 25 0
BBX 31 39 -3 -8
BITMAP
0003FFFE
0003FFFE
0007FFFE
0007FFFE
00078000
00078000
000F8000
000F0000
000F0000
000F0000
000F0000
001E0000
001E0000
001FFFE0
001FFFC0
003FFFC0
003FFFC0
003C0000
003C0000
00780000
00780000
00780000
00780000
00F00000
00F00000
00F00000
00F00000
01F00000
01E00000
01E00000
01E00000
03E00000
03C00000
03C00000
07C00000
0F800000
FF800000
FF000000
FE000000
ENDCHAR
STARTCHAR 0192
ENCODING 402
SWIDTH 500 0
DWIDTH 25 0
BBX 30 43 0 -8
BITMAP
000001C0
00001FFC
00003FF8
00007FF8
0000FC00
0000F000
0001F000
0001E000
0001E000
0003C000
0003C000
0003C000
007FFFE0
00FFFFE0
00FFFFE0
00078000
00078000
00078000
000F8000
000F0000
000F0000
000F0000
001F0000
001E0000
001E0000
001E0000
001E0000
003E0000
003C0000
003C0000
003C0000
003C0000
007C0000
00780000
00780000
00780000
00F80000
00F00000
01F00000
43E00000
7FE00000
7FC00000
FF000000
ENDCHAR
STARTCHAR 0193
ENCODING 403
SWIDTH 500 0
DWIDTH 25 0
BBX 28 36 4 -1
BITMAP
000003F0
000007E0
00000FE0
0001CF00
003FFE00
007FFC00
01FFFC00
03F81800
07E00000
0F800000
0F000000
1F000000
1E000000
3C000000
3C000000
78000000
78000000
78000000
78000000
F0000000
F0007800
F000F800
F000F000
F000F000
F000F000
F001F000
F001E000
F801E000
F801E000
7803E000
7C03C000
3F03C000
3FFFC000
1FFFC000
07FF8000
00F00000
ENDCHAR
STARTCHAR 0194
ENCODING 404
SWIDTH 500 0
DWIDTH 25 0
BBX 25 39 5 -8
BITMAP
3C000780
3E000780
3E000F00
1E001F00
1E001E00
1E003C00
1E003C00
1E007800
1F00F800
0F00F000
0F01E000
0F03E000
0F03C000
07078000
07878000
078F0000
079E0000
079E0000
03BC0000
03F80000
03F80000
03F00000
01E00000
03E00000
07E00000
07F00000
0FF00000
1FF00000
3E700000
3C780000
78780000
78780000
70780000
F0780000
F0780000
F8F00000
7FF00000
7FE00000
1F800000
ENDCHAR
STARTCHAR 0195
ENCODING 405
SWIDTH 500 0
DWIDTH 25 0
BBX 27 36 1 -1
BITMAP
00080000
00F00000
00F00000
00F00000
00F00000
01E00000
01E00000
01E00000
01E00000
03C00000
03C00000
03DE0000
03FF01E0
07FF03C0
07FF83C0
078783C0
078783C0
0F078780
0F078780
0F070780
0F0F0780
0F0F0F00
1E0F0F00
1E0E0F00
1E1E0F00
1E1E1F00
3C1C1E00
3C1C1E00
3C3C1E00
3C3C3C00
783C3C00
783E7C00
781FF800
781FF000
F00FE000
00030000
ENDCHAR
STARTCHAR 0196
ENCODING 406
SWIDTH 500 0
DWIDTH 25 0
BBX 16 32 10 -1
BITMAP
FFFF
FFFF
FFFF
FFFF
0780
0780
0F00
0F00
0F00
0F00
1E00
1E00
1E00
1E00
3E00
3C00
3C00
3C00
7C00
7800
7800
7800
F800
F000
F000
F000
F000
F810
FFF0
7FF0
3FF0
0780
ENDCHAR
STARTCHAR 0197
ENCODING 407
SWIDTH 500 0
DWIDTH 25 0
BBX 23 31 4 0
BITMAP
01FFFE
01FFFE
03FFFE
03FFFC
000F00
000F00
001F00
001E00
001E00
001E00
003E00
003C00
003C00
07FFC0
07FFC0
07FFC0
0FFFC0
007800
007800
00F000
00F000
00F000
00F000
01E000
01E000
01E000
01E000
FFFF80
FFFF00
FFFF00
FFFF00
ENDCHAR
STARTCHAR 0198
ENCODING 408
SWIDTH 500 0
DWIDTH 25 0
BBX 29 31 2 1
BITMAP
00F007F0
01E00FF8
01E01FF8
01E03E30
01E07C00
03C0F800
03C1F000
03C3E000
03C3C000
07878000
078F0000
079F0000
07BE0000
0FFC0000
0FF80000
0FF80000
0FFC0000
1F7C0000
1E3E0000
1E1F0000
1E0F0000
1E0F8000
3C078000
3C03C000
3C03C000
3C01E000
7801E000
7801F000
7800F000
7800F800
F0007800
ENDCHAR
STARTCHAR 0199
ENCODING 409
SWIDTH 500 0
DWIDTH 25 0
BBX 24 35 3 0
BITMAP
000700
003F80
007F80
00FF80
00F000
01F000
01E000
01E000
03E000
03C000
03C000
03C000
03C01F
07807C
0780F8
0781F0
0783E0
0F0FC0
0F1F80
0F3E00
0FFC00
1FF800
1FF000
1FF800
1EF800
3E7C00
3C3E00
3C1F00
3C0F00
7C0F80
7807C0
7803C0
7803E0
7801E0
F001F0
ENDCHAR
STARTCHAR 019A
ENCODING 410
SWIDTH 500 0
DWIDTH 25 0
BBX 19 35 5 -1
BITMAP
07FE00
0FFE00
0FFE00
001E00
003C00
003C00
003C00
003C00
007800
007800
007800
007800
00F000
00F000
7FFFE0
7FFFC0
7FFFC0
FFFFC0
01E000
01E000
03E000
03C000
03C000
03C000
07C000
078000
078000
078000
078000
078000
07C180
07FF80
03FF80
01FF80
001800
ENDCHAR
STARTCHAR 019B
ENCODING 411
SWIDTH 500 0
DWIDTH 25 0
BBX 23 35 2 0
BITMAP
00F000
01FE00
01FE00
01FF00
000F9C
0007FE
000FFC
007FC0
00FFC0
00F3C0
0003C0
0003C0
0007C0
0007C0
000FE0
001FE0
003FE0
003DE0
0079E0
00F1E0
01F0E0
01E0E0
03C0F0
07C0F0
0780F0
0F80F0
0F00F0
1E00F0
1E00F0
3C00F0
3C00F0
7800F0
7800F0
F000F0
F000F0
ENDCHAR
STARTCHAR 019C
ENCODING 412
SWIDTH 500 0
DWIDTH 25 0
BBX 26 32 3 -1
BITMAP
038003C0
078003C0
07800380
07800780
07000780
0F000780
0F000700
0F000F00
0F000F00
0E000F00
1E000F00
1E000E00
1E1E1E00
1C1E1E00
3C1C1E00
3C3C1C00
3C3C3C00
383C3C00
78383C00
78783800
78787800
70787800
F0707800
F0F07000
F0F0F000
F0F0F000
E0F0F000
F1F0E000
FFFFE000
FFFFE000
7F7FE000
1C0C0000
ENDCHAR
STARTCHAR 019D
ENCODING 413
SWIDTH 500 0
DWIDTH 25 0
BBX 34 39 -5 -8
BITMAP
0003E003C0
0003E003C0
0003E00380
0003F00780
0007F00780
0007F00780
0007F80700
0007780F00
000F780F00
000F380F00
000F3C0E00
000E3C1E00
001E1C1E00
001E1E1E00
001E1E1C00
001C1E3C00
001C0E3C00
003C0F3C00
003C0F3C00
003C0F7800
0038077800
0078077800
007807F800
007807F000
007003F000
00F003F000
00F003F000
00F003E000
00E003E000
01E001E000
01E001E000
01E0000000
01C0000000
03C0000000
03C0000000
0780000000
7F80000000
FF00000000
FE00000000
ENDCHAR
STARTCHAR 019E
ENCODING 414
SWIDTH 500 0
DWIDTH 25 0
BBX 22 32 3 -8
BITMAP
000F00
03FFE0
07FFF0
07FFF8
0780F8
078078
0F007C
0F003C
0F003C
0F007C
1F0078
1E0078
1E0078
1E0078
3E00F0
3C00F0
3C00F0
3C00F0
7C01E0
7801E0
7801E0
7801E0
7803E0
F003C0
0003C0
0003C0
0007C0
000780
000780
000780
000F80
000F00
ENDCHAR
STARTCHAR 019F
ENCODING 415
SWIDTH 500 0
DWIDTH 25 0
BBX 23 33 4 -1
BITMAP
000700
003FE0
00FFF0
01FFF8
03F0FC
07C03C
0F803C
0F003E
1F001E
1E001E
3E001E
3C001E
3C001E
78003E
78003C
7FFFFC
FFFFFC
FFFFFC
F0003C
F00078
F00078
F00078
F000F0
F000F0
F001E0
F003E0
F803C0
F80780
7C1F80
7FFF00
3FFC00
0FF800
038000
ENDCHAR
STARTCHAR 01A0
ENCODING 416
SWIDTH 500 0
DWIDTH 25 0
BBX 27 37 4 -1
BITMAP
000001E0
000001E0
000003E0
000003C0
000703C0
003FE780
00FFFF80
01FFFF00
03E0FE00
07C07C00
0F807C00
0F003C00
1E003C00
1E003C00
3C003C00
3C003C00
3C003C00
78003C00
78003C00
78003C00
F8007800
F0007800
F0007800
F0007800
F000F000
F000F000
F000F000
F001E000
F003E000
F003C000
F007C000
F80F8000
7C1F0000
7FFE0000
3FFC0000
1FF00000
03C00000
ENDCHAR
STARTCHAR 01A1
ENCODING 417
SWIDTH 500 0
DWIDTH 25 0
BBX 25 29 4 -1
BITMAP
00000780
00000780
00000780
00000F00
001E0F00
00FF9F00
03FFFE00
07FFFC00
0FC1F800
1F00F000
1E00F000
3E00F000
3C00F000
7C00F000
7800F000
7800F000
F800F000
F000F000
F001E000
F001E000
F003E000
F003C000
F007C000
F80F8000
7C3F0000
7FFE0000
3FFC0000
1FF00000
01800000
ENDCHAR
STARTCHAR 01A2
ENCODING 418
SWIDTH 500 0
DWIDTH 25 0
BBX 25 33 3 -1
BITMAP
00380800
00FEFF00
01FFFF00
03FFFF80
07CF8780
0F878780
0F078780
1F078780
1E078780
1E078F00
3C078F00
3C078F00
3C078F00
78079E00
780F1E00
780F1E00
780F1E00
F00F3C00
F00F3C00
F01E3C00
F01E3C00
F01E3800
F03C7800
F03C7800
F03C7800
F0787000
F078F000
F0F0F000
F1F0F000
FFE0F000
7FC1E000
3F81E000
08000000
ENDCHAR
STARTCHAR 01A3
ENCODING 419
SWIDTH 500 0
DWIDTH 25 0
BBX 23 32 3 -8
BITMAP
01C0F0
07FBFC
0FFFFC
1FFFFC
1E3E3E
3C3C1E
3C1C1E
781C1E
781C3C
783C3C
703C3C
F03C3C
F03C3C
F03C78
F03C78
F07878
F07878
F078F0
F0F0F0
F0F0F0
F1E0F0
FFE1E0
7FC1E0
3F01E0
0001E0
0003C0
0003C0
0003C0
0003C0
000780
000780
000780
ENDCHAR
STARTCHAR 01A4
ENCODING 420
SWIDTH 500 0
DWIDTH 25 0
BBX 22 31 5 0
BITMAP
03FFC0
1FFFF0
3FFFF8
7EF0F8
78F07C
F0F03C
F1F03C
F1E03C
E1E03C
01E03C
03E03C
03C03C
03C07C
03C078
07C0F8
0783F0
07FFE0
07FFC0
0FFF00
0F0000
0F0000
0F0000
1F0000
1E0000
1E0000
1E0000
1E0000
3C0000
3C0000
3C0000
3C0000
ENDCHAR
STARTCHAR 01A5
ENCODING 421
SWIDTH 500 0
DWIDTH 25 0
BBX 24 43 1 -8
BITMAP
0003C0
000FE0
001FE0
003FC0
007C00
007800
007800
00F800
00F000
00F000
00F000
01FFC0
01FFF8
01FFFC
01FFFE
01E03E
03C01F
03C00F
03C00F
03C00F
07C00F
07800F
07800F
07800F
0F801F
0F001E
0F003E
0F003E
1F007C
1E00F8
1E03F8
1E0FF0
3FFFC0
3FFF80
3FFE00
3C8000
7C0000
780000
780000
780000
780000
F00000
F00000
ENDCHAR
STARTCHAR 01A6
ENCODING 422
SWIDTH 500 0
DWIDTH 25 0
BBX 24 40 2 -5
BITMAP
00F800
00F000
00F000
00F000
00FFF0
01FFFC
01FFFE
01E07F
01E01F
03C00F
03C00F
03C00F
03C00F
07800F
07800F
07800F
07801E
0F803E
0F00FC
0FFFF8
0FFFF0
1FFFC0
1FFF00
1E0780
1E0780
1E03C0
3C03C0
3C03E0
3C01E0
3C01E0
7801F0
7800F0
7800F0
7800F8
F00078
000078
000078
00007C
00003C
00003C
ENDCHAR
STARTCHAR 01A7
ENCODING 423
SWIDTH 500 0
DWIDTH 25 0
BBX 23 33 4 -1
BITMAP
000F00
00FFF0
03FFF8
03FFFC
03C07C
02003E
00003E
00001E
00001E
00003C
00003C
00007C
0000F8
0003F0
001FE0
00FFC0
03FF00
0FF800
1FC000
3F0000
7C0000
780000
F80000
F00000
F00000
F00000
F00000
F80040
FC03C0
7FFFC0
3FFFC0
1FFF80
02F000
ENDCHAR
STARTCHAR 01A8
ENCODING 424
SWIDTH 500 0
DWIDTH 25 0
BBX 20 25 4 -1
BITMAP
00FE00
07FFC0
0FFFE0
0FFFF0
0401F0
0000F0
0000F0
0000F0
0001F0
0007E0
003FC0
01FF80
0FFE00
1FF000
3F8000
7C0000
F80000
F00000
F00000
F00000
F80380
7FFF80
7FFF80
1FFF00
00E000
ENDCHAR
STARTCHAR 01A9
ENCODING 425
SWIDTH 500 0
DWIDTH 25 0
BBX 28 31 1 0
BITMAP
00FFFFF0
00FFFFF0
01FFFFE0
00FFFFE0
00F00000
00780000
00780000
003C0000
003C0000
001E0000
001E0000
000F0000
000F8000
00078000
0007C000
0007C000
000F8000
001F0000
003E0000
007C0000
00F80000
01F00000
03C00000
07800000
0F000000
1E000000
3C000000
7FFFF800
FFFFF800
FFFFF800
FFFFF800
ENDCHAR
STARTCHAR 01AA
ENCODING 426
SWIDTH 500 0
DWIDTH 25 0
BBX 14 43 8 -8
BITMAP
0380
0FF0
3FF8
3EFC
783C
703C
F03C
F03C
F07C
F0FC
7FF8
7FF8
1F78
00F8
00F0
00F0
00F0
00F0
01E0
01E0
01E0
01E0
03E0
03C0
03C0
03C0
07C0
0780
0780
0780
0F80
0F00
0F00
0F00
1F00
1E00
1E00
1E00
1F00
0FC0
0FF8
07F8
03F0
ENDCHAR
STARTCHAR 01AB
ENCODING 427
SWIDTH 500 0
DWIDTH 25 0
BBX 20 38 6 -8
BITMAP
01F000
01E000
01E000
01E000
01E000
03C000
03C000
FFFFF0
FFFFF0
FFFFF0
078000
078000
078000
0F0000
0F0000
0F0000
0F0000
1F0000
1E0000
1E0000
1E0000
3E0000
3C0000
3C0000
3C0000
3E0000
3F0000
1FFF00
0FFF00
07FF00
000F00
000F00
000F00
001E00
003E00
03FC00
03F800
07F000
ENDCHAR
STARTCHAR 01AC
ENCODING 428
SWIDTH 500 0
DWIDTH 25 0
BBX 24 31 6 0
BITMAP
03FFFF
1FFFFF
3FFFFE
7FFFFE
781E00
F03E00
F03C00
F03C00
F03C00
007C00
007800
007800
007800
00F800
00F000
00F000
00F000
00F000
01E000
01E000
01E000
01E000
03C000
03C000
03C000
03C000
07C000
078000
078000
078000
0F8000
ENDCHAR
STARTCHAR 01AD
ENCODING 429
SWIDTH 500 0
DWIDTH 25 0
BBX 23 35 6 -1
BITMAP
0001E0
000FFE
003FFE
007FFC
007C04
00F800
00F000
01E000
01E000
01E000
03C000
03C000
7FFFE0
7FFFE0
FFFFC0
078000
078000
078000
0F0000
0F0000
0F0000
0F0000
1F0000
1E0000
1E0000
1E0000
3E0000
3C0000
3C0000
3C0000
3E0000
3F0600
1FFE00
1FFE00
0FFE00
ENDCHAR
STARTCHAR 01AE
ENCODING 430
SWIDTH 500 0
DWIDTH 25 0
BBX 21 39 8 -8
BITMAP
FFFFF8
FFFFF8
FFFFF8
FFFFF8
00F000
00F000
01E000
01E000
01E000
01E000
03C000
03C000
03C000
03C000
07C000
078000
078000
078000
0F8000
0F0000
0F0000
0F0000
1F0000
1E0000
1E0000
1E0000
3E0000
3C0000
3C0000
3C0000
3C0000
780000
780000
780000
780000
7C0000
7F8000
3F8000
1F8000
ENDCHAR
STARTCHAR 01AF
ENCODING 431
SWIDTH 500 0
DWIDTH 25 0
BBX 30 37 3 -1
BITMAP
0000003C
0000003C
0000003C
0000007C
000000F8
07800FF0
07801FE0
07801F80
0F801E00
0F001E00
0F003E00
0F003C00
1F003C00
1E003C00
1E007C00
1E007800
1E007800
3C007800
3C00F800
3C00F000
3C00F000
7800F000
7801F000
7801E000
7801E000
F801E000
F003E000
F003C000
F003C000
F007C000
F0078000
780F8000
7C1F0000
7FFF0000
3FFE0000
1FF80000
03C00000
ENDCHAR
STARTCHAR 01B0
ENCODING 432
SWIDTH 500 0
DWIDTH 25 0
BBX 26 29 4 -1
BITMAP
000003C0
000003C0
000003C0
00000780
00000F80
1E00FF00
1E00FE00
1E00F800
3E01F000
3C01E000
3C01E000
3C01E000
7C03E000
7803C000
7803C000
7803C000
F803C000
F0078000
F0078000
F0078000
F0078000
F00F8000
F00F0000
F01F0000
F83F0000
7FFF8000
7FF78000
3FC78000
02000000
ENDCHAR
STARTCHAR 01B1
ENCODING 433
SWIDTH 500 0
DWIDTH 25 0
BBX 27 32 3 -1
BITMAP
0FFC3FE0
0FFC7FE0
0FFC7FE0
0FF83FE0
00F03C00
01E03C00
03C01E00
07801E00
07801E00
0F001E00
1F001E00
1E001E00
3E001E00
3C001E00
3C001E00
7C001E00
78001E00
78001E00
78003E00
F8003E00
F8003C00
F8007C00
F8007C00
F800F800
F800F000
7801F000
7C03E000
7F0FC000
3FFF8000
1FFF0000
0FFC0000
01E00000
ENDCHAR
STARTCHAR 01B2
ENCODING 434
SWIDTH 500 0
DWIDTH 25 0
BBX 22 32 4 -1
BITMAP
0787E0
0F87F0
0F07F8
0F00FC
0F003C
1F003C
1E003C
1E001C
1E001C
3E001C
3C001C
3C003C
3C003C
3C003C
78003C
78003C
78003C
780078
F00078
F00078
F000F0
F000F0
F001E0
F001E0
F003C0
F007C0
F00F80
F83F00
FFFE00
7FFC00
3FF000
078000
ENDCHAR
STARTCHAR 01B3
ENCODING 435
SWIDTH 500 0
DWIDTH 25 0
BBX 26 31 6 0
BITMAP
F0001F00
F0007FC0
F0007F80
7800F100
7801E000
7801E000
7803C000
78078000
3C078000
3C0F0000
3C1E0000
1C1E0000
1E3C0000
1E780000
0E780000
0FF00000
0FE00000
07E00000
07C00000
07800000
07800000
07800000
07800000
0F000000
0F000000
0F000000
0F000000
1E000000
1E000000
1E000000
1E000000
ENDCHAR
STARTCHAR 01B4
ENCODING 436
SWIDTH 500 0
DWIDTH 25 0
BBX 30 32 -1 -8
BITMAP
000000F8
01F001FC
01F003F8
01F007F8
00F00780
00F00F00
00F00F00
00F01E00
00F01E00
00F03E00
00F03C00
00F03C00
00F07800
00F07800
00F0F000
0078F000
0079E000
0079E000
007BC000
007BC000
003F8000
003F0000
003F0000
003E0000
003E0000
007C0000
00780000
00F80000
03F00000
FFE00000
FFC00000
FF000000
ENDCHAR
STARTCHAR 01B5
ENCODING 437
SWIDTH 500 0
DWIDTH 25 0
BBX 26 31 2 0
BITMAP
00FFFFC0
01FFFFC0
01FFFFC0
01FFFFC0
00000F80
00001F00
00003E00
00007C00
0000F800
0000F000
0001E000
0003E000
0007C000
03FFFC00
07FFFC00
07FFFC00
07FFFC00
00780000
00F00000
01F00000
03E00000
07C00000
07800000
0F000000
1E000000
3E000000
7C000000
7FFFF800
FFFFF000
FFFFF000
FFFFF000
ENDCHAR
STARTCHAR 01B6
ENCODING 438
SWIDTH 500 0
DWIDTH 25 0
BBX 22 23 3 0
BITMAP
03FFFC
03FFFC
07FFFC
0000F8
0001F0
0003E0
0007C0
000F80
001F00
0FFFF0
0FFFF0
0FFFE0
01F000
03E000
07C000
0F8000
1F0000
1E0000
3C0000
7FFFC0
FFFFC0
FFFFC0
FFFF80
ENDCHAR
STARTCHAR 01B7
ENCODING 439
SWIDTH 500 0
DWIDTH 25 0
BBX 26 32 2 -1
BITMAP
00FFFFC0
00FFFFC0
01FFFFC0
01FFFF80
00000F00
00003E00
00007C00
0000F800
0001F000
0003E000
0007C000
000F8000
001F0000
003F0000
003FE000
007FF000
0001F800
00007C00
00007C00
00003C00
00003C00
00003C00
00003C00
00003C00
00007800
0000F800
0001F000
7007F000
FFFFE000
FFFF8000
3FFE0000
05E00000
ENDCHAR
STARTCHAR 01B8
ENCODING 440
SWIDTH 500 0
DWIDTH 25 0
BBX 25 32 4 -1
BITMAP
01FFFF80
03FFFF00
03FFFF00
01FFFF00
01E00000
00F00000
00F00000
00780000
00780000
003C0000
003C0000
001E0000
000F0000
003F0000
01FF0000
07FF0000
1FF00000
3F000000
3E000000
7C000000
78000000
78000000
F8000000
F8000000
78000000
78000000
7C000000
7E00E000
3FFFE000
1FFFE000
07FF8000
00F80000
ENDCHAR
STARTCHAR 01B9
ENCODING 441
SWIDTH 500 0
DWIDTH 25 0
BBX 22 31 4 -8
BITMAP
03FFFC
03FFFC
03FFFC
03C000
01C000
01E000
00E000
00F000
007800
007800
003C00
003C00
001E00
01FF00
07FE00
1FFE00
3F8000
3E0000
7C0000
F80000
F00000
F00000
F00000
F00000
F00000
F00000
F80000
7E0700
7FFF00
1FFF80
0FFC00
ENDCHAR
STARTCHAR 01BA
ENCODING 442
SWIDTH 500 0
DWIDTH 25 0
BBX 24 31 1 -8
BITMAP
00FFFF
01FFFF
01FFFF
00001E
00003C
0000F8
0001F0
0003C0
000780
001F00
003E00
003FC0
003FE0
0003F0
0000F8
000078
000078
000078
000078
0000F8
0003F0
000FE0
00FFC0
0FFF00
3FFC00
7F8000
7C0000
700000
F00000
F00000
700000
ENDCHAR
STARTCHAR 01BB
ENCODING 443
SWIDTH 500 0
DWIDTH 25 0
BBX 23 32 3 0
BITMAP
000780
007FF0
01FFF8
03FFFC
03E07C
01803E
00001E
00001E
00001E
00001E
00003C
00003C
000078
0000F8
0001F0
0003E0
07FFFC
07FFFC
0FFFFC
007C00
01F800
03F000
07C000
0F8000
1F0000
1E0000
3C0000
7C0000
7FFFE0
7FFFE0
FFFFE0
FFFFC0
ENDCHAR
STARTCHAR 01BC
ENCODING 444
SWIDTH 500 0
DWIDTH 25 0
BBX 25 32 3 -1
BITMAP
03FFFF80
03FFFF80
07FFFF00
07FFFF00
00780000
00780000
00F00000
00F00000
00F00000
01E00000
01E00000
01E00000
03FC0000
03FF8000
03FFC000
001FE000
0003F000
0000F000
0000F800
00007800
00007800
00007800
00007800
0000F800
0000F000
0001F000
0003E000
700FE000
7FFFC000
FFFF0000
7FFC0000
03E00000
ENDCHAR
STARTCHAR 01BD
ENCODING 445
SWIDTH 500 0
DWIDTH 25 0
BBX 20 24 5 -1
BITMAP
1FFFF0
1FFFF0
1FFFF0
03C000
038000
078000
078000
070000
0F8000
0FFC00
0FFF00
1FFF80
001F80
000780
0003C0
0003C0
0003C0
000780
000F80
C01F80
FFFF00
FFFE00
FFF800
020000
ENDCHAR
STARTCHAR 01BE
ENCODING 446
SWIDTH 500 0
DWIDTH 25 0
BBX 20 31 5 -1
BITMAP
00F800
00F000
00F000
00F000
00F000
01E000
01E000
3FFFF0
3FFFF0
7FFFE0
03C000
03C000
03C000
03C000
03C000
03E000
03F800
01FE00
007F80
001F80
0007C0
0003C0
0003C0
0003C0
0003C0
0007C0
F00F80
FFFF80
FFFF00
7FFC00
038000
ENDCHAR
STARTCHAR 01BF
ENCODING 447
SWIDTH 500 0
DWIDTH 25 0
BBX 24 32 1 -8
BITMAP
0007C0
007FF8
01FFFC
01FFFE
03E03E
03C01F
03C00F
03C00F
07C00F
07800F
07800F
07800F
0F801F
0F001E
0F001E
0F003E
0F007C
1E00F8
1E01F0
1E03E0
1E0FC0
3E3F80
3DFE00
3FFC00
3FE000
7F8000
780000
780000
780000
F80000
F00000
F00000
ENDCHAR
STARTCHAR 01C0
ENCODING 448
SWIDTH 500 0
DWIDTH 25 0
BBX 14 43 8 -8
BITMAP
003C
003C
0078
0078
0078
0078
00F0
00F0
00F0
00F0
00E0
01E0
01E0
01E0
01C0
03C0
03C0
03C0
03C0
0780
0780
0780
0780
0F00
0F00
0F00
0F00
1E00
1E00
1E00
1E00
3C00
3C00
3C00
3C00
3800
7800
7800
7800
7000
F000
F000
F000
ENDCHAR
STARTCHAR 01C1
ENCODING 449
SWIDTH 500 0
DWIDTH 25 0
BBX 23 43 3 -8
BITMAP
003C1E
003C1E
003C1E
003C1E
00783C
00783C
00783C
00783C
00F078
00F078
00F078
00F078
01E0F0
01E0F0
01E0F0
01E0F0
01C1E0
03C1E0
03C1E0
03C1E0
0381C0
0783C0
0783C0
0783C0
078380
0F0780
0F0780
0F0780
0F0780
1E0F00
1E0F00
1E0F00
1E0F00
3C1E00
3C1E00
3C1E00
3C1E00
783C00
783C00
783C00
783C00
707800
F07800
ENDCHAR
STARTCHAR 01C2
ENCODING 450
SWIDTH 500 0
DWIDTH 25 0
BBX 24 43 3 -8
BITMAP
0001E0
0001C0
0003C0
0003C0
0003C0
0003C0
000780
000780
000780
000780
000F00
000F00
000F00
000F00
001E00
001E00
3FFFFF
3FFFFE
3FFFFE
003C00
003C00
003C00
003800
007800
FFFFFC
FFFFF8
FFFFF8
00F000
00F000
00F000
00E000
01E000
01E000
01E000
01E000
03C000
03C000
03C000
03C000
078000
078000
078000
078000
ENDCHAR
STARTCHAR 01C3
ENCODING 451
SWIDTH 500 0
DWIDTH 25 0
BBX 12 32 9 -1
BITMAP
01F0
01E0
01E0
03E0
03E0
03C0
03C0
07C0
07C0
0780
0780
0780
0F80
0F00
0F00
0F00
0E00
0E00
1E00
1C00
0000
0000
0000
0000
0000
7800
FC00
FC00
FC00
FC00
F800
2000
ENDCHAR
STARTCHAR 01C4
ENCODING 452
SWIDTH 500 0
DWIDTH 25 0
BBX 32 40 1 1
BITMAP
00000303
00000387
000001CE
000000FC
000000F8
00000070
00000000
00000000
00000000
01FC07FC
01FE07FC
01FF07F8
01CF07F8
03C78078
03C780F0
038780E0
038781E0
078781E0
078783C0
07078380
07078780
0F078700
0F070F00
0E0F0E00
0E0F0E00
1E0F1C00
1E0E1C00
1E1E3C00
1C1E3800
3C1E7800
3C3C7000
3C3CF000
3878E000
3879E000
78F1C000
79F3C000
73E3FE00
7FC7FE00
FF87FE00
FE07FE00
ENDCHAR
STARTCHAR 01C5
ENCODING 453
SWIDTH 500 0
DWIDTH 25 0
BBX 30 32 1 0
BITMAP
0000020C
01FC071C
01FE03F8
01FF01F0
03CF01C0
03C78080
03C78000
03878000
07878000
07878FF0
07878FF0
07079FF0
070780E0
0F0701E0
0F0701C0
0E0F03C0
0E0F0380
1E0F0700
1E0E0F00
1C1E0E00
1C1E1E00
3C1C1C00
3C3C3C00
383C3800
38787800
78787000
78F0E000
71E0E000
73E1FF00
FFC1FF00
FF83FF00
FE03FE00
ENDCHAR
STARTCHAR 01C6
ENCODING 454
SWIDTH 500 0
DWIDTH 25 0
BBX 31 35 1 0
BITMAP
0000E000
0001E000
0001E106
0001E39E
0001C1FC
0003C1F0
0003C0E0
0003C040
00038000
00078000
007F8000
01FF8FF0
03FF0FF0
078F1FF0
0F0F00E0
1E0F01E0
1E0E01C0
3C1E03C0
3C1E0380
781E0700
781C0F00
781C0E00
703C1E00
F03C1C00
F0383C00
F0383800
F0787800
F0787000
F070E000
F070E000
F0F1FF00
7DF1FF00
7FF3FF00
3FE3FE00
06000000
ENDCHAR
STARTCHAR 01C7
ENCODING 455
SWIDTH 500 0
DWIDTH 25 0
BBX 29 31 1 0
BITMAP
01E00078
01E000F8
03E000F0
03C000F0
03C000F0
03C001F0
07C001E0
078001E0
078001E0
078003E0
078003C0
0F0003C0
0F0003C0
0F0003C0
0F000780
1E000780
1E000780
1E000780
1E000F00
3C000F00
3C000F00
3C000F00
3C001F00
7C001E00
78001E00
78003E00
78007C00
FFE3FC00
FFE7F800
FFE7F000
FFE7C000
ENDCHAR
STARTCHAR 01C8
ENCODING 456
SWIDTH 500 0
DWIDTH 25 0
BBX 28 41 1 -8
BITMAP
000000E0
000001F0
01E003F0
01E003F0
01E003F0
01E001C0
03C00000
03C00000
03C00000
03C00000
07C007C0
07800780
07800780
07800780
0F800F80
0F000F00
0F000F00
0F000F00
0F001F00
1E001E00
1E001E00
1E001E00
1E001E00
3C003C00
3C003C00
3C003C00
3C003C00
78007800
78007800
7FF87800
7FF87800
FFF8F000
FFF0F000
0000F000
0001F000
0001E000
0003E000
0087C000
00FFC000
00FF8000
00FE0000
ENDCHAR
STARTCHAR 01C9
ENCODING 457
SWIDTH 500 0
DWIDTH 25 0
BBX 22 43 4 -8
BITMAP
002000
03E000
03C078
03C0FC
03C0FC
07C0FC
0780F8
078070
078000
0F8000
0F0000
0F0000
0F01E0
0F01E0
1E03E0
1E03C0
1E03C0
1E03C0
3E07C0
3C0780
3C0780
3C0780
7C0780
780F00
780F00
780F00
F80F00
F01E00
F01E00
F01E00
F81E00
7C3C00
7C3C00
3C3C00
1C3C00
007800
007800
007800
00F000
23F000
3FE000
7FC000
7F8000
ENDCHAR
STARTCHAR 01CA
ENCODING 458
SWIDTH 500 0
DWIDTH 25 0
BBX 29 31 1 0
BITMAP
01C0E078
01C1E078
03C1C070
03C1C0F0
03C1C0F0
03E1C0F0
07E380E0
07E381E0
07E381E0
06E381E0
06E701C0
0EE701C0
0EE703C0
0EE703C0
0EEE0380
1CEE0380
1CEE0780
1CEE0780
1CEE0700
3CFC0700
38FC0F00
38FC0F00
38FC0F00
78F80E00
70F81E00
70F81E00
70F83C00
F0F1F800
E0F3F800
E0F3F000
E0F38000
ENDCHAR
STARTCHAR 01CB
ENCODING 459
SWIDTH 500 0
DWIDTH 25 0
BBX 29 41 1 -8
BITMAP
00000070
000000F8
01E0E1F8
01E0E1F8
01E0E1F8
01E1E0E0
03E1C000
03E1C000
03E1C000
03E3C000
07E381E0
07E381C0
07E383C0
07E383C0
0EE703C0
0EE70380
0EE70780
0EE70780
0EE60780
1CEE0700
1CEE0F00
1CEE0F00
1CEC0F00
38EC0E00
38FC1E00
38FC1E00
38FC1E00
78F81C00
70781C00
70783C00
70783C00
F0703800
E0703800
00007800
00007800
0000F000
0000F000
0023E000
003FE000
007FC000
007F0000
ENDCHAR
STARTCHAR 01CC
ENCODING 460
SWIDTH 500 0
DWIDTH 25 0
BBX 29 41 1 -8
BITMAP
00000070
000000F8
000001F8
000001F8
000001F8
000000E0
00000000
00000000
00000000
00380000
03FF01E0
07FF01C0
07FF83C0
078783C0
070783C0
0F078380
0F078780
0F078780
0E070780
1E0F0700
1E0F0F00
1E0F0F00
1C0E0F00
1C0E0E00
3C1E1E00
3C1E1E00
3C1E1E00
381C1C00
783C1C00
783C3C00
783C3C00
70383800
F0783800
00007800
00007800
0000F000
0000F000
0023E000
003FE000
007FC000
007F0000
ENDCHAR
STARTCHAR 01CD
ENCODING 461
SWIDTH 500 0
DWIDTH 25 0
BBX 26 41 0 1
BITMAP
00018080
0003C3C0
0001E780
0000FF00
00007E00
00007C00
00003800
00001000
00000000
00000000
0000F800
0001F800
0001FC00
0003FC00
0003BC00
0007BC00
000F3C00
000F3C00
001E3C00
001C3C00
003C1C00
00381C00
00781E00
00F01E00
00F01E00
01E01E00
01E01E00
03C01E00
03C01E00
07FFFE00
07FFFE00
0FFFFE00
0FFFFE00
1E001E00
1E001E00
3C001E00
3C001E00
78001E00
78001E00
F0001E00
F0001E00
ENDCHAR
STARTCHAR 01CE
ENCODING 462
SWIDTH 500 0
DWIDTH 25 0
BBX 22 35 4 0
BITMAP
001818
003C3C
001E78
000FF0
000FE0
0007C0
000380
000000
000000
000000
0007C0
007FFC
01FFF8
03FFF8
0FE078
1F8078
1F00F0
3E00F0
7C00F0
7800F0
F801E0
F001E0
F001E0
F001E0
F003C0
F003C0
F003C0
F003C0
F003C0
F007C0
F81FC0
7FFFC0
3FFBC0
1FF3C0
030000
ENDCHAR
STARTCHAR 01CF
ENCODING 463
SWIDTH 500 0
DWIDTH 25 0
BBX 23 42 4 0
BITMAP
000800
00180C
001C1C
001E7C
000FF0
0007E0
0007C0
000380
000100
000000
000000
01FFFE
01FFFE
03FFFC
03FFFC
000F00
000F00
001F00
001E00
001E00
001E00
003E00
003C00
003C00
003C00
007C00
007800
007800
007800
00F800
00F000
00F000
00F000
00F000
01E000
01E000
01E000
01E000
FFFF00
FFFF00
FFFF00
FFFF00
ENDCHAR
STARTCHAR 01D0
ENCODING 464
SWIDTH 500 0
DWIDTH 25 0
BBX 16 35 7 0
BITMAP
0200
0603
070F
079E
03FC
01F8
01F0
00E0
0040
0000
0000
0000
FFE0
FFE0
FFE0
03C0
03C0
03C0
03C0
0780
0780
0780
0780
0F80
0F00
0F00
0F00
0F00
0F00
0F00
0F00
0FC4
0FFC
07FC
01FC
ENDCHAR
STARTCHAR 01D1
ENCODING 465
SWIDTH 500 0
DWIDTH 25 0
BBX 23 42 4 0
BITMAP
000C0C
001E1E
000F3C
0007F8
0007F0
0003E0
000180
000100
000000
000380
003FE0
00FFF8
01FFF8
03F07C
07C03C
07803E
0F801E
0F001E
1E001E
1E001E
3C001E
3C001E
3C001E
78001E
78003E
78003C
78003C
F0003C
F0007C
F00078
F00078
F000F0
F000F0
F001F0
F001E0
F803C0
7807C0
7C1F80
3FFF00
3FFE00
0FF800
03C000
ENDCHAR
STARTCHAR 01D2
ENCODING 466
SWIDTH 500 0
DWIDTH 25 0
BBX 21 35 4 0
BITMAP
003030
007878
003CF0
001FE0
001FC0
000F80
000700
000000
000000
000000
001F00
00FFC0
03FFE0
07FFF0
0FC1F8
1F80F8
1E0078
3E0078
3C0078
7C0078
780078
780078
F80078
F000F8
F000F0
F000F0
F001F0
F003E0
F803E0
F80FC0
7C1F80
7FFF00
3FFE00
1FF800
010000
ENDCHAR
STARTCHAR 01D3
ENCODING 467
SWIDTH 500 0
DWIDTH 25 0
BBX 25 42 4 0
BITMAP
00180C00
001C1C00
001E7C00
000FF000
0007E000
0003C000
00038000
00010000
00000000
00000000
07800780
07800F00
07800F00
0F000F00
0F000F00
0F001F00
0F001E00
1F001E00
1E001E00
1E003E00
1E003C00
3E003C00
3C003C00
3C007C00
3C007800
7C007800
78007800
7800F800
7800F000
7800F000
F000F000
F001F000
F001E000
F001E000
F003E000
F803C000
7807C000
7C0F8000
7FFF0000
3FFE0000
0FFC0000
03C00000
ENDCHAR
STARTCHAR 01D4
ENCODING 468
SWIDTH 500 0
DWIDTH 25 0
BBX 22 35 4 0
BITMAP
003030
007878
003DF0
003FE0
001F80
000F00
000E00
000400
000000
000000
000000
0F007C
1E0078
1E0078
1E0078
1E0078
3C00F0
3C00F0
3C00F0
3C00F0
7C01E0
7801E0
7801E0
7801E0
F803C0
F003C0
F003C0
F003C0
F007C0
F80FC0
7C1FC0
7FFFC0
3FFBC0
1FF1C0
030000
ENDCHAR
STARTCHAR 01D5
ENCODING 469
SWIDTH 500 0
DWIDTH 25 0
BBX 24 42 4 -1
BITMAP
001FFE
001FFC
000000
000000
00783C
00783C
00783C
00783C
002018
000000
000000
07800F
07800F
0F000F
0F000F
0F001E
0F001E
1F001E
1E001E
1E003E
1E003C
3E003C
3C003C
3C007C
3C0078
7C0078
780078
7800F8
7800F0
7800F0
F000F0
F001F0
F001E0
F001E0
F003E0
F803C0
7807C0
7C0F80
7FFF00
3FFE00
0FFC00
03C000
ENDCHAR
STARTCHAR 01D6
ENCODING 470
SWIDTH 500 0
DWIDTH 25 0
BBX 22 37 4 -1
BITMAP
003FF8
007FF8
007FF8
000000
000000
00E070
01F0F8
01F0F8
01E0F0
00C060
000000
000000
000000
0F007C
1E0078
1E0078
1E0078
1E0078
3C00F0
3C00F0
3C00F0
3C00F0
7C01E0
7801E0
7801E0
7801E0
F803C0
F003C0
F003C0
F003C0
F007C0
F80FC0
7C1FC0
7FFFC0
3FFBC0
1FF1C0
030000
ENDCHAR
STARTCHAR 01D7
ENCODING 471
SWIDTH 500 0
DWIDTH 25 0
BBX 25 42 4 0
BITMAP
00004000
0000F000
0001E000
0063C600
00F38F00
01F31F00
01F01F00
00E00E00
00000000
00000000
07800780
07800F00
07800F00
0F000F00
0F000F00
0F001F00
0F001E00
1F001E00
1E001E00
1E003E00
1E003C00
3E003C00
3C003C00
3C007C00
3C007800
7C007800
78007800
7800F800
7800F000
7800F000
F000F000
F001F000
F001E000
F001E000
F003E000
F803C000
7807C000
7C0F8000
7FFF0000
3FFE0000
0FFC0000
03C00000
ENDCHAR
STARTCHAR 01D8
ENCODING 472
SWIDTH 500 0
DWIDTH 25 0
BBX 22 39 4 -1
BITMAP
0000C0
0000E0
0001E0
0003C0
000380
000700
000600
00E070
01F0F8
01F0F8
01E0F8
00C060
000000
000000
000000
0F007C
1E0078
1E0078
1E0078
1E0078
3C00F0
3C00F0
3C00F0
3C00F0
7C01E0
7801E0
7801E0
7801E0
F803C0
F003C0
F003C0
F003C0
F007C0
F80FC0
7C1FC0
7FFFC0
3FFBC0
1FF1C0
030000
ENDCHAR
STARTCHAR 01D9
ENCODING 473
SWIDTH 500 0
DWIDTH 25 0
BBX 25 42 4 0
BITMAP
00067000
000FF000
0007E000
0063C600
00F10F00
01F01F00
01F01F00
00E00E00
00000000
00000000
07800780
07800F00
07800F00
0F000F00
0F000F00
0F001F00
0F001E00
1F001E00
1E001E00
1E003E00
1E003C00
3E003C00
3C003C00
3C007C00
3C007800
7C007800
78007800
7800F800
7800F000
7800F000
F000F000
F001F000
F001E000
F001E000
F003E000
F803C000
7807C000
7C0F8000
7FFF0000
3FFE0000
0FFC0000
03C00000
ENDCHAR
STARTCHAR 01DA
ENCODING 474
SWIDTH 500 0
DWIDTH 25 0
BBX 22 38 4 -1
BITMAP
001020
0038F0
003DE0
001FC0
000F80
000600
00E070
01F0F8
01F0F8
01E0F8
00C060
000000
000000
000000
0F007C
1E0078
1E0078
1E0078
1E0078
3C00F0
3C00F0
3C00F0
3C00F0
7C01E0
7801E0
7801E0
7801E0
F803C0
F003C0
F003C0
F003C0
F007C0
F80FC0
7C1FC0
7FFFC0
3FFBC0
1FF1C0
030000
ENDCHAR
STARTCHAR 01DB
ENCODING 475
SWIDTH 500 0
DWIDTH 25 0
BBX 25 42 4 0
BITMAP
00030000
000F0000
00078000
00638600
00F38F00
01F19F00
01F01F00
00E00E00
00000000
00000000
07800780
07800F00
07800F00
0F000F00
0F000F00
0F001F00
0F001E00
1F001E00
1E001E00
1E003E00
1E003C00
3E003C00
3C003C00
3C007C00
3C007800
7C007800
78007800
7800F800
7800F000
7800F000
F000F000
F001F000
F001E000
F001E000
F003E000
F803C000
7807C000
7C0F8000
7FFF0000
3FFE0000
0FFC0000
03C00000
ENDCHAR
STARTCHAR 01DC
ENCODING 476
SWIDTH 500 0
DWIDTH 25 0
BBX 22 39 4 -1
BITMAP
000800
003C00
003C00
001C00
001E00
000E00
000700
00E470
01F0F8
01F0F8
01E0F8
00C070
000000
000000
000000
0F007C
1E0078
1E0078
1E0078
1E0078
3C00F0
3C00F0
3C00F0
3C00F0
7C01E0
7801E0
7801E0
7801E0
F803C0
F003C0
F003C0
F003C0
F007C0
F80FC0
7C1FC0
7FFFC0
3FFBC0
1FF1C0
030000
ENDCHAR
STARTCHAR 01DD
ENCODING 477
SWIDTH 500 0
DWIDTH 25 0
BBX 22 25 4 -1
BITMAP
00FE00
0FFF80
1FFFE0
0FFFF0
0C01F0
0000F8
000078
000078
00003C
00003C
007FFC
07FFF8
1FFFF8
3FC078
7E0078
7800F0
F800F0
F001E0
F003E0
F007C0
F81F80
7FFF00
7FFE00
1FF800
010000
ENDCHAR
STARTCHAR 01DE
ENCODING 478
SWIDTH 500 0
DWIDTH 25 0
BBX 26 41 0 0
BITMAP
0001FFC0
0001FFC0
00000000
00000000
000783C0
000F83C0
000F87C0
000783C0
00020100
00000000
00000000
0000F800
0001F800
0001F800
0003FC00
0007BC00
0007BC00
000F3C00
000E3C00
001E3C00
003C3C00
003C1C00
00781C00
00701C00
00F01E00
00E01E00
01E01E00
03C01E00
03C01E00
07FFFE00
07FFFE00
0FFFFE00
0FFFFE00
1E001E00
1E001E00
3C001E00
3C001E00
78001E00
78001E00
F0001E00
F0001E00
ENDCHAR
STARTCHAR 01DF
ENCODING 479
SWIDTH 500 0
DWIDTH 25 0
BBX 22 37 4 -1
BITMAP
001FFC
001FFC
003FFC
000000
000000
007038
00F87C
00F87C
00F07C
006030
000000
000000
0007C0
007FFC
01FFF8
03FFF8
0FE078
1F8078
1F00F0
3E00F0
7C00F0
7800F0
F801E0
F001E0
F001E0
F001E0
F003C0
F003C0
F003C0
F003C0
F003C0
F007C0
F81FC0
7FFFC0
3FFBC0
1FF3C0
030000
ENDCHAR
STARTCHAR 01E0
ENCODING 480
SWIDTH 500 0
DWIDTH 25 0
BBX 27 41 0 0
BITMAP
0001FFE0
0001FFC0
00000000
00000000
00003C00
00007C00
00007C00
00007C00
00003000
00000000
00000000
0000F800
0001F800
0001F800
0003FC00
0007BC00
0007BC00
000F3C00
000E3C00
001E3C00
003C3C00
003C1C00
00781C00
00701C00
00F01E00
00E01E00
01E01E00
03C01E00
03C01E00
07FFFE00
07FFFE00
0FFFFE00
0FFFFE00
1E001E00
1E001E00
3C001E00
3C001E00
78001E00
78001E00
F0001E00
F0001E00
ENDCHAR
STARTCHAR 01E1
ENCODING 481
SWIDTH 500 0
DWIDTH 25 0
BBX 22 37 4 -1
BITMAP
001FFC
001FFC
001FFC
000000
000000
000380
0007C0
0007C0
000780
000300
000000
000000
0007C0
007FFC
01FFF8
03FFF8
0FE078
1F8078
1F00F0
3E00F0
7C00F0
7800F0
F801E0
F001E0
F001E0
F001E0
F003C0
F003C0
F003C0
F003C0
F003C0
F007C0
F81FC0
7FFFC0
3FFBC0
1FF3C0
030000
ENDCHAR
STARTCHAR 01E2
ENCODING 482
SWIDTH 500 0
DWIDTH 25 0
BBX 30 39 1 0
BITMAP
00003FFC
00007FFC
00007FFC
00007FFC
00000000
00000000
00000000
00000000
0000FFF8
0001FFF8
0001FFF0
0003FFF0
0003BC00
0007F800
000F7800
000E7800
001E7800
001CF000
003CF000
0038F000
0078F000
00F1FF80
00F1FF00
01E1FF00
01C1FF00
03C1C000
0383C000
07FFC000
07FFC000
0FFFC000
0FFF8000
1E078000
1C078000
3C078000
3C0F0000
780FFE00
780FFE00
F00FFE00
F01FFC00
ENDCHAR
STARTCHAR 01E3
ENCODING 483
SWIDTH 500 0
DWIDTH 25 0
BBX 25 33 2 -1
BITMAP
001FFE00
001FFE00
003FFE00
00000000
00000000
00000000
00000000
00000000
01E01C00
07F87F00
0FFCFF80
0FFDFF80
083DC780
001F8780
001F0780
001F0780
001F0780
001E0F00
01FE1F00
07FFFE00
0FFFFC00
1F9FF000
3C1FC000
783C0000
783C0000
F07C0000
F07E0000
F0FE0000
F9FF0800
7FCFF800
7F8FF800
3F07F800
08008000
ENDCHAR
STARTCHAR 01E4
ENCODING 484
SWIDTH 500 0
DWIDTH 25 0
BBX 23 33 4 -1
BITMAP
0001C0
001FF8
007FFE
00FFFE
01F81C
03E008
07C000
0F8000
1F0000
1E0000
3E0000
3C0000
3C0000
780000
780000
780000
7800F0
F000F0
F000F0
F001E0
F01FF8
F01FF8
F01FF8
F003C0
F803C0
F803C0
7803C0
7C0780
7E0780
3FFF80
1FFF80
07FF00
00E000
ENDCHAR
STARTCHAR 01E5
ENCODING 485
SWIDTH 500 0
DWIDTH 25 0
BBX 25 32 1 -8
BITMAP
00007C00
000FFF80
003FFF00
007FFF00
00FC0F00
01F01F00
03E01E00
03C01E00
07C01E00
07801E00
0F03FF80
0F03FF80
0F07FF80
1F003C00
1E007800
1E007800
1E007800
1F007800
0F01F000
0FCFF000
0FFFF000
07FFF000
01FDE000
0001E000
0001E000
0003C000
0003C000
4007C000
781F8000
7FFF0000
FFFE0000
3FF80000
ENDCHAR
STARTCHAR 01E6
ENCODING 486
SWIDTH 500 0
DWIDTH 25 0
BBX 24 42 4 0
BITMAP
000602
000F0F
00079E
0003FC
0001F8
0001F0
0000E0
000040
000000
0000E0
001FFC
007FFF
00FFFE
01F81E
03E004
07C000
0F8000
0F0000
1E0000
3E0000
3C0000
3C0000
780000
780000
780000
780000
F00078
F000F8
F000F0
F000F0
F000F0
F001F0
F001E0
F801E0
F801E0
7801E0
7C03C0
3F03C0
3FFFC0
1FFFC0
07FF80
00F000
ENDCHAR
STARTCHAR 01E7
ENCODING 487
SWIDTH 500 0
DWIDTH 25 0
BBX 26 42 1 -7
BITMAP
000180C0
0001C3C0
0001E780
0000FF00
00007E00
00007C00
00003800
00001000
00000000
00000000
0000FC00
0007FFC0
001FFF80
007FFF80
00FE0780
01F80F80
03E00F00
03C00F00
07C00F00
07801F00
0F001E00
0F001E00
0F001E00
1F003E00
1E003C00
1E003C00
1E003C00
1F003C00
0F00F800
0FC7F800
07FFF800
07FFF800
01FCF000
0000F000
0000F000
0001E000
0003E000
4007C000
781FC000
7FFF8000
FFFE0000
3FF80000
ENDCHAR
STARTCHAR 01E8
ENCODING 488
SWIDTH 500 0
DWIDTH 25 0
BBX 27 41 2 1
BITMAP
00060200
000F0F00
00079E00
0003FC00
0003F800
0001F000
0000E000
00000000
00000000
00000000
00F003E0
01E007C0
01E00F80
01E01F00
01E03E00
03C07C00
03C0F800
03C1F000
03C3E000
0787C000
078F8000
079F0000
07BE0000
0FFC0000
0FF80000
0FF80000
0FFC0000
1F7C0000
1E3E0000
1E1F0000
1E0F0000
1E0F8000
3C078000
3C03C000
3C03C000
3C01E000
7801E000
7801F000
7800F000
7800F800
F0007800
ENDCHAR
STARTCHAR 01E9
ENCODING 489
SWIDTH 500 0
DWIDTH 25 0
BBX 24 41 3 1
BITMAP
0060C0
0071E0
003FC0
001F00
001E00
000C00
000000
000000
00F000
00F000
01F000
01E000
01E000
01E000
01E000
03C000
03C000
03C000
03C01F
07807C
0780F8
0781F0
0783E0
0F0FC0
0F1F80
0F3E00
0FFC00
1FF800
1FF000
1FF800
1EF800
3E7C00
3C3E00
3C1F00
3C0F00
7C0F80
7807C0
7803C0
7803E0
7801E0
F001F0
ENDCHAR
STARTCHAR 01EA
ENCODING 490
SWIDTH 500 0
DWIDTH 25 0
BBX 23 40 4 -8
BITMAP
000700
003FE0
00FFF0
01FFF8
03F0FC
07C03C
0F803C
0F003E
1F001E
1E001E
3E001E
3C001E
3C001E
78001E
78003C
78003C
F8003C
F0003C
F0003C
F00078
F00078
F00078
F000F0
F000F0
F001E0
F003E0
F803C0
F80780
7C1F80
7FFF00
3FFC00
1FF800
03E000
038000
070000
0E0000
1E0000
1FE000
1FC000
0FC000
ENDCHAR
STARTCHAR 01EB
ENCODING 491
SWIDTH 500 0
DWIDTH 25 0
BBX 21 32 4 -8
BITMAP
001F00
00FFC0
03FFE0
07FFF0
0FC1F8
1F80F8
1E0078
3E0078
3C0078
7C0078
780078
780078
F80078
F000F8
F000F0
F000F0
F001F0
F003E0
F803C0
F80FC0
7C1F80
7FFF00
3FFE00
1FF800
01E000
03C000
078000
0F0000
0F0000
0FE000
0FE000
07E000
ENDCHAR
STARTCHAR 01EC
ENCODING 492
SWIDTH 500 0
DWIDTH 25 0
BBX 23 47 4 -8
BITMAP
003FFE
003FFE
003FFC
003FFC
000000
000000
000000
000700
003FE0
00FFF0
01FFF8
03F0FC
07C03C
0F803C
0F003E
1F001E
1E001E
3E001E
3C001E
3C001E
78001E
78003C
78003C
F8003C
F0003C
F0003C
F00078
F00078
F00078
F000F0
F000F0
F001E0
F003E0
F803C0
F80780
7C1F80
7FFF00
3FFC00
1FF800
03E000
038000
070000
0E0000
1E0000
1FE000
1FC000
0FC000
ENDCHAR
STARTCHAR 01ED
ENCODING 493
SWIDTH 500 0
DWIDTH 25 0
BBX 22 40 4 -8
BITMAP
007FFC
007FFC
007FF8
000000
000000
000000
000000
000000
001F00
00FFC0
03FFE0
07FFF0
0FC1F8
1F80F8
1E0078
3E0078
3C0078
7C0078
780078
780078
F80078
F000F8
F000F0
F000F0
F001F0
F003E0
F803C0
F80FC0
7C1F80
7FFF00
3FFE00
1FF800
01E000
03C000
078000
0F0000
0F0000
0FE000
0FE000
07E000
ENDCHAR
STARTCHAR 01EE
ENCODING 494
SWIDTH 500 0
DWIDTH 25 0
BBX 26 42 2 0
BITMAP
00060300
00070700
00079F00
0003FC00
0001F800
0000F000
0000E000
00004000
00000000
00000000
00FFFFC0
00FFFFC0
01FFFFC0
01FFFF80
00000F00
00003E00
00007C00
0000F800
0001F000
0003E000
0007C000
000F8000
001F0000
003F0000
003FE000
007FF000
0001F800
00007C00
00007C00
00003C00
00003C00
00003C00
00003C00
00003C00
00007800
0000F800
0001F000
7007F000
FFFFE000
FFFF8000
3FFE0000
05E00000
ENDCHAR
STARTCHAR 01EF
ENCODING 495
SWIDTH 500 0
DWIDTH 25 0
BBX 23 42 2 -7
BITMAP
000C0C
001E1E
000F3C
0007F8
0007F0
0003E0
0001C0
000000
000000
000000
000000
01FFFE
03FFFE
03FFFE
00003C
000078
0000F0
0001E0
0003C0
000780
000F00
001E00
007C00
00F800
00FC00
01FF00
01FFC0
0007C0
0003E0
0001E0
0001E0
0001E0
0001E0
0001E0
0001E0
0003E0
0007C0
000FC0
F87F80
FFFF00
FFFC00
7FF000
ENDCHAR
STARTCHAR 01F0
ENCODING 496
SWIDTH 500 0
DWIDTH 25 0
BBX 26 42 1 -7
BITMAP
00018180
0003C3C0
0001E780
0000FF00
0000FE00
00007C00
00003000
00002000
00000000
00000000
00000000
007FFE00
007FFC00
007FFC00
00003C00
00003C00
00007800
00007800
00007800
00007800
0000F800
0000F000
0000F000
0000F000
0001F000
0001E000
0001E000
0001E000
0003E000
0003C000
0003C000
0003C000
0007C000
00078000
00078000
00078000
000F0000
401F0000
783E0000
7FFE0000
FFF80000
3FF00000
ENDCHAR
STARTCHAR 01F1
ENCODING 497
SWIDTH 500 0
DWIDTH 25 0
BBX 30 31 1 0
BITMAP
01FC07FC
01FE07FC
01FF07F8
01CF07F8
03C78078
03C780F0
038780E0
038781E0
078781E0
078783C0
07078380
07078780
0F078700
0F070F00
0E0F0E00
0E0F0E00
1E0F1C00
1E0E1C00
1E1E3C00
1C1E3800
3C1E7800
3C3C7000
3C3CF000
3878E000
3879E000
78F1C000
79F3C000
73E3FE00
7FC7FE00
FF87FE00
FE07FE00
ENDCHAR
STARTCHAR 01F2
ENCODING 498
SWIDTH 500 0
DWIDTH 25 0
BBX 28 31 1 0
BITMAP
01FC0000
01FE0000
01FF0000
03CF0000
03C78000
03C78000
03878000
07878000
07878FF0
07878FF0
07079FF0
070780E0
0F0701E0
0F0701C0
0E0F03C0
0E0F0380
1E0F0700
1E0E0F00
1C1E0E00
1C1E1E00
3C1C1C00
3C3C3C00
383C3800
38787800
78787000
78F0E000
71E0E000
73E1FF00
FFC1FF00
FF83FF00
FE03FE00
ENDCHAR
STARTCHAR 01F3
ENCODING 499
SWIDTH 500 0
DWIDTH 25 0
BBX 28 35 1 0
BITMAP
0000E000
0001E000
0001E000
0001E000
0001C000
0003C000
0003C000
0003C000
00038000
00078000
007F8000
01FF8FF0
03FF0FF0
078F1FF0
0F0F00E0
1E0F01E0
1E0E01C0
3C1E03C0
3C1E0380
781E0700
781C0F00
781C0E00
703C1E00
F03C1C00
F0383C00
F0383800
F0787800
F0787000
F070E000
F070E000
F0F1FF00
7DF1FF00
7FF3FF00
3FE3FE00
06000000
ENDCHAR
STARTCHAR 01F4
ENCODING 500
SWIDTH 500 0
DWIDTH 25 0
BBX 24 42 4 0
BITMAP
000030
000078
0000F8
0001F0
0003E0
0007C0
000F00
000600
000000
0000E0
001FFC
007FFF
00FFFE
01F81E
03E004
07C000
0F8000
0F0000
1E0000
3E0000
3C0000
3C0000
780000
780000
780000
780000
F00078
F000F8
F000F0
F000F0
F000F0
F001F0
F001E0
F801E0
F801E0
7801E0
7C03C0
3F03C0
3FFFC0
1FFFC0
07FF80
00F000
ENDCHAR
STARTCHAR 01F5
ENCODING 501
SWIDTH 500 0
DWIDTH 25 0
BBX 26 42 1 -7
BITMAP
00000600
00000F00
00001F00
00003E00
00007C00
0000F800
0001E000
0000C000
00000000
00000000
0000FC00
0007FFC0
001FFF80
007FFF80
00FE0780
01F80F80
03E00F00
03C00F00
07C00F00
07801F00
0F001E00
0F001E00
0F001E00
1F003E00
1E003C00
1E003C00
1E003C00
1F003C00
0F00F800
0FC7F800
07FFF800
07FFF800
01FCF000
0000F000
0000F000
0001E000
0003E000
4007C000
781FC000
7FFF8000
FFFE0000
3FF80000
ENDCHAR
STARTCHAR 01F6
ENCODING 502
SWIDTH 500 0
DWIDTH 25 0
BBX 27 32 1 -1
BITMAP
01E0F000
01E0F000
01E0F000
03C1E000
03C1E000
03C1E000
03C1E000
0783C000
0783C1E0
0783C1E0
0783C3C0
070383C0
0F0783C0
0FFF83C0
0FFF8780
0FFF8780
1FFF0780
1E0F0780
1E0F0F00
1E0F0F00
3C1E0F00
3C1E0F00
3C1E1E00
3C1E1E00
781C1E00
781C3E00
783C3C00
783C7C00
F01FF800
F01FF000
F00FE000
00038000
ENDCHAR
STARTCHAR 01F7
ENCODING 503
SWIDTH 500 0
DWIDTH 25 0
BBX 26 39 1 -8
BITMAP
000FFC00
007FFF00
007FFF80
00FE1F80
00F007C0
00F003C0
00F003C0
01F003C0
01E003C0
01E003C0
01E003C0
01E003C0
03C003C0
03C007C0
03C00780
03C00F80
07800F80
07801F00
07801E00
07803E00
0F007C00
0F00F800
0F01F000
0F03E000
1F0FC000
1E1F8000
1EFF0000
1FFC0000
3FF00000
3FC00000
3F000000
3C000000
7C000000
78000000
78000000
78000000
78000000
F0000000
F0000000
ENDCHAR
STARTCHAR 01F8
ENCODING 504
SWIDTH 500 0
DWIDTH 25 0
BBX 27 41 2 1
BITMAP
00030000
00078000
000F8000
0007C000
0003E000
0001F000
0000F800
00007000
00002000
00000000
01F001E0
01F001E0
01F001C0
01F803C0
03F803C0
03F803C0
03F80380
03BC0780
07BC0780
079C0780
079E0700
071E0F00
0F0E0F00
0F0E0F00
0F0F0E00
0E0F0E00
1E071E00
1E071E00
1E071E00
1C079C00
1C07BC00
3C03BC00
3C03BC00
3C03B800
3803F800
7803F800
7801F800
7801F000
7001F000
F001F000
F001F000
ENDCHAR
STARTCHAR 01F9
ENCODING 505
SWIDTH 500 0
DWIDTH 25 0
BBX 22 34 3 1
BITMAP
000C00
001E00
001E00
000F00
000780
0003C0
0003E0
0001C0
000080
000000
000F00
03FFE0
07FFF0
07FFF8
0780F8
078078
0F007C
0F003C
0F003C
0F007C
1F0078
1E0078
1E0078
1E0078
3E00F0
3C00F0
3C00F0
3C00F0
7C01E0
7801E0
7801E0
7801E0
7803E0
F003C0
ENDCHAR
STARTCHAR 01FA
ENCODING 506
SWIDTH 500 0
DWIDTH 25 0
BBX 24 41 0 1
BITMAP
000007
00001F
00007F
00007C
000040
000000
000078
0000FC
000186
000186
000186
000186
0000FC
0001F8
0003FC
0003BC
0007BC
00073C
000F3C
000E1C
001C1C
003C1C
00381C
00781C
00701E
00E01E
01E01E
01C01E
03C01E
03FFFE
07FFFE
07FFFE
0FFFFE
0E001E
1E001E
3C001E
3C001E
78001E
78001F
F0001F
F0001F
ENDCHAR
STARTCHAR 01FB
ENCODING 507
SWIDTH 500 0
DWIDTH 25 0
BBX 22 41 4 0
BITMAP
000038
0000F8
0003F8
0003E0
000300
000000
0003C0
0007E0
000E70
000C30
000C30
000C30
000FE0
0007C0
000000
000000
0007C0
007FFC
01FFF8
03FFF8
0FE078
1F8078
1F00F0
3E00F0
7C00F0
7800F0
F801E0
F001E0
F001E0
F001E0
F003C0
F003C0
F003C0
F003C0
F003C0
F007C0
F81FC0
7FFFC0
3FFBC0
1FF3C0
030000
ENDCHAR
STARTCHAR 01FC
ENCODING 508
SWIDTH 500 0
DWIDTH 25 0
BBX 29 41 1 1
BITMAP
00000060
000000E0
000001F0
000003E0
000007C0
00000F80
00001E00
00000C00
00000000
00000000
0000FFF8
0001FFF8
0001FFF0
0003FFF0
0003BC00
0007F800
000F7800
000E7800
001E7800
001CF000
003CF000
0038F000
0078F000
00F1FF80
00F1FF00
01E1FF00
01C1FF00
03C1C000
0383C000
07FFC000
07FFC000
0FFFC000
0FFF8000
1E078000
1C078000
3C078000
3C0F0000
780FFE00
780FFE00
F00FFE00
F01FFC00
ENDCHAR
STARTCHAR 01FD
ENCODING 509
SWIDTH 500 0
DWIDTH 25 0
BBX 25 35 2 0
BITMAP
00001800
00003C00
00007C00
0000FC00
0001F000
0003E000
0007C000
00030000
00000000
00000000
01E01C00
07F87F00
0FFCFF80
0FFDFF80
083DC780
001F8780
001F0780
001F0780
001F0780
001E0F00
01FE1F00
07FFFE00
0FFFFC00
1F9FF000
3C1FC000
783C0000
783C0000
F07C0000
F07E0000
F0FE0000
F9FF0800
7FCFF800
7F8FF800
3F07F800
08008000
ENDCHAR
STARTCHAR 01FE
ENCODING 510
SWIDTH 500 0
DWIDTH 25 0
BBX 26 43 2 -1
BITMAP
00003000
00007000
0000F800
0001F000
0003E000
0007C000
000F0000
00060000
00000100
0001C180
000FFBC0
003FFF80
007FFF00
00F83F00
01F01F00
03E03F00
03C03F00
07807F80
0780F780
0F01E780
0F01E780
1E03C700
1E078F00
1E070F00
3C0F0F00
3C1E0F00
3C3C0F00
3C3C1E00
3C781E00
3CF01E00
3CE03C00
3DE03C00
3FC07C00
3F807800
3F00F800
3F01F000
3E03E000
3F07C000
3FFF8000
7FFF0000
F7FE0000
60600000
20000000
ENDCHAR
STARTCHAR 01FF
ENCODING 511
SWIDTH 500 0
DWIDTH 25 0
BBX 25 36 2 -1
BITMAP
00003000
00007000
0000F800
0001F000
0003E000
0007C000
000F0000
00060000
00000000
00000100
00078380
003FF780
00FFFF00
01FFFE00
03F07E00
07C07E00
0780FE00
0F81FE00
0F03FE00
1E07DE00
1E0F9E00
1E1F1E00
3C1E1E00
3C3C3E00
3C783C00
3CF03C00
3DE07C00
3FC0F800
3F80F800
3F03F000
1F07E000
3FFFC000
7FFF8000
F7FE0000
E0000000
40000000
ENDCHAR
STARTCHAR 0200
ENCODING 512
SWIDTH 500 0
DWIDTH 25 0
BBX 25 41 0 1
BITMAP
00060C00
001E1E00
001F1E00
000F0F00
00078700
0003C780
0001C380
0000C180
00000000
00000000
0000F800
0001F800
0001FC00
0003FC00
0003BC00
0007BC00
000F3C00
000F3C00
001E3C00
001C3C00
003C1C00
00381C00
00781E00
00F01E00
00F01E00
01E01E00
01E01E00
03C01E00
03C01E00
07FFFE00
07FFFE00
0FFFFE00
0FFFFE00
1E001E00
1E001E00
3C001E00
3C001E00
78001E00
78001E00
F0001E00
F0001E00
ENDCHAR
STARTCHAR 0201
ENCODING 513
SWIDTH 500 0
DWIDTH 25 0
BBX 22 35 4 -1
BITMAP
00C080
01C3C0
03E3C0
01E1E0
00F0E0
0078F0
003870
001830
001000
000000
0007C0
007FFC
01FFF8
03FFF8
0FE078
1F8078
1F00F0
3E00F0
7C00F0
7800F0
F801E0
F001E0
F001E0
F001E0
F003C0
F003C0
F003C0
F003C0
F003C0
F007C0
F81FC0
7FFFC0
3FFBC0
1FF3C0
030000
ENDCHAR
STARTCHAR 0202
ENCODING 514
SWIDTH 500 0
DWIDTH 25 0
BBX 25 41 0 0
BITMAP
00000800
0000FF00
0001FF80
0003E780
00038380
00038180
00070180
00000000
00000000
00000000
0000F800
0001F800
0001FC00
0003FC00
0003BC00
0007BC00
000F3C00
000F3C00
001E3C00
001C3C00
003C1C00
00381C00
00781E00
00F01E00
00F01E00
01E01E00
01E01E00
03C01E00
03C01E00
07FFFE00
07FFFE00
0FFFFE00
0FFFFE00
1E001E00
1E001E00
3C001E00
3C001E00
78001E00
78001E00
F0001E00
F0001E00
ENDCHAR
STARTCHAR 0203
ENCODING 515
SWIDTH 500 0
DWIDTH 25 0
BBX 22 34 4 -1
BITMAP
000FE0
001FF0
003EF0
007838
007038
007038
000000
000000
000000
0007C0
007FFC
01FFF8
03FFF8
0FE078
1F8078
1F00F0
3E00F0
7C00F0
7800F0
F801E0
F001E0
F001E0
F001E0
F003C0
F003C0
F003C0
F003C0
F003C0
F007C0
F81FC0
7FFFC0
3FFBC0
1FF3C0
030000
ENDCHAR
STARTCHAR 0204
ENCODING 516
SWIDTH 500 0
DWIDTH 25 0
BBX 24 41 4 1
BITMAP
003060
00F0E0
00F8F0
007878
003C78
001C3C
000E1C
000E0C
000000
000000
01FFFF
01FFFF
03FFFF
03FFFF
03C000
03C000
07C000
078000
078000
078000
078000
0F0000
0F0000
0FFFE0
0FFFE0
1FFFE0
1FFFE0
1E0000
1E0000
3C0000
3C0000
3C0000
3C0000
7C0000
780000
780000
780000
FFFFE0
FFFFE0
FFFFC0
FFFFC0
ENDCHAR
STARTCHAR 0205
ENCODING 517
SWIDTH 500 0
DWIDTH 25 0
BBX 21 35 4 -1
BITMAP
00C080
01C3C0
03E3C0
01E1E0
00F0E0
0078F0
003870
001830
001000
000000
001E00
00FFE0
03FFF0
07FFF8
0FC0F8
1F0078
3E0078
3C0078
7C00F8
7800F0
F803F0
F03FE0
FFFFC0
FFFE00
FFE000
F00000
F00000
F00000
F00000
F80000
7E03C0
7FFFC0
3FFFC0
0FFF80
00E000
ENDCHAR
STARTCHAR 0206
ENCODING 518
SWIDTH 500 0
DWIDTH 25 0
BBX 24 41 4 0
BITMAP
000040
0007F8
000FFC
000F3C
001C1C
001C0E
00180C
000000
000000
000000
01FFFF
01FFFF
03FFFF
03FFFF
03C000
03C000
07C000
078000
078000
078000
078000
0F0000
0F0000
0FFFE0
0FFFE0
1FFFE0
1FFFE0
1E0000
1E0000
3C0000
3C0000
3C0000
3C0000
7C0000
780000
780000
780000
FFFFE0
FFFFE0
FFFFC0
FFFFC0
ENDCHAR
STARTCHAR 0207
ENCODING 519
SWIDTH 500 0
DWIDTH 25 0
BBX 21 34 4 -1
BITMAP
001FE0
003FF0
007FF0
007070
007030
00E030
000000
000000
000000
001E00
00FFE0
03FFF0
07FFF8
0FC0F8
1F0078
3E0078
3C0078
7C00F8
7800F0
F803F0
F03FE0
FFFFC0
FFFE00
FFE000
F00000
F00000
F00000
F00000
F80000
7E03C0
7FFFC0
3FFFC0
0FFF80
00E000
ENDCHAR
STARTCHAR 0208
ENCODING 520
SWIDTH 500 0
DWIDTH 25 0
BBX 23 41 4 1
BITMAP
0060C0
01E1E0
01F1E0
00F0F0
007870
003C78
001C38
000C18
000000
000000
01FFFE
01FFFE
03FFFC
03FFFC
000F00
000F00
001F00
001E00
001E00
001E00
003E00
003C00
003C00
003C00
007C00
007800
007800
007800
00F800
00F000
00F000
00F000
00F000
01E000
01E000
01E000
01E000
FFFF00
FFFF00
FFFF00
FFFF00
ENDCHAR
STARTCHAR 0209
ENCODING 521
SWIDTH 500 0
DWIDTH 25 0
BBX 16 34 7 0
BITMAP
1810
3878
3C78
1E3C
1E1E
0F0E
070F
0307
0000
0000
0000
FFE0
FFE0
FFE0
03C0
03C0
03C0
03C0
0780
0780
0780
0780
0F80
0F00
0F00
0F00
0F00
0F00
0F00
0F00
0FC4
0FFC
07FC
01FC
ENDCHAR
STARTCHAR 020A
ENCODING 522
SWIDTH 500 0
DWIDTH 25 0
BBX 23 41 4 0
BITMAP
000080
0007F0
001FF8
001E78
00381C
00381C
00301C
000000
000000
000000
01FFFE
01FFFE
03FFFC
03FFFC
000F00
000F00
001F00
001E00
001E00
001E00
003E00
003C00
003C00
003C00
007C00
007800
007800
007800
00F800
00F000
00F000
00F000
00F000
01E000
01E000
01E000
01E000
FFFF00
FFFF00
FFFF00
FFFF00
ENDCHAR
STARTCHAR 020B
ENCODING 523
SWIDTH 500 0
DWIDTH 25 0
BBX 16 33 7 0
BITMAP
01FC
07FE
07FE
0E0E
0E07
0C06
0000
0000
0000
0000
FFE0
FFE0
FFE0
03C0
03C0
03C0
03C0
0780
0780
0780
0780
0F80
0F00
0F00
0F00
0F00
0F00
0F00
0F00
0FC4
0FFC
07FC
01FC
ENDCHAR
STARTCHAR 020C
ENCODING 524
SWIDTH 500 0
DWIDTH 25 0
BBX 23 43 4 -1
BITMAP
002000
006040
00F1E0
00F1F0
0078F0
003878
003C38
001E1C
000C1C
000000
000380
003FE0
00FFF8
01FFF8
03F07C
07C03C
07803E
0F801E
0F001E
1E001E
1E001E
3C001E
3C001E
3C001E
78001E
78003E
78003C
78003C
F0003C
F0007C
F00078
F00078
F000F0
F000F0
F001F0
F001E0
F803C0
7807C0
7C1F80
3FFF00
3FFE00
0FF800
03C000
ENDCHAR
STARTCHAR 020D
ENCODING 525
SWIDTH 500 0
DWIDTH 25 0
BBX 21 35 4 -1
BITMAP
008180
03C380
03C7C0
01E3C0
00F1E0
00F0E0
007870
003830
000020
000000
001F00
00FFC0
03FFE0
07FFF0
0FC1F8
1F80F8
1E0078
3E0078
3C0078
7C0078
780078
780078
F80078
F000F8
F000F0
F000F0
F001F0
F003E0
F803E0
F80FC0
7C1F80
7FFF00
3FFE00
1FF800
010000
ENDCHAR
STARTCHAR 020E
ENCODING 526
SWIDTH 500 0
DWIDTH 25 0
BBX 23 42 4 -1
BITMAP
0000C0
0007F8
000FF8
001F3C
001C1C
00381C
00381C
000000
000000
000380
003FE0
00FFF8
01FFF8
03F07C
07C03C
07803E
0F801E
0F001E
1E001E
1E001E
3C001E
3C001E
3C001E
78001E
78003E
78003C
78003C
F0003C
F0007C
F00078
F00078
F000F0
F000F0
F001F0
F001E0
F803C0
7807C0
7C1F80
3FFF00
3FFE00
0FF800
03C000
ENDCHAR
STARTCHAR 020F
ENCODING 527
SWIDTH 500 0
DWIDTH 25 0
BBX 21 34 4 -1
BITMAP
001FE0
003FF0
007FF0
007070
007030
00E030
000000
000000
000000
001F00
00FFC0
03FFE0
07FFF0
0FC1F8
1F80F8
1E0078
3E0078
3C0078
7C0078
780078
780078
F80078
F000F8
F000F0
F000F0
F001F0
F003E0
F803E0
F80FC0
7C1F80
7FFF00
3FFE00
1FF800
010000
ENDCHAR
STARTCHAR 0210
ENCODING 528
SWIDTH 500 0
DWIDTH 25 0
BBX 24 41 2 1
BITMAP
003060
00F0F0
0078F0
007C78
003C38
001E3C
000E1E
00060C
000000
000000
01FFF0
01FFFC
01FFFE
01E07F
01E01F
03C00F
03C00F
03C00F
03C00F
07800F
07800F
07800F
07801E
0F803E
0F00FC
0FFFF8
0FFFF0
1FFFC0
1FFF00
1E0780
1E0780
3E03C0
3C03C0
3C03E0
3C01E0
3C01E0
7801E0
7800F0
7800F0
7800F0
F000F0
ENDCHAR
STARTCHAR 0211
ENCODING 529
SWIDTH 500 0
DWIDTH 25 0
BBX 21 34 5 0
BITMAP
018100
038780
07C780
03C3C0
01E1C0
00F1E0
0070E0
003060
002000
000000
0007E0
03FFF8
07FFF0
0FFFF0
0F8010
0F0000
0F0000
1F0000
1E0000
1E0000
1E0000
3E0000
3C0000
3C0000
3C0000
7C0000
780000
780000
780000
780000
F00000
F00000
F00000
F00000
ENDCHAR
STARTCHAR 0212
ENCODING 530
SWIDTH 500 0
DWIDTH 25 0
BBX 24 41 2 0
BITMAP
000020
0001FC
0007FE
00079E
000E07
000E07
000C07
000000
000000
000000
01FFF0
01FFFC
01FFFE
01E07F
01E01F
03C00F
03C00F
03C00F
03C00F
07800F
07800F
07800F
07801E
0F803E
0F00FC
0FFFF8
0FFFF0
1FFFC0
1FFF00
1E0780
1E0780
3E03C0
3C03C0
3C03E0
3C01E0
3C01E0
7801E0
7800F0
7800F0
7800F0
F000F0
ENDCHAR
STARTCHAR 0213
ENCODING 531
SWIDTH 500 0
DWIDTH 25 0
BBX 21 33 5 0
BITMAP
001FC0
003FE0
007DE0
00F070
00E070
00E070
000000
000000
000000
0007E0
03FFF8
07FFF0
0FFFF0
0F8010
0F0000
0F0000
1F0000
1E0000
1E0000
1E0000
3E0000
3C0000
3C0000
3C0000
7C0000
780000
780000
780000
780000
F00000
F00000
F00000
F00000
ENDCHAR
STARTCHAR 0214
ENCODING 532
SWIDTH 500 0
DWIDTH 25 0
BBX 25 42 4 0
BITMAP
0060C000
01E1E000
01F1E000
00F0F000
00787000
003C7800
001C3800
000C1800
00000000
00000000
07800780
07800F00
07800F00
0F000F00
0F000F00
0F001F00
0F001E00
1F001E00
1E001E00
1E003E00
1E003C00
3E003C00
3C003C00
3C007C00
3C007800
7C007800
78007800
7800F800
7800F000
7800F000
F000F000
F001F000
F001E000
F001E000
F003E000
F803C000
7807C000
7C0F8000
7FFF0000
3FFE0000
0FFC0000
03C00000
ENDCHAR
STARTCHAR 0215
ENCODING 533
SWIDTH 500 0
DWIDTH 25 0
BBX 22 35 4 -1
BITMAP
008180
03C380
03C7C0
01E3C0
00F1E0
00F0E0
007870
003830
000020
000000
000000
0F007C
1E0078
1E0078
1E0078
1E0078
3C00F0
3C00F0
3C00F0
3C00F0
7C01E0
7801E0
7801E0
7801E0
F803C0
F003C0
F003C0
F003C0
F007C0
F80FC0
7C1FC0
7FFFC0
3FFBC0
1FF1C0
030000
ENDCHAR
STARTCHAR 0216
ENCODING 534
SWIDTH 500 0
DWIDTH 25 0
BBX 25 42 4 -1
BITMAP
00008000
0007F000
001FF800
001E7800
00381C00
00381C00
00301C00
00000000
00000000
00000000
07800780
07800F00
07800F00
0F000F00
0F000F00
0F001F00
0F001E00
1F001E00
1E001E00
1E003E00
1E003C00
3E003C00
3C003C00
3C007C00
3C007800
7C007800
78007800
7800F800
7800F000
7800F000
F000F000
F001F000
F001E000
F001E000
F003E000
F803C000
7807C000
7C0F8000
7FFF0000
3FFE0000
0FFC0000
03C00000
ENDCHAR
STARTCHAR 0217
ENCODING 535
SWIDTH 500 0
DWIDTH 25 0
BBX 22 34 4 -1
BITMAP
001FE0
003FE0
007FF0
007070
007030
00E030
000000
000000
000000
000000
0F007C
1E0078
1E0078
1E0078
1E0078
3C00F0
3C00F0
3C00F0
3C00F0
7C01E0
7801E0
7801E0
7801E0
F803C0
F003C0
F003C0
F003C0
F007C0
F80FC0
7C1FC0
7FFFC0
3FFBC0
1FF1C0
030000
ENDCHAR
STARTCHAR 0218
ENCODING 536
SWIDTH 500 0
DWIDTH 25 0
BBX 24 41 3 -9
BITMAP
0003E0
003FFE
007FFF
00FFFF
01F80E
03E000
03C000
03C000
07C000
07C000
07C000
03C000
03E000
03F000
01FC00
00FF00
007F80
001FE0
0007E0
0003F0
0001F0
0000F0
0000F0
0000F0
0000F0
0000F0
0001F0
4003E0
780FE0
FFFFC0
FFFF80
3FFE00
07E000
000000
03C000
078000
078000
0F8000
7F0000
7E0000
200000
ENDCHAR
STARTCHAR 0219
ENCODING 537
SWIDTH 500 0
DWIDTH 25 0
BBX 21 33 4 -9
BITMAP
001F80
00FFF8
01FFF8
03FFF0
07C030
078000
0F0000
0F0000
0F8000
07C000
07F000
03FC00
00FF00
003F80
000FC0
0007C0
0003C0
0003C0
0003C0
4007C0
700F80
7FFF80
FFFF00
3FFC00
038000
000000
03C000
078000
078000
0F8000
7F0000
7E0000
200000
ENDCHAR
STARTCHAR 021A
ENCODING 538
SWIDTH 500 0
DWIDTH 25 0
BBX 25 39 4 -9
BITMAP
0FFFFF80
0FFFFF80
0FFFFF80
0FFFFF80
000F0000
000F0000
001E0000
001E0000
001E0000
001E0000
003C0000
003C0000
003C0000
003C0000
007C0000
00780000
00780000
00780000
00F80000
00F00000
00F00000
00F00000
01F00000
01E00000
01E00000
01E00000
03E00000
03C00000
03C00000
03C00000
03C00000
00000000
00000000
07800000
07800000
0F000000
1F000000
FE000000
FC000000
ENDCHAR
STARTCHAR 021B
ENCODING 539
SWIDTH 500 0
DWIDTH 25 0
BBX 18 39 7 -9
BITMAP
01E000
01E000
01E000
03E000
03C000
03C000
03C000
7FFFC0
FFFFC0
FFFFC0
078000
0F8000
0F0000
0F0000
0F0000
1F0000
1E0000
1E0000
1E0000
1E0000
3C0000
3C0000
3C0000
3C0000
3C0000
3C0000
3E0600
3FFE00
1FFE00
0FFE00
008000
000000
078000
078000
0F8000
1F0000
7E0000
7C0000
200000
ENDCHAR
STARTCHAR 021C
ENCODING 540
SWIDTH 500 0
DWIDTH 25 0
BBX 27 40 -1 -8
BITMAP
0001C000
003FFE00
00FFFF80
00FFFFC0
00700FE0
000003E0
000001E0
000001E0
000001E0
000001E0
000001E0
000003E0
000003C0
000007C0
00000F80
00003F00
0001FE00
007FFC00
007FF000
007FF800
001FFC00
00007E00
00003F00
00001F00
00000F00
00000F00
00000F00
00000F00
00000F00
00000F00
00001F00
00003E00
00003E00
0000FC00
0001F800
000FF000
01FFE000
FFFF8000
FFFE0000
FFE00000
ENDCHAR
STARTCHAR 021D
ENCODING 541
SWIDTH 500 0
DWIDTH 25 0
BBX 23 32 1 -8
BITMAP
001FC0
01FFF0
03FFFC
03FFFC
01007E
00001E
00001E
00001E
00001E
00003E
00007C
0000F8
0003F8
00FFE0
00FF80
00FFC0
01FFF0
0003F0
0000F8
000078
000078
000078
000078
0000F0
0001F0
0003E0
0007E0
001FC0
07FF00
7FFE00
FFF000
FF0000
ENDCHAR
STARTCHAR 021E
ENCODING 542
SWIDTH 500 0
DWIDTH 25 0
BBX 27 42 2 0
BITMAP
00020000
00060300
00070700
00079F00
0003FC00
0001F800
0001F000
0000E000
00004000
00000000
00000000
01E001E0
01E003E0
01E003C0
03C003C0
03C003C0
03C007C0
03C00780
07C00780
07800780
07800F80
07800F00
0F800F00
0F000F00
0FFFFF00
0FFFFE00
1FFFFE00
1FFFFE00
1E001E00
1E003C00
1E003C00
3C003C00
3C003C00
3C007800
3C007800
78007800
78007800
7800F800
7800F000
F000F000
F000F000
F001F000
ENDCHAR
STARTCHAR 021F
ENCODING 543
SWIDTH 500 0
DWIDTH 25 0
BBX 22 41 2 1
BITMAP
0060C0
0079E0
003FC0
001F80
000E00
000400
000000
000000
00F000
00F000
00F000
01E000
01E000
01E000
01E000
03C000
03C000
03CF00
03FFE0
07FFF0
07FFF8
0780F8
07807C
0F807C
0F003C
0F003C
0F003C
1F0078
1E0078
1E0078
1E0078
1E00F8
3C00F0
3C00F0
3C00F0
3C01F0
7801E0
7801E0
7801E0
7801E0
F003C0
ENDCHAR
STARTCHAR 0220
ENCODING 544
SWIDTH 500 0
DWIDTH 25 0
BBX 25 40 2 -8
BITMAP
0003C000
00FFFC00
01FFFE00
01FFFF00
03E01F00
03C00F80
03C00780
03C00780
07C00780
07800780
07800780
07800F80
0F800F00
0F000F00
0F000F00
0F001F00
0F001E00
1E001E00
1E001E00
1E003E00
1E003C00
3C003C00
3C003C00
3C003C00
3C007800
78007800
78007800
78007800
7800F000
F800F000
F000F000
F000F000
0001F000
0001E000
0001E000
0001E000
0003E000
0003C000
0003C000
0003C000
ENDCHAR
STARTCHAR 0221
ENCODING 545
SWIDTH 500 0
DWIDTH 25 0
BBX 23 43 2 -8
BITMAP
000008
000078
000078
000078
0000F0
0000F0
0000F0
0000F0
0001F0
0001E0
0001E0
003FE0
00FFE0
03FFC0
07FFC0
0F83C0
1F03C0
1E0780
3E0780
3C0780
3C0780
780F00
780F00
780F00
780F00
F81E00
F81E00
F81E00
F81E00
783C00
783C00
7C7FF8
7FFFFC
3FFFFC
1FFC1C
00781E
00F81E
01F81C
03F81C
07F83C
0F3FF8
1E3FF0
0C0FE0
ENDCHAR
STARTCHAR 0222
ENCODING 546
SWIDTH 500 0
DWIDTH 25 0
BBX 24 31 3 0
BITMAP
00F00F
00F00F
01E00F
01E00F
01E00F
03C01E
03C01E
03C01E
03C03E
03C03C
03C07C
03E0F8
03FFF8
01FFE0
03FFE0
0FFFF0
1F81F8
3E007C
7C007C
78003C
78003C
F0003C
F0007C
F00078
F00078
F800F8
F803F0
7F1FE0
3FFFC0
1FFF80
07FC00
ENDCHAR
STARTCHAR 0223
ENCODING 547
SWIDTH 500 0
DWIDTH 25 0
BBX 24 36 4 -1
BITMAP
00F00F
01E00F
01E00F
03C00F
03C00F
03C01E
03C01E
07801E
07801E
07803E
07803C
07807C
03C0F8
03FFF0
01FFE0
03FF80
07FFE0
1F83E0
1E01F0
3C00F0
7C00F8
7800F8
F800F8
F000F8
F000F0
F000F0
F000F0
F001F0
F001E0
F003E0
F807C0
7C1FC0
7FFF80
3FFE00
0FFC00
018000
ENDCHAR
STARTCHAR 0224
ENCODING 548
SWIDTH 500 0
DWIDTH 25 0
BBX 26 39 2 -8
BITMAP
00FFFFC0
01FFFFC0
01FFFFC0
01FFFFC0
00000F80
00001F00
00003E00
00007C00
0000F800
0000F000
0001E000
0003C000
0007C000
000F8000
001F0000
003E0000
003C0000
00780000
00F00000
01F00000
03E00000
07C00000
07800000
0F000000
1F000000
3E000000
7C000000
7FFFF800
FFFFF000
FFFFF000
FFFFF000
0000F000
0001E000
0001E000
0001E000
0003C000
007FC000
007F8000
007F0000
ENDCHAR
STARTCHAR 0225
ENCODING 549
SWIDTH 500 0
DWIDTH 25 0
BBX 22 31 3 -8
BITMAP
03FFFC
03FFFC
07FFFC
0000F8
0001F0
0003E0
0007C0
000F80
001F00
003E00
007C00
00F800
01F000
03E000
07C000
0F8000
1F0000
1E0000
3C0000
7FFFC0
FFFFC0
FFFFC0
FFFF80
000780
000780
000780
000F00
000F00
01FE00
01FE00
03F800
ENDCHAR
STARTCHAR 0226
ENCODING 550
SWIDTH 500 0
DWIDTH 25 0
BBX 23 40 0 0
BITMAP
000018
00003C
00007C
00007C
00007C
000010
000000
000000
000000
0000F8
0001F8
0001FC
0003FC
0003BC
0007BC
000F3C
000F3C
001E3C
001C3C
003C1C
00381C
00781E
00F01E
00F01E
01E01E
01E01E
03C01E
03C01E
07FFFE
07FFFE
0FFFFE
0FFFFE
1E001E
1E001E
3C001E
3C001E
78001E
78001E
F0001E
F0001E
ENDCHAR
STARTCHAR 0227
ENCODING 551
SWIDTH 500 0
DWIDTH 25 0
BBX 22 34 4 -1
BITMAP
000380
0007C0
0007C0
0007C0
0007C0
000100
000000
000000
000000
0007C0
007FFC
01FFF8
03FFF8
0FE078
1F8078
1F00F0
3E00F0
7C00F0
7800F0
F801E0
F001E0
F001E0
F001E0
F003C0
F003C0
F003C0
F003C0
F003C0
F007C0
F81FC0
7FFFC0
3FFBC0
1FF3C0
030000
ENDCHAR
STARTCHAR 0228
ENCODING 552
SWIDTH 500 0
DWIDTH 25 0
BBX 24 39 3 -8
BITMAP
01FFFF
01FFFF
01FFFF
03FFFF
03C000
03C000
03C000
078000
078000
078000
078000
0F0000
0F0000
0FFFF0
0FFFE0
1FFFE0
1FFFE0
1E0000
1E0000
3E0000
3C0000
3C0000
3C0000
7C0000
780000
780000
780000
7FFFE0
FFFFE0
FFFFC0
FFFFC0
007000
00E000
00F000
00F800
007800
007800
0FF000
0FE000
ENDCHAR
STARTCHAR 0229
ENCODING 553
SWIDTH 500 0
DWIDTH 25 0
BBX 21 32 4 -8
BITMAP
001E00
00FFE0
03FFF0
07FFF8
0FC0F8
1F0078
3E0078
3C0078
7C00F8
7800F0
F803F0
F03FE0
FFFFC0
FFFE00
FFE000
F00000
F00000
F00000
F00000
F80000
7E03C0
7FFFC0
3FFFC0
0FFF00
00E000
01C000
01E000
01F000
00F000
00F000
1FE000
1FC000
ENDCHAR
STARTCHAR 022A
ENCODING 554
SWIDTH 500 0
DWIDTH 25 0
BBX 23 42 4 -1
BITMAP
001FFE
001FFC
000000
000000
00783C
00783C
00783C
00783C
002018
000000
000380
003FE0
00FFF8
01FFFC
03F07C
07C03C
07803E
0F001E
1F001E
1E001E
3E001E
3C001E
3C001E
7C001E
78003E
78003C
78003C
F8003C
F0003C
F00078
F00078
F000F8
F000F0
F001F0
F001E0
F803C0
7807C0
7C1F80
7FFF00
3FFE00
0FF800
03C000
ENDCHAR
STARTCHAR 022B
ENCODING 555
SWIDTH 500 0
DWIDTH 25 0
BBX 22 37 4 -1
BITMAP
001FFC
001FFC
001FFC
000000
000000
007038
00F87C
00F87C
00F87C
006030
000000
000000
001F00
00FFC0
03FFE0
07FFF0
0FC1F8
1F80F8
1E0078
3E0078
3C0078
7C0078
780078
780078
F80078
F000F8
F000F0
F000F0
F001F0
F003E0
F803E0
F80FC0
7C1F80
7FFF00
3FFE00
1FF800
010000
ENDCHAR
STARTCHAR 022C
ENCODING 556
SWIDTH 500 0
DWIDTH 25 0
BBX 23 42 4 -1
BITMAP
001FFE
001FFE
000000
000000
001F0C
003FDC
007FFC
0061F8
002000
000000
000380
003FE0
00FFF8
01FFFC
03F07C
07C03C
07803E
0F001E
1F001E
1E001E
3E001E
3C001E
3C001E
7C001E
78003E
78003C
78003C
F8003C
F0003C
F00078
F00078
F000F8
F000F0
F001F0
F001E0
F803C0
7807C0
7C1F80
7FFF00
3FFE00
0FF800
03C000
ENDCHAR
STARTCHAR 022D
ENCODING 557
SWIDTH 500 0
DWIDTH 25 0
BBX 22 37 4 -1
BITMAP
001FFC
001FFC
001FFC
000000
000000
001E08
003F9C
007FF8
00E3F8
004040
000000
000000
001F00
00FFC0
03FFE0
07FFF0
0FC1F8
1F80F8
1E0078
3E0078
3C0078
7C0078
780078
780078
F80078
F000F8
F000F0
F000F0
F001F0
F003E0
F803E0
F80FC0
7C1F80
7FFF00
3FFE00
1FF800
010000
ENDCHAR
STARTCHAR 022E
ENCODING 558
SWIDTH 500 0
DWIDTH 25 0
BBX 23 41 4 -1
BITMAP
0000C0
0001E0
0003F0
0003F0
0001E0
000080
000000
000000
000380
003FE0
00FFF8
01FFF8
03F07C
07C03C
07803E
0F801E
0F001E
1E001E
1E001E
3C001E
3C001E
3C001E
78001E
78003E
78003C
78003C
F0003C
F0007C
F00078
F00078
F000F0
F000F0
F001F0
F001E0
F803C0
7807C0
7C1F80
3FFF00
3FFE00
0FF800
03C000
ENDCHAR
STARTCHAR 022F
ENCODING 559
SWIDTH 500 0
DWIDTH 25 0
BBX 21 34 4 -1
BITMAP
000380
0007C0
0007C0
0007C0
000780
000200
000000
000000
000000
001F00
00FFC0
03FFE0
07FFF0
0FC1F8
1F80F8
1E0078
3E0078
3C0078
7C0078
780078
780078
F80078
F000F8
F000F0
F000F0
F001F0
F003E0
F803E0
F80FC0
7C1F80
7FFF00
3FFE00
1FF800
010000
ENDCHAR
STARTCHAR 0230
ENCODING 560
SWIDTH 500 0
DWIDTH 25 0
BBX 23 42 4 -1
BITMAP
000FFE
000FFE
000000
000000
0001C0
0003E0
0003E0
0003C0
000180
000000
000380
003FE0
00FFF8
01FFFC
03F07C
07C03C
07803E
0F001E
1F001E
1E001E
3E001E
3C001E
3C001E
7C001E
78003E
78003C
78003C
F8003C
F0003C
F00078
F00078
F000F8
F000F0
F001F0
F001E0
F803C0
7807C0
7C1F80
7FFF00
3FFE00
0FF800
03C000
ENDCHAR
STARTCHAR 0231
ENCODING 561
SWIDTH 500 0
DWIDTH 25 0
BBX 22 37 4 -1
BITMAP
001FFC
001FFC
003FFC
000000
000000
000780
000780
000F80
000780
000300
000000
000000
001F00
00FFC0
03FFE0
07FFF0
0FC1F8
1F80F8
1E0078
3E0078
3C0078
7C0078
780078
780078
F80078
F000F8
F000F0
F000F0
F001F0
F003E0
F803E0
F80FC0
7C1F80
7FFF00
3FFE00
1FF800
010000
ENDCHAR
STARTCHAR 0232
ENCODING 562
SWIDTH 500 0
DWIDTH 25 0
BBX 24 39 7 0
BITMAP
00FFF0
01FFF0
01FFF0
01FFF0
000000
000000
000000
000000
F0001F
78001E
78003E
78007C
780078
7800F8
3C01F0
3C01E0
3C03C0
3C07C0
1E0780
1E0F00
1E1E00
1E3E00
0F3C00
0F7800
0FF000
07E000
07C000
03C000
078000
078000
078000
078000
0F0000
0F0000
0F0000
0F0000
1F0000
1E0000
1E0000
ENDCHAR
STARTCHAR 0233
ENCODING 563
SWIDTH 500 0
DWIDTH 25 0
BBX 28 40 -1 -8
BITMAP
0007FFC0
0007FFC0
0007FF80
00000000
00000000
00000000
00000000
00000000
00000000
00F001F0
00F001E0
00F001E0
00F003E0
00F003C0
00F003C0
00F80780
00780780
00780F80
00780F00
00780F00
00781E00
007C1E00
003C3C00
003C3C00
003C7800
003C7800
001EF000
001EF000
001FE000
001FC000
000FC000
000F8000
000F0000
001F0000
003E0000
007C0000
41F80000
7FF00000
FFE00000
FF800000
ENDCHAR
STARTCHAR 0234
ENCODING 564
SWIDTH 500 0
DWIDTH 25 0
BBX 20 42 2 -8
BITMAP
00FFC0
01FFC0
01FFC0
0003C0
000780
000780
000780
000780
000F80
000F00
000F00
000F00
001F00
001E00
001E00
001E00
003E00
003C00
003C00
003C00
007C00
007800
007800
007800
007800
00F000
00F000
00F000
00F000
01E000
01EFC0
01FFE0
01FFE0
03E0F0
03C0F0
07C0F0
0FC0F0
1FC0E0
3FE1E0
79FFC0
F1FF80
607F00
ENDCHAR
STARTCHAR 0235
ENCODING 565
SWIDTH 500 0
DWIDTH 25 0
BBX 24 32 1 -8
BITMAP
003C00
03FF00
07FF80
07FFC0
0787C0
0F83C0
0F03C0
0F03C0
0F03C0
1F03C0
1E0780
1E0780
1E0780
3E0780
3C0F80
3C0F00
3C0F00
7C0F00
781F00
781E00
781FFC
F81FFE
F03FFE
F03E0F
003C0F
007C0F
00FC0E
01FC0E
03FC1E
079FFC
0F1FF8
0607E0
ENDCHAR
STARTCHAR 0236
ENCODING 566
SWIDTH 500 0
DWIDTH 25 0
BBX 24 38 2 -8
BITMAP
000F80
000F00
000F00
000F00
001F00
001E00
001E00
03FFFF
03FFFF
07FFFF
003C00
003C00
007C00
007800
007800
007800
007800
00F000
00F000
00F000
00F000
01F000
01E000
01E000
01E000
03E000
03DF80
03FFC0
03FFC0
07E1E0
0780E0
0F80E0
1F81E0
3F81C0
7BC3C0
F3FF80
E1FF00
C0FE00
ENDCHAR
STARTCHAR 0237
ENCODING 567
SWIDTH 500 0
DWIDTH 25 0
BBX 23 31 1 -8
BITMAP
007FFE
007FFC
007FFC
00003C
00003C
000078
000078
000078
000078
0000F8
0000F0
0000F0
0000F0
0001F0
0001E0
0001E0
0001E0
0003E0
0003C0
0003C0
0003C0
0007C0
000780
000780
000780
000F00
401F00
783E00
7FFE00
FFF800
3FF000
ENDCHAR
STARTCHAR 0238
ENCODING 568
SWIDTH 500 0
DWIDTH 25 0
BBX 24 36 2 -1
BITMAP
000010
0000F0
0000E0
0001E0
0001E0
0001E0
0001C0
0003C0
0003C0
0003C0
000380
007798
01FFFE
03FFFE
07FFDF
0F870F
1F0F0F
1E0F07
3E0E07
3C0E07
3C1E0F
781E0F
781E0F
781C0F
783C0F
F03C1F
F03C1E
F0381E
F0783C
F0783C
787878
7870F8
7FFFF0
3FFFE0
1FFFC0
060400
ENDCHAR
STARTCHAR 0239
ENCODING 569
SWIDTH 500 0
DWIDTH 25 0
BBX 25 32 2 -8
BITMAP
00303800
01FFFC00
03FFFE00
07FFFF00
0F870F00
1F0F0F00
1E0F0700
3E0E0700
3C0E0780
3C1E0700
781E0F00
781E0F00
781C0F00
783C0F00
783C1F00
F03C1E00
F0381E00
F0783C00
F0783C00
70787800
7870F800
7FFFF000
3FFFE000
3FFFC000
0CE60000
01E00000
01E00000
01E00000
01C00000
03C00000
03C00000
03C00000
ENDCHAR
STARTCHAR 023A
ENCODING 570
SWIDTH 500 0
DWIDTH 25 0
BBX 28 38 0 -4
BITMAP
000000F0
000000E0
000001E0
0000FDC0
0000FFC0
0001FF80
0003FF80
0003FF00
00079F00
00079E00
000F1E00
000E1C00
001E3E00
003C3E00
003C7E00
00787E00
0078FE00
00F0FE00
00E1FE00
01E1DE00
01C3DE00
03C39E00
03879E00
07FFFE00
0FFFFE00
0FFFFE00
1E1E1E00
1E1C1E00
3C3C1F00
3C381F00
78781F00
78701F00
F0F01F00
F0E01F00
01E00000
01C00000
03C00000
03800000
ENDCHAR
STARTCHAR 023B
ENCODING 571
SWIDTH 500 0
DWIDTH 25 0
BBX 25 39 4 -5
BITMAP
00000400
00000F00
00000F00
00007E00
000FFF00
003FFF80
007FFF80
01FC7F80
03F07100
03E0F000
07C0E000
0F81E000
0F01C000
1E03C000
1E038000
3C078000
3C070000
7C0F0000
780E0000
781E0000
781C0000
783C0000
78380000
F8780000
F8700000
F8F00000
78E00000
79E00000
79C00000
7FC00000
3F804000
3F81C000
1FFFC000
0FFFC000
1FFF8000
1E780000
3C000000
38000000
38000000
ENDCHAR
STARTCHAR 023C
ENCODING 572
SWIDTH 500 0
DWIDTH 25 0
BBX 22 31 4 -3
BITMAP
000038
000038
000070
000FF0
007FFC
01FFF8
03FFF8
0FE1C8
1F8380
1F0380
3E0700
3C0700
7C0E00
780C00
F81C00
F01800
F03800
F07000
F07000
F0E000
F0E000
F9C000
7DC000
7F81C0
3FFFC0
1FFFC0
07FF80
0E7000
0E0000
1C0000
040000
ENDCHAR
STARTCHAR 023D
ENCODING 573
SWIDTH 500 0
DWIDTH 25 0
BBX 18 31 4 0
BITMAP
00F000
00F000
01F000
01E000
01E000
01E000
01E000
03C000
03C000
03C000
03C000
078000
078000
7FFF00
7FFF00
7FFF00
FFFE00
0F0000
0F0000
1F0000
1E0000
1E0000
1E0000
3E0000
3C0000
3C0000
3C0000
7FFFC0
7FFFC0
7FFFC0
7FFF80
ENDCHAR
STARTCHAR 023E
ENCODING 574
SWIDTH 500 0
DWIDTH 25 0
BBX 31 35 1 -2
BITMAP
00000004
0000000E
0000001E
01FFFFFC
01FFFFF8
01FFFFF8
01FFFFF0
0001E1E0
0001E3C0
0003C780
0003CF00
0003DE00
0003DC00
0007BC00
0007F800
0007F000
0007E000
000FC000
000F8000
000F0000
000F0000
001F0000
003E0000
007E0000
00FE0000
01FE0000
03FC0000
03BC0000
073C0000
0F7C0000
1E780000
3C780000
78780000
F0780000
E0000000
ENDCHAR
STARTCHAR 023F
ENCODING 575
SWIDTH 500 0
DWIDTH 25 0
BBX 21 32 4 -8
BITMAP
001F80
00FFF8
01FFF8
03FFF0
07C030
078000
0F0000
0F0000
0F8000
07C000
07F000
03FC00
01FF00
007F80
000FC0
0007C0
0003C0
0003C0
0003C0
4007C0
781F80
7FFF80
FFFF00
7FFC00
3C0000
1C0000
1E0000
0F0000
0FC000
07FE00
03FE00
01FC00
ENDCHAR
STARTCHAR 0240
ENCODING 576
SWIDTH 500 0
DWIDTH 25 0
BBX 22 31 3 -8
BITMAP
03FFFC
03FFFC
07FFFC
0000F8
0001F0
0003E0
0007C0
000F80
001F00
003E00
007C00
00F800
01F000
03E000
07C000
0F8000
1F0000
1E0000
3C0000
780000
FC0000
FF0000
FF8000
0FC000
03E000
01E000
01F000
00FE80
007F80
003F80
001F80
ENDCHAR
STARTCHAR 0241
ENCODING 577
SWIDTH 500 0
DWIDTH 25 0
BBX 19 32 7 0
BITMAP
007000
0FFF00
3FFFC0
3FFFC0
3C03E0
2001E0
0001E0
0001E0
0001E0
0001E0
0003E0
0007C0
000FC0
003F80
00FE00
03FC00
07F000
0FC000
1F0000
1F0000
3E0000
3C0000
3C0000
3C0000
7C0000
780000
780000
780000
F80000
F00000
F00000
F00000
ENDCHAR
STARTCHAR 0242
ENCODING 578
SWIDTH 500 0
DWIDTH 25 0
BBX 17 24 8 0
BITMAP
07F000
3FFC00
7FFE00
7FFF00
600F00
000F80
000F80
000F00
000F00
001F00
007E00
01FC00
07F000
0FC000
1F8000
3E0000
3C0000
780000
780000
780000
F80000
F00000
F00000
F00000
ENDCHAR
STARTCHAR 0243
ENCODING 579
SWIDTH 500 0
DWIDTH 25 0
BBX 24 31 3 0
BITMAP
00FFF0
00FFFC
01FFFE
01E07E
01E01F
01E01F
03E00F
03C00F
03C00F
03C01E
03C01E
07803C
0780F8
07FFF0
07FFC0
0FFFE0
0FFFF0
0F00F8
0F007C
1F003C
1E003C
FFF03C
FFF03C
FFF07C
3C0078
3C00F8
3C01F0
7C0FE0
7FFFC0
7FFF80
7FFC00
ENDCHAR
STARTCHAR 0244
ENCODING 580
SWIDTH 500 0
DWIDTH 25 0
BBX 24 32 4 -1
BITMAP
03C00F
03C00F
03C01E
07801E
07801E
07801E
07803C
0F803C
0F003C
0F003C
0F0078
1F0078
1E0078
FFFFFE
FFFFFE
FFFFFE
3C00F0
3C00F0
3C01F0
3C01E0
7801E0
7801E0
7803E0
7803C0
7803C0
7807C0
780780
7C1F80
3FFF00
3FFE00
1FF800
03C000
ENDCHAR
STARTCHAR 0245
ENCODING 581
SWIDTH 500 0
DWIDTH 25 0
BBX 23 31 0 0
BITMAP
0000F8
0001F8
0001FC
0003FC
0003BC
0007BC
000F3C
000F3C
001E3C
001C3C
003C1C
00381C
00781E
00F01E
00F01E
01E01E
01E01E
03C01E
03C01E
07801E
07801E
0F001E
0F001E
1E001E
1E001E
3C001E
3C001E
78001E
78001E
F0001E
F0001E
ENDCHAR
STARTCHAR 0246
ENCODING 582
SWIDTH 500 0
DWIDTH 25 0
BBX 28 39 3 -5
BITMAP
000000C0
000000F0
000001E0
01FFFFC0
01FFFFC0
01FFFF80
03FFFF00
03C00F00
03C01E00
03C01E00
07803C00
07803800
07807800
0780F000
0F00E000
0F01E000
0FFFF800
0FFFF800
1FFFF800
1FFFF800
1E0F0000
1E1E0000
3E1C0000
3C3C0000
3C780000
3C780000
7CF00000
78E00000
79E00000
7BC00000
7FFFF000
FFFFF000
FFFFF000
FFFFF000
1E000000
1C000000
3C000000
78000000
30000000
ENDCHAR
STARTCHAR 0247
ENCODING 583
SWIDTH 500 0
DWIDTH 25 0
BBX 22 32 4 -4
BITMAP
000080
0001C0
0001C0
0003C0
000F80
00FFE0
01FFF0
07FFF8
0FCE78
1F0E7C
1E1E3C
3E1C78
3C1C78
7838F8
7839F0
787FE0
FFFFC0
FFFF00
FFE000
F1E000
F1C000
F1C000
F38000
7B8000
7F81C0
3FFFC0
1FFFC0
0FFF80
0E7000
1C0000
1C0000
180000
ENDCHAR
STARTCHAR 0248
ENCODING 584
SWIDTH 500 0
DWIDTH 25 0
BBX 24 32 3 -1
BITMAP
007FFF
007FFE
007FFE
00FFFE
00001E
00003E
00003C
00003C
00003C
00007C
000078
000078
000078
003FFF
003FFF
003FFF
003FFE
0001F0
0001E0
0001E0
0001E0
0003E0
0003C0
0003C0
0007C0
000780
600F80
F83F00
FFFF00
FFFC00
3FF800
038000
ENDCHAR
STARTCHAR 0249
ENCODING 585
SWIDTH 500 0
DWIDTH 25 0
BBX 24 41 0 -7
BITMAP
00001E
00003F
00003F
00007F
00003F
00003E
000000
000000
000000
000000
007FFE
007FFE
007FFC
00003C
00003C
00007C
000078
000078
000078
01FFFF
01FFFF
01FFFF
0000F0
0000F0
0001E0
0001E0
0001E0
0001E0
0003C0
0003C0
0003C0
0003C0
0007C0
000780
000780
000F80
001F00
783F00
7FFE00
FFFC00
3FF000
ENDCHAR
STARTCHAR 024A
ENCODING 586
SWIDTH 500 0
DWIDTH 25 0
BBX 22 40 4 -8
BITMAP
000700
007FC0
00FFF0
01FFF0
03E0F8
07C078
0F807C
0F003C
1E003C
1E003C
3C003C
3C003C
3C003C
78003C
78007C
780078
F80078
F00078
F00078
F000F8
F000F0
F000F0
F001F0
F001F0
F003E0
F003E0
F007E0
F80FE0
7C3FC0
7FFFC0
3FFBC0
1FF3C0
038780
000780
000780
000780
000780
0007F0
0007E0
0003E0
ENDCHAR
STARTCHAR 024B
ENCODING 587
SWIDTH 500 0
DWIDTH 25 0
BBX 22 32 4 -8
BITMAP
0003E0
007FFC
01FFFC
03FFFC
07E07C
0F8078
1F0078
3E0078
3C00F8
7C00F0
7800F0
7800F0
F801F0
F001E0
F001E0
F001E0
F003E0
F003C0
F803C0
F807C0
7C0FC0
7FFF80
3FFF80
1FF780
010F80
000F00
000F00
000F00
000F80
000FE0
000FE0
0007E0
ENDCHAR
STARTCHAR 024C
ENCODING 588
SWIDTH 500 0
DWIDTH 25 0
BBX 23 31 3 0
BITMAP
01FFE0
01FFF8
01FFFC
01E0FE
03E03E
03C01E
03C01E
03C01E
03C01E
07801E
07801E
07801E
07803C
0F007C
0F01F8
7FFFF0
FFFFE0
FFFF80
FFFF00
1E0F00
1E0780
3E0780
3C0780
3C03C0
3C03C0
7C03C0
7803E0
7801E0
7801E0
7801E0
F001E0
ENDCHAR
STARTCHAR 024D
ENCODING 589
SWIDTH 500 0
DWIDTH 25 0
BBX 23 24 3 0
BITMAP
0001F8
00FFFE
01FFFC
03FFFC
03E004
03C000
03C000
07C000
078000
078000
078000
0F8000
FFFF00
FFFF00
FFFF00
1F0000
1E0000
1E0000
1E0000
1E0000
3C0000
3C0000
3C0000
3C0000
ENDCHAR
STARTCHAR 024E
ENCODING 590
SWIDTH 500 0
DWIDTH 25 0
BBX 26 31 5 0
BITMAP
3C0007C0
1E000780
1E000F80
1E001F00
1E001E00
1E003E00
0F007C00
FFFFFF80
FFFFFF80
FFFFFF80
0701E000
0783C000
07878000
078F8000
03CF0000
03DE0000
03FC0000
01F80000
01F00000
00F00000
01E00000
01E00000
01E00000
01E00000
03C00000
03C00000
03C00000
03C00000
07C00000
07800000
07800000
ENDCHAR
STARTCHAR 024F
ENCODING 591
SWIDTH 500 0
DWIDTH 25 0
BBX 28 31 -1 -8
BITMAP
00F001F0
00F001E0
00F001E0
00F003E0
00F003C0
00F003C0
00F80780
00780780
00780780
03FFFFE0
03FFFFE0
07FFFFE0
007C1E00
003C3C00
003C3C00
003C7800
003C7800
001EF000
001EF000
001FE000
001FC000
000FC000
000F8000
000F0000
001F0000
003E0000
007C0000
41F80000
7FF00000
FFE00000
FF800000
ENDCHAR
STARTCHAR 0292
ENCODING 658
SWIDTH 500 0
DWIDTH 25 0
BBX 23 31 2 -8
BITMAP
01FFFE
03FFFE
03FFFE
00003C
000078
0000F0
0001E0
0003C0
000780
000F00
001E00
007C00
00F800
00FC00
01FF00
01FFC0
0007C0
0003E0
0001E0
0001E0
0001E0
0001E0
0001E0
0001E0
0003E0
0007C0
000FC0
F87F80
FFFF00
FFFC00
7FF000
ENDCHAR
STARTCHAR 02BC
ENCODING 700
SWIDTH 500 0
DWIDTH 25 0
BBX 7 10 14 25
BITMAP
1E
1E
3E
3C
3C
78
78
F0
E0
40
ENDCHAR
STARTCHAR 02C6
ENCODING 710
SWIDTH 500 0
DWIDTH 25 0
BBX 11 8 13 26
BITMAP
0600
0F00
1F00
3F80
7BC0
F1E0
E0E0
8040
ENDCHAR
STARTCHAR 02C7
ENCODING 711
SWIDTH 500 0
DWIDTH 25 0
BBX 12 7 13 27
BITMAP
6060
F0F0
79E0
3FC0
3F80
1F00
0E00
ENDCHAR
STARTCHAR 02C9
ENCODING 713
SWIDTH 500 0
DWIDTH 25 0
BBX 13 3 12 29
BITMAP
FFF8
FFF8
FFF0
ENDCHAR
STARTCHAR 02D8
ENCODING 728
SWIDTH 500 0
DWIDTH 25 0
BBX 12 6 13 27
BITMAP
E070
E0F0
F1E0
7FE0
3F80
0E00
ENDCHAR
STARTCHAR 02D9
ENCODING 729
SWIDTH 500 0
DWIDTH 25 0
BBX 5 6 16 27
BITMAP
70
F8
F8
F8
F0
40
ENDCHAR
STARTCHAR 02DA
ENCODING 730
SWIDTH 500 0
DWIDTH 25 0
BBX 9 9 14 26
BITMAP
1C00
7F00
E700
C380
C180
C180
E380
7F00
3E00
ENDCHAR
STARTCHAR 02DB
ENCODING 731
SWIDTH 500 0
DWIDTH 25 0
BBX 8 8 6 -8
BITMAP
0F
1E
38
70
F0
FF
FE
7E
ENDCHAR
STARTCHAR 02DC
ENCODING 732
SWIDTH 500 0
DWIDTH 25 0
BBX 15 6 11 27
BITMAP
0008
3F0E
7FFC
FFFC
E1F0
4000
ENDCHAR
STARTCHAR 02DD
ENCODING 733
SWIDTH 500 0
DWIDTH 25 0
BBX 15 9 11 26
BITMAP
0400
040C
0E1E
1F3E
3C7C
78F8
F1F0
E1C0
C080
ENDCHAR
STARTCHAR 0311
ENCODING 785
SWIDTH 500 0
DWIDTH 25 0
BBX 12 6 12 27
BITMAP
1FC0
3FE0
7DF0
F070
E070
E070
ENDCHAR
STARTCHAR 0384
ENCODING 900
SWIDTH 500 0
DWIDTH 25 0
BBX 9 9 14 26
BITMAP
0200
0700
0F80
1F00
1E00
3C00
7800
F000
6000
ENDCHAR
STARTCHAR 0385
ENCODING 901
SWIDTH 500 0
DWIDTH 25 0
BBX 17 9 10 26
BITMAP
004000
00E000
60F300
F1E780
F1CF80
F3CF80
E78700
070000
020000
ENDCHAR
STARTCHAR 0386
ENCODING 902
SWIDTH 500 0
DWIDTH 25 0
BBX 24 32 0 0
BITMAP
004000
0078FC
00F8FC
00F1FC
00F1FC
01E3FC
01C7BC
03C71C
038F1C
018E1E
001E1E
003C1E
003C1E
00781E
00781E
00F01E
00F01E
01E01E
01C01E
03C01E
03FFFE
07FFFE
07FFFE
0FFFFE
0E000F
1E000F
3C000F
3C000F
78000F
78001F
F8001F
F0001F
ENDCHAR
STARTCHAR 0388
ENCODING 904
SWIDTH 500 0
DWIDTH 25 0
BBX 27 31 0 1
BITMAP
1E3FFFE0
1E7FFFE0
1E7FFFC0
3C7FFFC0
3C780000
78F80000
70F00000
F0F00000
60F00000
01F00000
01E00000
01E00000
01E00000
03FFFC00
03FFFC00
03FFFC00
03FFF800
03C00000
07800000
07800000
07800000
07800000
0F000000
0F000000
0F000000
0F000000
1E000000
1FFFFC00
1FFFF800
1FFFF800
3FFFF800
ENDCHAR
STARTCHAR 0389
ENCODING 905
SWIDTH 500 0
DWIDTH 25 0
BBX 30 32 -1 0
BITMAP
08000000
0E3C003C
1F3C007C
1E3C0078
3C780078
3C780078
787800F8
787800F0
F0F800F0
20F000F0
00F001F0
00F001E0
01F001E0
01E001E0
01FFFFE0
01FFFFC0
03FFFFC0
03FFFFC0
03C003C0
03C00780
03C00780
07800780
07800780
07800F00
07800F00
0F000F00
0F000F00
0F001F00
0F001E00
1E001E00
1E001E00
1E003E00
ENDCHAR
STARTCHAR 038A
ENCODING 906
SWIDTH 500 0
DWIDTH 25 0
BBX 26 31 1 1
BITMAP
1E3FFFC0
1E3FFFC0
1E7FFF80
3C7FFF80
3C01E000
7801E000
7003E000
F003C000
6003C000
0003C000
0007C000
00078000
00078000
00078000
000F8000
000F0000
000F0000
000F0000
001F0000
001E0000
001E0000
001E0000
001E0000
003C0000
003C0000
003C0000
003C0000
1FFFE000
1FFFE000
1FFFE000
1FFFE000
ENDCHAR
STARTCHAR 038C
ENCODING 908
SWIDTH 500 0
DWIDTH 25 0
BBX 26 33 1 -1
BITMAP
0800E000
0E07FC00
1E1FFE00
1E3FFF00
3C7C1F80
3CF80F80
79F00780
71E00780
F3C007C0
23C007C0
078007C0
078007C0
0F8007C0
0F000780
0F000780
0F000780
1E000780
1E000780
1E000F00
1E000F00
1E000F00
1E001E00
1E001E00
1E003E00
1E003C00
1E007C00
1E00F800
1F01F000
0F83E000
0FFFC000
07FF8000
03FF0000
00700000
ENDCHAR
STARTCHAR 038E
ENCODING 910
SWIDTH 500 0
DWIDTH 25 0
BBX 32 31 -2 1
BITMAP
1E78000F
1E78001F
3E78001E
3C78003C
783C007C
783C0078
F03C00F0
F03C01F0
601E03E0
001E03C0
001E0780
001E0F80
000F0F00
000F1E00
000F3C00
00077800
0007F800
0007F000
0003E000
0003C000
0003C000
0003C000
00078000
00078000
00078000
00078000
000F8000
000F0000
000F0000
000F0000
001F0000
ENDCHAR
STARTCHAR 038F
ENCODING 911
SWIDTH 500 0
DWIDTH 25 0
BBX 27 32 0 0
BITMAP
00003800
0F03FE00
0F0FFF80
1E1FFF80
1E3F0FC0
3C7C07C0
3CF803E0
79F003E0
71E001E0
33E001E0
03C001E0
07C001E0
078001E0
078003E0
0F8003E0
0F8003C0
0F0003C0
0F0007C0
0F000780
0F000780
0F000F00
0F000F00
0F001E00
0F001E00
0F003C00
07807800
07807800
0780F000
7FC1FF00
FFC3FF00
FFC7FE00
FFC7FE00
ENDCHAR
STARTCHAR 0390
ENCODING 912
SWIDTH 500 0
DWIDTH 25 0
BBX 19 34 7 1
BITMAP
003800
187880
7C7BE0
7CF3E0
7DE3E0
39C3C0
03C000
018000
000000
000000
000000
FFE000
FFE000
FFE000
03C000
03C000
03C000
03C000
078000
078000
078000
078000
0F8000
0F0000
0F0000
0F0000
0F0000
0F0000
0F0000
0F0000
0FC400
0FFC00
07FC00
01FC00
ENDCHAR
STARTCHAR 0391
ENCODING 913
SWIDTH 500 0
DWIDTH 25 0
BBX 23 31 0 0
BITMAP
0000F8
0001F8
0001FC
0003FC
0003BC
0007BC
000F3C
000F3C
001E3C
001C3C
003C1C
00381C
00781E
00F01E
00F01E
01E01E
01E01E
03C01E
03C01E
07FFFE
07FFFE
0FFFFE
0FFFFE
1E001E
1E001E
3C001E
3C001E
78001E
78001E
F0001E
F0001E
ENDCHAR
STARTCHAR 0392
ENCODING 914
SWIDTH 500 0
DWIDTH 25 0
BBX 24 31 2 0
BITMAP
01FFF0
01FFFC
01FFFE
01E07F
03E01F
03C00F
03C00F
03C00F
07C00F
07800F
07801E
07803E
0780FC
0FFFF0
0FFFE0
0FFFF0
0FFFF8
1E007C
1E003C
1E003C
1E003C
3C003C
3C003C
3C003C
3C007C
7800F8
7801F8
780FF0
7FFFC0
FFFF80
FFFC00
ENDCHAR
STARTCHAR 0393
ENCODING 915
SWIDTH 500 0
DWIDTH 25 0
BBX 28 31 1 0
BITMAP
000FFFF0
000FFFF0
000FFFE0
001FFFE0
001E0000
001E0000
001E0000
003E0000
003C0000
003C0000
003C0000
007C0000
00780000
00780000
00780000
00F80000
00F00000
00F00000
00F00000
00F00000
01E00000
01E00000
01E00000
01E00000
03C00000
03C00000
03C00000
7FFF0000
7FFF0000
7FFF0000
FFFF0000
ENDCHAR
STARTCHAR 0394
ENCODING 916
SWIDTH 500 0
DWIDTH 25 0
BBX 23 31 0 0
BITMAP
0000F8
0001F8
0001FC
0003FC
0003BC
0007BC
000F3C
000F3C
001E3C
001C3C
003C1C
00381C
00781E
00F01E
00F01E
01E01E
01E01E
03C01E
03C01E
07801E
07801E
0F001E
0F001E
1E001E
1E001E
3C001E
3C001E
7FFFFE
7FFFFE
FFFFFE
FFFFFE
ENDCHAR
STARTCHAR 0395
ENCODING 917
SWIDTH 500 0
DWIDTH 25 0
BBX 24 31 4 0
BITMAP
01FFFF
01FFFF
03FFFF
03FFFF
03C000
03C000
07C000
078000
078000
078000
078000
0F0000
0F0000
0FFFE0
0FFFE0
1FFFE0
1FFFE0
1E0000
1E0000
3C0000
3C0000
3C0000
3C0000
7C0000
780000
780000
780000
FFFFE0
FFFFE0
FFFFC0
FFFFC0
ENDCHAR
STARTCHAR 0396
ENCODING 918
SWIDTH 500 0
DWIDTH 25 0
BBX 26 31 2 0
BITMAP
00FFFFC0
01FFFFC0
01FFFFC0
01FFFFC0
00000F80
00001F00
00003E00
00007C00
0000F800
0000F000
0001E000
0003C000
0007C000
000F8000
001F0000
003E0000
003C0000
00780000
00F00000
01F00000
03E00000
07C00000
07800000
0F000000
1F000000
3E000000
7C000000
7FFFF800
FFFFF000
FFFFF000
FFFFF000
ENDCHAR
STARTCHAR 0397
ENCODING 919
SWIDTH 500 0
DWIDTH 25 0
BBX 27 31 2 0
BITMAP
01E001E0
01E003E0
01E003C0
03C003C0
03C003C0
03C007C0
03C00780
07C00780
07800780
07800F80
07800F00
0F800F00
0F000F00
0FFFFF00
0FFFFE00
1FFFFE00
1FFFFE00
1E001E00
1E003C00
1E003C00
3C003C00
3C003C00
3C007800
3C007800
78007800
78007800
7800F800
7800F000
F000F000
F000F000
F001F000
ENDCHAR
STARTCHAR 0398
ENCODING 920
SWIDTH 500 0
DWIDTH 25 0
BBX 23 33 4 -1
BITMAP
000380
003FE0
00FFF8
01FFF8
03F07C
07C03C
07803E
0F801E
0F001E
1E001E
1E001E
3C001E
3C001E
3C001E
78001E
78FE3E
78FE3C
78FE3C
F0003C
F0007C
F00078
F00078
F000F0
F000F0
F001F0
F001E0
F803C0
7807C0
7C1F80
3FFF00
3FFE00
0FF800
03C000
ENDCHAR
STARTCHAR 0399
ENCODING 921
SWIDTH 500 0
DWIDTH 25 0
BBX 23 31 4 0
BITMAP
01FFFE
01FFFE
03FFFC
03FFFC
000F00
000F00
001F00
001E00
001E00
001E00
003E00
003C00
003C00
003C00
007C00
007800
007800
007800
00F800
00F000
00F000
00F000
00F000
01E000
01E000
01E000
01E000
FFFF00
FFFF00
FFFF00
FFFF00
ENDCHAR
STARTCHAR 039A
ENCODING 922
SWIDTH 500 0
DWIDTH 25 0
BBX 27 31 2 0
BITMAP
00F003E0
01E007C0
01E00F80
01E01F00
01E03E00
03C07C00
03C0F800
03C1F000
03C3E000
0787C000
078F8000
079F0000
07BE0000
0FFC0000
0FF80000
0FF80000
0FFC0000
1F7C0000
1E3E0000
1E1F0000
1E0F0000
1E0F8000
3C078000
3C03C000
3C03C000
3C01E000
7801E000
7801F000
7800F000
7800F800
F0007800
ENDCHAR
STARTCHAR 039B
ENCODING 923
SWIDTH 500 0
DWIDTH 25 0
BBX 23 31 0 0
BITMAP
0000F8
0001F8
0001FC
0003FC
0003BC
0007BC
000F3C
000F3C
001E3C
001C3C
003C1C
00381C
00781E
00F01E
00F01E
01E01E
01E01E
03C01E
03C01E
07801E
07801E
0F001E
0F001E
1E001E
1E001E
3C001E
3C001E
78001E
78001E
F0001E
F0001E
ENDCHAR
STARTCHAR 039C
ENCODING 924
SWIDTH 500 0
DWIDTH 25 0
BBX 27 31 1 0
BITMAP
007801E0
007C03E0
007C03E0
00FC07E0
00FC07C0
00FC0FC0
01DC1FC0
01DC1DC0
01DC39C0
03DC3BC0
039C7380
039C7380
079CE380
071CE380
071DC780
0F0FC780
0F0F8700
0E0F0700
1E0F0F00
1E000F00
1E000F00
1C000F00
3C000E00
3C001E00
3C001E00
78001E00
78001E00
78003C00
70003C00
F0003C00
F0003C00
ENDCHAR
STARTCHAR 039D
ENCODING 925
SWIDTH 500 0
DWIDTH 25 0
BBX 27 31 2 0
BITMAP
01F001E0
01F001E0
01F001C0
01F803C0
03F803C0
03F803C0
03F80380
03BC0780
07BC0780
079C0780
079E0700
071E0F00
0F0E0F00
0F0E0F00
0F0F0E00
0E0F0E00
1E071E00
1E071E00
1E071E00
1C079C00
1C07BC00
3C03BC00
3C03BC00
3C03B800
3803F800
7803F800
7801F800
7801F000
7001F000
F001F000
F001F000
ENDCHAR
STARTCHAR 039E
ENCODING 926
SWIDTH 500 0
DWIDTH 25 0
BBX 28 31 1 0
BITMAP
00FFFFF0
00FFFFE0
01FFFFE0
01FFFFE0
00000000
00000000
00000000
00000000
00000000
00000000
00000000
00000000
00000000
01FFFE00
03FFFE00
03FFFC00
03FFFC00
00000000
00000000
00000000
00000000
00000000
00000000
00000000
00000000
00000000
00000000
7FFFFC00
7FFFF800
7FFFF800
FFFFF800
ENDCHAR
STARTCHAR 039F
ENCODING 927
SWIDTH 500 0
DWIDTH 25 0
BBX 23 33 4 -1
BITMAP
000380
003FE0
00FFF8
01FFF8
03F07C
07C03C
07803E
0F801E
0F001E
1E001E
1E001E
3C001E
3C001E
3C001E
78001E
78003E
78003C
78003C
F0003C
F0007C
F00078
F00078
F000F0
F000F0
F001F0
F001E0
F803C0
7807C0
7C1F80
3FFF00
3FFE00
0FF800
03C000
ENDCHAR
STARTCHAR 03A0
ENCODING 928
SWIDTH 500 0
DWIDTH 25 0
BBX 27 31 2 0
BITMAP
01FFFFE0
01FFFFE0
01FFFFC0
03FFFFC0
03C003C0
03C007C0
03C00780
07C00780
07800780
07800F80
07800F00
0F800F00
0F000F00
0F001F00
0F001E00
1F001E00
1E001E00
1E001E00
1E003C00
1E003C00
3C003C00
3C003C00
3C007800
3C007800
78007800
78007800
7800F800
7800F000
F000F000
F000F000
F001F000
ENDCHAR
STARTCHAR 03A1
ENCODING 929
SWIDTH 500 0
DWIDTH 25 0
BBX 24 31 3 0
BITMAP
01FFE0
01FFF8
03FFFC
03C0FE
03C03F
03C01F
03C00F
07800F
07800F
07800F
07800F
0F001E
0F001E
0F003C
0F007C
1E03F8
1FFFF0
1FFFC0
1FFF00
3E0000
3C0000
3C0000
3C0000
7C0000
780000
780000
780000
780000
F00000
F00000
F00000
ENDCHAR
STARTCHAR 03A3
ENCODING 931
SWIDTH 500 0
DWIDTH 25 0
BBX 28 31 1 0
BITMAP
00FFFFF0
00FFFFF0
01FFFFE0
00FFFFE0
00F00000
00780000
00780000
003C0000
003C0000
001E0000
001E0000
000F0000
000F8000
00078000
0007C000
0007C000
000F8000
001F0000
003E0000
007C0000
00F80000
01F00000
03C00000
07800000
0F000000
1E000000
3C000000
7FFFF800
FFFFF800
FFFFF800
FFFFF800
ENDCHAR
STARTCHAR 03A4
ENCODING 932
SWIDTH 500 0
DWIDTH 25 0
BBX 21 31 8 0
BITMAP
FFFFF8
FFFFF8
FFFFF8
FFFFF8
00F000
00F000
01E000
01E000
01E000
01E000
03C000
03C000
03C000
03C000
07C000
078000
078000
078000
0F8000
0F0000
0F0000
0F0000
1F0000
1E0000
1E0000
1E0000
3E0000
3C0000
3C0000
3C0000
3C0000
ENDCHAR
STARTCHAR 03A5
ENCODING 933
SWIDTH 500 0
DWIDTH 25 0
BBX 24 31 7 0
BITMAP
F0001F
78001E
78003E
78007C
780078
7800F8
3C01F0
3C01E0
3C03C0
3C07C0
1E0780
1E0F00
1E1E00
1E3E00
0F3C00
0F7800
0FF000
07E000
07C000
03C000
078000
078000
078000
078000
0F0000
0F0000
0F0000
0F0000
1F0000
1E0000
1E0000
ENDCHAR
STARTCHAR 03A6
ENCODING 934
SWIDTH 500 0
DWIDTH 25 0
BBX 23 33 4 0
BITMAP
000380
000780
000780
000780
003FE0
00FFF0
03FFF8
07EFFC
0F8E7C
1F1E3C
1E1E3E
3E1E1E
3C1C1E
7C3C1E
783C1E
783C1E
78383E
78383C
F8783C
F8783C
F87078
787078
78F0F0
78F1F0
7CF3E0
3EEFC0
3FFF80
1FFE00
07F800
01C000
03C000
03C000
03C000
ENDCHAR
STARTCHAR 03A7
ENCODING 935
SWIDTH 500 0
DWIDTH 25 0
BBX 29 31 1 0
BITMAP
00F000F8
00F800F0
007801F0
007C03E0
007C03C0
003C0780
003E0F80
003E1F00
001E3E00
001F3C00
000F7800
000FF800
000FF000
0007E000
0007C000
000FC000
001FC000
001FE000
003DE000
007DE000
00F8F000
01F0F000
03E0F000
03C0F800
07C07800
0F807800
1F007C00
3E003C00
7C003C00
7C003C00
F8003E00
ENDCHAR
STARTCHAR 03A8
ENCODING 936
SWIDTH 500 0
DWIDTH 25 0
BBX 24 31 5 0
BITMAP
1E000F
1E000F
1E000F
1C001E
3C001E
3C001E
3C001E
3C3C1C
783C3C
78383C
78783C
787838
707878
F07878
F0F078
F0F0F0
F0F0F0
F0F1E0
F9E3E0
7DEFC0
7FFF80
3FFF00
1FFC00
03C000
03C000
03C000
038000
078000
078000
078000
070000
ENDCHAR
STARTCHAR 03A9
ENCODING 937
SWIDTH 500 0
DWIDTH 25 0
BBX 27 32 0 0
BITMAP
00003800
0003FE00
000FFF80
001FFF80
003F0FC0
007C07C0
00F803E0
01F003E0
01E001E0
03E001E0
03C001E0
07C001E0
078001E0
078003E0
0F8003E0
0F8003C0
0F0003C0
0F0007C0
0F000780
0F000780
0F000F00
0F000F00
0F001E00
0F001E00
0F003C00
07807800
07807800
0780F000
7FC1FF00
FFC3FF00
FFC7FE00
FFC7FE00
ENDCHAR
STARTCHAR 03AA
ENCODING 938
SWIDTH 500 0
DWIDTH 25 0
BBX 23 40 4 0
BITMAP
00180C
003C3E
007E3E
007C3E
003C3C
001000
000000
000000
000000
01FFFE
01FFFE
03FFFC
03FFFC
000F00
000F00
001F00
001E00
001E00
001E00
003E00
003C00
003C00
003C00
007C00
007800
007800
007800
00F800
00F000
00F000
00F000
00F000
01E000
01E000
01E000
01E000
FFFF00
FFFF00
FFFF00
FFFF00
ENDCHAR
STARTCHAR 03AB
ENCODING 939
SWIDTH 500 0
DWIDTH 25 0
BBX 24 40 7 0
BITMAP
00C060
01E1F0
03F1F0
03E1F0
01E1E0
008000
000000
000000
000000
F0001F
78001E
78003E
78007C
780078
7800F8
3C01F0
3C01E0
3C03C0
3C07C0
1E0780
1E0F00
1E1E00
1E3E00
0F3C00
0F7800
0FF000
07E000
07C000
03C000
078000
078000
078000
078000
0F0000
0F0000
0F0000
0F0000
1F0000
1E0000
1E0000
ENDCHAR
STARTCHAR 03AC
ENCODING 940
SWIDTH 500 0
DWIDTH 25 0
BBX 22 36 4 -1
BITMAP
000020
000070
0000F8
0000F0
0001E0
0003E0
0007C0
000F80
000300
000000
000000
0003C0
007FFC
01FFF8
03FFF8
07E078
0F8078
1F00F0
3E00F0
3C00F0
7C00F0
7801E0
7801E0
F801E0
F001E0
F003C0
F003C0
F003C0
F003C0
F803C0
F803C0
7C0FE0
7FFFF0
3FFDF0
1FF8F0
038000
ENDCHAR
STARTCHAR 03AD
ENCODING 941
SWIDTH 500 0
DWIDTH 25 0
BBX 22 36 4 -1
BITMAP
000010
000038
00007C
0000F8
0001F0
0001E0
0003C0
000780
000300
000000
000000
000FC0
00FFF8
03FFF8
07FFF0
0FC010
0F0000
0F0000
0F0000
0F0000
0F0000
0FFF00
03FE00
0FFE00
3FFE00
3E0000
780000
780000
780000
F80000
780000
7C01C0
7FFFC0
3FFFC0
0FFF80
007000
ENDCHAR
STARTCHAR 03AE
ENCODING 942
SWIDTH 500 0
DWIDTH 25 0
BBX 23 43 3 -8
BITMAP
000008
00001C
00003E
00007C
0000F8
0000F0
0001E0
0003C0
000180
000000
000000
000F00
03FFE0
07FFF0
07FFF8
0780F8
078078
0F007C
0F003C
0F003C
0F007C
1F0078
1E0078
1E0078
1E0078
3E00F0
3C00F0
3C00F0
3C00F0
7C01E0
7801E0
7801E0
7801E0
7803E0
F003C0
0003C0
0003C0
0007C0
000780
000780
000780
000F80
000F00
ENDCHAR
STARTCHAR 03AF
ENCODING 943
SWIDTH 500 0
DWIDTH 25 0
BBX 16 35 7 0
BITMAP
0008
000E
001F
003E
007C
00F8
00F0
01E0
00C0
0000
0000
0000
FFE0
FFE0
FFE0
03C0
03C0
03C0
03C0
0780
0780
0780
0780
0F80
0F00
0F00
0F00
0F00
0F00
0F00
0F00
0FC4
0FFC
07FC
01FC
ENDCHAR
STARTCHAR 03B0
ENCODING 944
SWIDTH 500 0
DWIDTH 25 0
BBX 23 36 4 -1
BITMAP
000100
000380
0183CC
03C79E
03C73E
03CF3E
039E1C
001C00
000800
000000
000000
000000
0F003C
1F007C
1E0078
1E0078
1E0078
3E00F8
3C00F0
3C00F0
3C00F0
7C01F0
7801E0
7801E0
7801E0
7803E0
F803C0
F003C0
F007C0
F80780
780F80
7C1F00
7FFF00
3FFE00
1FF800
018000
ENDCHAR
STARTCHAR 03B1
ENCODING 945
SWIDTH 500 0
DWIDTH 25 0
BBX 22 25 4 -1
BITMAP
0003C0
007FFC
01FFF8
03FFF8
07E078
0F8078
1F00F0
3E00F0
3C00F0
7C00F0
7801E0
7801E0
F801E0
F001E0
F003C0
F003C0
F003C0
F003C0
F803C0
F803C0
7C0FE0
7FFFF0
3FFDF0
1FF8F0
038000
ENDCHAR
STARTCHAR 03B2
ENCODING 946
SWIDTH 500 0
DWIDTH 25 0
BBX 25 43 1 -8
BITMAP
00007000
0003FC00
000FFF00
001FFF00
003F0F80
003C0780
007C0780
00780780
00F80780
00F00780
00F00F00
00F00F00
01F01E00
01E03E00
01E3F800
01E3F000
03E7F000
03C7F800
03C07C00
03C03C00
07C01E00
07801E00
07801E00
07801E00
0F801E00
0F001E00
0F001E00
0F003E00
0F003C00
1E007C00
1E00F800
1FC7F800
1FFFF000
3FFFC000
3DFF0000
3C000000
3C000000
78000000
78000000
78000000
78000000
F8000000
F0000000
ENDCHAR
STARTCHAR 03B3
ENCODING 947
SWIDTH 500 0
DWIDTH 25 0
BBX 20 31 7 -8
BITMAP
F001F0
F001E0
F001E0
F003E0
F003C0
F007C0
F80780
780780
780F00
780F00
781E00
783E00
783C00
787800
78F800
78F000
79E000
7BE000
7FC000
7F8000
7F0000
7E0000
7C0000
780000
780000
780000
780000
780000
780000
780000
F80000
ENDCHAR
STARTCHAR 03B4
ENCODING 948
SWIDTH 500 0
DWIDTH 25 0
BBX 23 36 4 -1
BITMAP
0003E0
001FFC
007FFE
007FFE
00F80C
00F000
01E000
01E000
00F000
00F000
00F800
007C00
003F00
007F80
01FFC0
03F7C0
07C3E0
0F81F0
1F00F0
3E00F0
3C00F8
7C0078
780078
780078
7800F8
F800F0
F800F0
F801F0
7801E0
7803E0
7C07C0
7E0FC0
3FFF80
1FFE00
0FFC00
018000
ENDCHAR
STARTCHAR 03B5
ENCODING 949
SWIDTH 500 0
DWIDTH 25 0
BBX 21 25 4 -1
BITMAP
000FC0
00FFF8
03FFF8
07FFF0
0FC010
0F0000
0F0000
0F0000
0F0000
0F0000
0FFF00
03FE00
0FFE00
3FFE00
3E0000
780000
780000
780000
F80000
780000
7C01C0
7FFFC0
3FFFC0
0FFF80
007000
ENDCHAR
STARTCHAR 03B6
ENCODING 950
SWIDTH 500 0
DWIDTH 25 0
BBX 23 42 5 -9
BITMAP
01FFFE
01FFFE
01FFFE
00007C
0000F8
0003E0
0007C0
000F80
001F00
007C00
00F800
01F000
03E000
07C000
078000
0F0000
1F0000
3E0000
3C0000
7C0000
780000
F80000
F00000
F00000
F00000
F00000
F00000
F80000
F80000
7E0000
7FE000
1FFC00
0FFE00
00FF00
001F00
000F00
000F00
000F00
001E00
003E00
003C00
003800
ENDCHAR
STARTCHAR 03B7
ENCODING 951
SWIDTH 500 0
DWIDTH 25 0
BBX 22 32 3 -8
BITMAP
000F00
03FFE0
07FFF0
07FFF8
0780F8
078078
0F007C
0F003C
0F003C
0F007C
1F0078
1E0078
1E0078
1E0078
3E00F0
3C00F0
3C00F0
3C00F0
7C01E0
7801E0
7801E0
7801E0
7803E0
F003C0
0003C0
0003C0
0007C0
000780
000780
000780
000F80
000F00
ENDCHAR
STARTCHAR 03B8
ENCODING 952
SWIDTH 500 0
DWIDTH 25 0
BBX 21 36 5 -1
BITMAP
000700
003FC0
007FE0
01FFF0
01F0F8
03C078
078078
0F8078
0F0078
1F0078
1E0078
3E0078
3C0078
3C0078
7C0078
780078
7FFFF8
7FFFF8
7FFFF8
F800F8
F000F0
F000F0
F000F0
F001E0
F001E0
F003E0
F003C0
F007C0
F00780
F00F80
F81F00
7C3E00
7FFC00
3FF800
1FE000
078000
ENDCHAR
STARTCHAR 03B9
ENCODING 953
SWIDTH 500 0
DWIDTH 25 0
BBX 14 23 7 0
BITMAP
FFE0
FFE0
FFE0
03C0
03C0
03C0
03C0
0780
0780
0780
0780
0F80
0F00
0F00
0F00
0F00
0F00
0F00
0F00
0FC4
0FFC
07FC
01FC
ENDCHAR
STARTCHAR 03BA
ENCODING 954
SWIDTH 500 0
DWIDTH 25 0
BBX 24 23 3 0
BITMAP
03C01F
07807E
0780F8
0781F0
0783E0
0F07C0
0F1F80
0F3E00
0F7C00
1FF800
1FE000
1FF000
1EF800
3E7C00
3C3E00
3C1F00
3C0F80
7C0F80
7807C0
7803C0
7803E0
7801E0
F001F0
ENDCHAR
STARTCHAR 03BB
ENCODING 955
SWIDTH 500 0
DWIDTH 25 0
BBX 20 35 2 0
BITMAP
00E000
01FE00
01FE00
01FF00
000F80
000780
000780
000780
000380
0003C0
0003C0
0003C0
0007C0
0007C0
000FE0
001FE0
003FE0
003DE0
0079E0
00F1E0
01F0E0
01E0E0
03C0F0
07C0F0
0780F0
0F80F0
0F00F0
1E00F0
1E00F0
3C00F0
3C00F0
7800F0
7800F0
F000F0
F000F0
ENDCHAR
STARTCHAR 03BC
ENCODING 956
SWIDTH 500 0
DWIDTH 25 0
BBX 25 31 0 -8
BITMAP
00F00780
01E00780
01E00780
01E00780
01E00F00
03C00F00
03C00F00
03C00F00
03C01F00
07C01E00
07801E00
07801E00
07803E00
0F803C00
0F003C00
0F003C00
0F003C00
1F003C00
1F807C00
1FC3FE00
1FFFFF00
1DFFDF00
3CFF0F00
3C300000
3C000000
3C000000
78000000
78000000
78000000
78000000
F0000000
ENDCHAR
STARTCHAR 03BD
ENCODING 957
SWIDTH 500 0
DWIDTH 25 0
BBX 19 23 7 0
BITMAP
F001E0
F001E0
F003E0
F003C0
F003C0
F00780
F00780
F00F00
F00F00
F81E00
F81E00
783C00
783C00
787800
78F000
78F000
79E000
3FE000
3FC000
3F8000
3F0000
3F0000
1E0000
ENDCHAR
STARTCHAR 03BE
ENCODING 958
SWIDTH 500 0
DWIDTH 25 0
BBX 23 43 5 -9
BITMAP
0001E0
001FFE
003FFE
00FFFC
01F804
01F000
03E000
03C000
07C000
078000
078000
078000
07C000
03C000
03F800
01FFC0
00FFC0
03FFC0
0FF000
1F8000
3E0000
7C0000
780000
F80000
F00000
F00000
F00000
F00000
F00000
F80000
7E0000
7FE000
3FFC00
0FFE00
00FF00
001F00
000F00
000F00
000F00
001E00
003E00
003C00
003800
ENDCHAR
STARTCHAR 03BF
ENCODING 959
SWIDTH 500 0
DWIDTH 25 0
BBX 21 25 4 -1
BITMAP
001F00
00FFC0
03FFE0
07FFF0
0FC1F8
1F80F8
1E0078
3E0078
3C0078
7C0078
780078
780078
F80078
F000F8
F000F0
F000F0
F001F0
F003E0
F803E0
F80FC0
7C1F80
7FFF00
3FFE00
1FF800
010000
ENDCHAR
STARTCHAR 03C0
ENCODING 960
SWIDTH 500 0
DWIDTH 25 0
BBX 23 23 3 0
BITMAP
07FFFE
07FFFE
07FFFC
0F003C
0F003C
0F003C
0F0078
1F0078
1E0078
1E0078
1E00F0
3E00F0
3C00F0
3C00F0
3C01F0
7C01E0
7801E0
7801E0
7803E0
7803C0
F003C0
F003C0
F007C0
ENDCHAR
ENDFONT
